<?xml version="1.0" encoding="utf-8"?>
<!-- Generator: Adobe Illustrator 22.1.0, SVG Export Plug-In . SVG Version: 6.00 Build 0)  -->
<svg version="1.1" xmlns="http://www.w3.org/2000/svg" xmlns:xlink="http://www.w3.org/1999/xlink" x="0px" y="0px"
	 viewBox="0 0 700 700" style="enable-background:new 0 0 700 700;" xml:space="preserve">
<style type="text/css">
	.st0{fill:#E5F4F9;}
	.st1{fill:#9EDBEC;}
	.st2{fill:#81AFBD;}
	.st3{fill:none;}
	.st4{fill:#9DDBEC;}
	.st5{fill:#FFD686;}
	.st6{fill:#F89A42;}
	.st7{fill:#FEBE4E;}
	.st8{fill:#F7946C;}
	.st9{fill:#FCE292;}
	.st10{fill:#FEED79;}
	.st11{fill:none;stroke:#FCE292;stroke-miterlimit:10;}
	.st12{fill:none;stroke:#FEED79;stroke-miterlimit:10;}
	.st13{fill:#FCE292;stroke:#FEED79;stroke-miterlimit:10;}
</style>
<g id="Background">
	<rect x="247.7" y="247.6" class="st0" width="205.5" height="205.7"/>
	<polygon class="st1" points="0,0.9 700,0.9 453.3,247.6 248.4,247.6 	"/>
	<polygon class="st2" points="1,700.8 1,0.8 247.7,247.6 247.7,452.5 	"/>
	<polygon class="st2" points="700,700.8 700,0.8 453.3,247.6 453.3,452.5 	"/>
	<polygon class="st3" points="700,700 700,0 453.3,246.7 453.3,451.6 	"/>
	<polygon class="st4" points="0,700 700,700 453.3,453.3 248.4,453.3 	"/>
	<g>
		<g>
			<path class="st1" d="M527.6,170.3c3.2,0,3.2-5,0-5C524.4,165.3,524.4,170.3,527.6,170.3L527.6,170.3z"/>
		</g>
	</g>
</g>
<g id="Prisms">
	<polygon class="st5" points="122.2,291.6 142.3,275.9 229.9,384 204.5,401.6 	"/>
	<polygon class="st6" points="205.3,402.7 205.3,433.9 122.1,331.8 122.1,293.2 205.3,396.9 	"/>
	<polygon class="st7" points="205.3,396.9 229.9,384 229.1,412.8 205.3,432.2 	"/>
	<polygon class="st5" points="318.2,174.2 347.4,153.7 474.8,294.7 437.9,317.5 	"/>
	<polygon class="st6" points="439,319 439,359.7 318.1,226.6 318.1,176.2 439,311.4 	"/>
	<polygon class="st7" points="439,311.4 474.8,294.7 473.6,332.2 439,357.4 	"/>
	<polygon class="st5" points="72.8,-15 99.3,-35.7 214.5,106.6 181.1,129.6 	"/>
	<polygon class="st6" points="182.1,131.1 182.1,172.2 72.7,37.9 72.7,-13 182.1,123.5 	"/>
	<polygon class="st5" points="308.8,473.9 324.2,461.8 391.3,544.7 371.8,558.1 	"/>
	<polygon class="st6" points="372.4,559 372.4,582.9 308.7,504.7 308.7,475.1 372.4,554.5 	"/>
	<polygon class="st7" points="372.4,554.5 391.3,544.7 390.6,566.7 372.4,581.5 	"/>
	<polygon class="st5" points="620.2,411.8 640.3,396.1 727.9,504.2 702.5,521.7 	"/>
	<polygon class="st6" points="703.3,522.9 703.3,554.1 620.1,452 620.1,413.3 703.3,517.1 	"/>
	<polygon class="st7" points="703.3,517.1 727.9,504.2 727.1,533 703.3,552.3 	"/>
	<polygon class="st5" points="477.8,533.4 510.5,504.2 653.3,704.7 611.9,737.2 	"/>
	<polygon class="st6" points="613.2,736.5 613.2,794.3 477.8,605.1 477.8,533.4 613.2,725.7 	"/>
	<polygon class="st7" points="613.1,728.6 653.3,704.7 651.9,758.1 613.1,793.9 	"/>
	<polygon class="st5" points="89.9,481.4 110,465.7 197.6,573.8 172.2,591.3 	"/>
	<polygon class="st6" points="172.9,592.5 172.9,623.7 89.8,521.6 89.8,482.9 172.9,586.7 	"/>
	<polygon class="st7" points="172.9,586.7 197.6,573.8 196.8,602.6 172.9,621.9 	"/>
	<polygon class="st5" points="470.1,11.4 490.2,-4.3 577.8,103.8 552.4,121.4 	"/>
	<polygon class="st6" points="553.1,122.5 553.1,153.7 470,51.6 470,13 553.1,116.7 	"/>
	<polygon class="st7" points="553.1,116.7 577.8,103.8 577,132.6 553.1,152 	"/>
	<polygon class="st7" points="182.1,123.5 214.5,106.6 213.5,144.5 182.1,169.9 	"/>
</g>
<g id="Rectangles">
	<polygon class="st8" points="577.8,217.3 597.7,199.3 638.8,258.5 620.2,268 	"/>
	<polygon class="st8" points="381.8,413.3 407.5,401.6 444.8,465.7 425.5,475.1 	"/>
	<polygon class="st8" points="131.4,662 163.7,638.8 235.3,727.5 182.1,749.3 	"/>
	<polygon class="st8" points="65.7,153.7 83.7,138.2 153.1,221.2 131.4,233.7 	"/>
	<polygon class="st8" points="638.8,0.9 733.9,79.6 733.9,13 682.8,-28.1 	"/>
</g>
<g id="Layer_5">
	<g>
		<g>
			<path class="st9" d="M395.6,618.8c-3.6,9-5.5,17.8,1,26c3.3,4.1,7.9,7.7,9.4,12.9c0.9,3.1,0.7,7.2-1.8,9.6
				c-2.5,2.3-6.1,2.3-9.2,2.1c0.8,0.6,1.6,1.2,2.4,1.8c-0.5-2.4-0.5-4.6-0.2-7c0.3-2.7-3.4-3-4.7-1.3c-4.9,6.8-9.2,13.8-13,21.3
				c-0.8,1.7,0.2,3.8,2.2,3.8c3.8,0,7.4-0.5,11.1-1.6c1.4-0.4,2.5-2.3,1.5-3.7c-2.3-3.2-2.5-6.6-0.5-10c-1.4-0.8-2.9-1.7-4.3-2.5
				c-2,4.7-4.3,9.2-6.9,13.5c-1.4,2.4,2,5.2,3.9,3c4-4.4,8.5-7.8,13.9-10.3c2.8-1.3,0.6-4.9-1.9-4.6c-4.6,0.6-9.7,1.5-12.7,5.4
				c-2.6,3.4-4.3,7.6-6.2,11.3c-1.1,2.1-2.1,4.1-3.3,6.1c-0.3,0.5-1.6,1.9-1.6,2.5c0,1,1.2,1.8,1.7,0.6c0.4-1.1-0.4-4.4-0.5-5.6
				c-0.2-1.6-0.2-3.4-0.8-4.9c-0.4-1.1-1-2-2-2.6c-0.9-0.5-1.8-0.3-2.8-0.6c-3.2-0.9-4.2-3.7-4.8-6.7c-1.7-8.1-0.9-16.6,1.3-24.5
				c2-7.5,5.2-16.4,10.6-22.2c5.2-5.6,13-7.5,20.2-8.8c-1-1-2.1-2.1-3.1-3.1c-6.2,17.5-11.2,36.8-2.1,54.3c1.4-0.8,2.9-1.7,4.3-2.5
				c-5.4-10.1-9.8-20.5-13.3-31.4c-1.6,0.4-3.2,0.9-4.8,1.3c2.2,6.8,5.2,13.2,9,19.3c1.7,2.7,5.9,0.3,4.3-2.5
				c-2.9-5.3-5.6-10.6-8-16.1c-1.3,1-2.6,2-3.9,3c8,8.8,15.8,17.8,21.4,28.3c1.4-0.8,2.9-1.7,4.3-2.5c-4.8-7.3-8.9-14.9-12.4-22.9
				c-1.2-2.6-5.3-0.7-4.6,1.9c2,7.4,5,14.4,8.1,21.4c1.3-1,2.6-2,3.9-3c-2.2-2.5-4.3-5.1-6.5-7.6c-1.1-1.3-3.9-0.7-4.2,1.1
				c-0.6,4,1.2,7.3,5.2,8.3c1.2,0.3,2.8-0.4,3.1-1.7c1.1-6.7,1.2-13.2,0.2-19.9c-1.6,0.4-3.2,0.9-4.8,1.3c1.4,5.8,3.4,11.3,6.1,16.6
				c1.5,2.9,5.6,0.4,4.3-2.5c-2.8-6.3-5-12.7-6.9-19.3c-1.5,0.6-3,1.3-4.6,1.9c2.9,4.8,5.9,9.6,9,14.3c1.8,2.7,6.1,0.2,4.3-2.5
				c-0.7-1.1-1.3-1.7-2.3-2.4c-1.7-1.2-4.4,0.8-3.7,2.8c0.8,2.2,0.9,3.9,0.3,6.2c-0.8,2.7,3.1,4.4,4.6,1.9
				c2.7-4.8,4.6-10.3,0.2-14.7c-1.8-1.8-4.8,0-4.2,2.4c1.1,4.4,2.2,8.8,3.2,13.1c0.6-1,1.2-2.1,1.7-3.1c-2.2,0.5-3.9,1.5-5.4,3.2
				c1.2,0,2.4,0,3.5,0c-6.9-8.2-8.2-19-8.9-29.4c-1.7,0-3.3,0-5,0c0.6,4.9,1,9.8,1.2,14.7c1.6-0.2,3.3-0.4,4.9-0.7
				c-1.8-6.3-3.7-12.6-5.9-18.8c-0.6-1.7-2.8-2.6-4.2-1.1c-4.6,5.1-7.5,13.5-1.3,18.7c2.2,1.8,5.1-0.4,3.9-3
				c-0.9-1.8-1.7-3.7-2.6-5.5c-1.3,1-2.6,2-3.9,3c1.6,1.5,3.1,3,4.7,4.5c1.5,1.4,4.4,0.5,4.3-1.8c-0.2-3.1-0.1-6.1,0.3-9.1
				c-1.6,0.2-3.3,0.4-4.9,0.7c-0.3,1.2-0.6,2.4-0.9,3.5c1.6,0.4,3.1,0.8,4.7,1.3c-0.4-3.8,0.3-6.7,2.2-10c1-1.7,2.2-3.3,1.7-5.5
				c-0.7-3.2-4.9-4.5-6.4-2.4c-1.5-0.6-3-1.3-4.6-1.9c-1.1,6.1-4.5,11-9.9,14c1.1,0.3,2.3,0.6,3.4,0.9c0.5-1.1,1-2.3,1.4-3.4
				c-0.8-1.4-1.6-2.8-2.4-4.2c-0.7,0.7-1.4,1.3-2.2,2c1.3,1,2.6,2,3.9,3c2.9-3.9,8.4-2.3,9,2.5c1.3-0.7,2.5-1.4,3.8-2.2
				c-3.2-1.9-5.9-4.1-8.2-7.1c-1.5-1.9-5,0.2-4.2,2.4c1,2.7,2.2,5.2,3.8,7.6c1.8,2.6,6.1,0.2,4.3-2.5c-1.1-1.7-2-3.8-3.3-5.4
				c-1.7-2.1-1.1-0.7,1.2-1.2c1.9-0.4,7.7-6.8,8.6-6.3c0-1.4,0-2.9,0-4.3c-6.5,4.6-13.1,9.2-19.7,13.6c1.2,0.9,2.4,1.9,3.7,2.8
				c0.4-2.2,0.9-4.1,1.8-6.1c-1.6-0.4-3.1-0.8-4.7-1.3c-1.1,8.4-3,16.6-5.7,24.6c1.6,0,3.2,0,4.8,0c-1.5-4.2-2.1-8.2-2-12.6
				c-1.7,0-3.3,0-5,0c0.7,8,0.1,15.8-1.7,23.6c1.6,0.2,3.3,0.4,4.9,0.7c-0.1-4.1-0.1-8.1,0-12.2c-1.7,0-3.3,0-5,0
				c0.6,18.1,0.4,36.3,2.2,54.3c0.3,2.7,4.1,3.5,4.9,0.7c1.8-5.8,0.9-13.2,1-19.3c0-9.8-1.2-19.5-2.1-29.3c-1.6,0.2-3.3,0.4-4.9,0.7
				c2.6,7.8,5.3,15.6,7.9,23.4c1,3,5.8,1.7,4.8-1.3c-1.4-4.2-2.8-8.5-4.2-12.7c-1-3-5.8-1.8-4.8,1.3c2.3,7.3,1.3,15.5,2.2,23.1
				c1.6-0.4,3.1-0.8,4.7-1.3c-2.7-4.1-1.2-11.4-2.2-16.1c-1.2,0.9-2.4,1.9-3.7,2.8c0.7,0.6,1.5,3.5,1.9,4.6c0.8,2.2,1.6,4.3,2.5,6.5
				c1,2.4,2.2,5.8,5.3,6c1.4,0.1,2.4-1.2,2.5-2.5c0.7-13.4-1-28-3.7-41.2c-0.5-2.5-4.2-2.3-4.8,0c-2.7,9.4-1.8,18.9-0.7,28.5
				c1.6-0.2,3.3-0.4,4.9-0.7c-1.1-7.6-2.1-15.2-3.2-22.8c-0.4-2.8-5.1-2.1-4.9,0.7c0.3,3.4,0.1,6.6-0.7,9.9c1.6,0.2,3.3,0.4,4.9,0.7
				c0.2-9.3,1.8-18.5,3.5-27.6c-1.6,0-3.2,0-4.8,0c2.5,8.1,5.3,16.2,8.3,24.2c1.1,3,5.9,1.7,4.8-1.3c-3-8.4-5.5-17-7.5-25.6
				c-1.6,0.4-3.2,0.9-4.8,1.3c0,0.8,0.1,1.5,0.1,2.3c1.4-0.4,2.8-0.7,4.2-1.1c-1.5-1.2-2.9-2.5-4.2-3.8c-1.4-1.4-3.5-0.6-4.2,1.1
				c-1.4,3.8-2.1,7.4-2.3,11.4c-0.2,3,4,3.2,4.9,0.7c0.5-1.3,0.9-2.7,1.4-4c-1.5,0.2-3,0.4-4.6,0.6c3.2,4.9,7.1,9,11.9,12.4
				c1.8,1.3,4.3-0.9,3.7-2.8c-1.6-5.1-3.2-10.1-4.8-15.2c-1.4,0.8-2.8,1.6-4.2,2.4c2.8,3.6,5.5,7.3,8.1,11.1c1.1,1.6,3,3.5,2.9,5.6
				c-0.1,1.3-1.8,3.6-2.4,4.7c-3.1,5.5-8.8,9.1-10.9,15.1c-0.7,1.9,1.3,3.5,3.1,3.1c3.4-0.8,6.7-1.3,10.1-1.6
				c-0.2-1.6-0.4-3.3-0.7-4.9c-4.2,1.2-2.2-4-1.8-6.5c0.5-3,1.1-6.1,1.8-9.1c-1.6-0.4-3.2-0.9-4.8-1.3c-1,6.7-1.5,13.3-1.3,20.1
				c0.1,2.3,3.5,3.6,4.7,1.3c3.2-6.7,5.8-13.7,7.7-20.9c0.9-3.2-3.7-4.3-4.8-1.3c-1.1,2.7-2,5.4-2.8,8.3c1.6,0,3.2,0,4.8,0
				c-0.9-5.2-1.7-10.3-2.6-15.5c-1.6,0.4-3.2,0.9-4.8,1.3c1,4,2.1,8,3.1,11.9c0.8,3.1,5.6,1.8,4.8-1.3c-1-4-2.1-8-3.1-11.9
				c-0.8-3.2-5.3-1.8-4.8,1.3c0.9,5.2,1.7,10.3,2.6,15.5c0.4,2.5,4.2,2.2,4.8,0c0.8-2.8,1.7-5.5,2.8-8.3c-1.6-0.4-3.2-0.9-4.8-1.3
				c-1.8,6.8-4.2,13.3-7.2,19.7c1.6,0.4,3.1,0.8,4.7,1.3c-0.1-6.3,0.2-12.5,1.2-18.7c0.5-3.1-4.1-4.5-4.8-1.3
				c-1.5,6.8-7.7,25.8,6.1,21.7c2.6-0.8,2.2-5.1-0.7-4.9c-3.9,0.3-7.7,0.8-11.4,1.7c1,1,2.1,2.1,3.1,3.1c1.3-3.9,5.1-6.3,7.5-9.5
				c2.3-3,5.4-7.5,6.1-11.3c0.6-3.3-2-5.9-3.7-8.5c-2.8-4.1-5.8-8.1-8.9-12.1c-1.6-2-4.9,0.2-4.2,2.4c1.6,5.1,3.2,10.1,4.8,15.2
				c1.2-0.9,2.4-1.9,3.7-2.8c-4-2.9-7.3-6.5-10.1-10.6c-1.2-1.9-3.8-1.5-4.6,0.6c-0.5,1.3-0.9,2.7-1.4,4c1.6,0.2,3.3,0.4,4.9,0.7
				c0.2-3.5,1-6.8,2.2-10.1c-1.4,0.4-2.8,0.7-4.2,1.1c1.4,1.4,2.7,2.6,4.2,3.8c1.4,1.1,3.6,0.9,4.2-1.1c0.5-1.8,0.5-3.2-0.1-4.9
				c-1-3-5.6-1.8-4.8,1.3c2.1,8.7,4.6,17.2,7.5,25.6c1.6-0.4,3.2-0.9,4.8-1.3c-3-8-5.8-16-8.3-24.2c-0.7-2.2-4.3-2.6-4.8,0
				c-1.8,9.6-3.5,19.2-3.7,29c-0.1,2.8,4.3,3.4,4.9,0.7c0.9-3.8,1.2-7.4,0.9-11.2c-1.6,0.2-3.3,0.4-4.9,0.7
				c1.1,7.6,2.1,15.2,3.2,22.8c0.4,2.8,5.2,2.1,4.9-0.7c-1.1-9.1-2-18.2,0.5-27.2c-1.6,0-3.2,0-4.8,0c2.6,12.7,4.3,26.9,3.5,39.8
				c0.8-0.8,1.7-1.7,2.5-2.5c1.7,0.1,0.6,0.4,0.4-0.7c-0.2-0.8-0.8-1.7-1.2-2.5c-0.9-2-1.6-4-2.4-6.1c-1-2.5-1.8-5.5-4-7.2
				c-1.9-1.4-4.1,0.9-3.7,2.8c1.1,5.3-0.4,12.5,2.7,17.3c1.2,1.9,5,1.4,4.7-1.3c-0.9-8,0.1-16.7-2.4-24.4c-1.6,0.4-3.2,0.9-4.8,1.3
				c1.4,4.2,2.8,8.5,4.2,12.7c1.6-0.4,3.2-0.9,4.8-1.3c-2.6-7.8-5.3-15.6-7.9-23.4c-0.8-2.5-5.2-2.3-4.9,0.7
				c0.8,9.4,2.1,18.9,2.1,28.3c0,5.8,0.9,13.2-0.8,18.9c1.6,0.2,3.3,0.4,4.9,0.7c-1.7-18-1.5-36.2-2.2-54.3c-0.1-3.2-4.9-3.2-5,0
				c-0.1,4.1-0.1,8.1,0,12.2c0.1,2.7,4.3,3.5,4.9,0.7c1.9-8.2,2.6-16.5,1.9-24.9c-0.3-3.2-4.9-3.3-5,0c-0.1,4.8,0.6,9.4,2.2,13.9
				c0.8,2.3,4,2.4,4.8,0c2.8-8.5,4.8-17.1,5.9-25.9c0.3-2.4-3.7-3.5-4.7-1.3c-1,2.4-1.8,4.7-2.3,7.3c-0.4,2,1.7,4.1,3.7,2.8
				c6.6-4.4,13.2-9,19.7-13.6c1.5-1.1,1.7-3.3,0-4.3c-2.3-1.4-4.9-1.3-7.1,0.3c-1.4,1.1-2.1,2.7-3.4,3.9c-1.9,1.8-2.6,1-4.8,1.3
				c-7.4,1.2,0.1,11.2,2,14.1c1.4-0.8,2.9-1.7,4.3-2.5c-1.4-2.1-2.5-4.1-3.3-6.4c-1.4,0.8-2.8,1.6-4.2,2.4c2.6,3.3,5.6,5.8,9.2,7.8
				c1.5,0.9,4-0.2,3.8-2.2c-1.2-9.8-12.3-12.9-18.3-5c-1.8,2.3,1.9,4.9,3.9,3c0.7-0.7,1.4-1.3,2.2-2c1.8-1.7-0.1-5-2.4-4.2
				c-4.7,1.6-6.6,6.3-4.4,10.7c0.6,1.2,2.3,1.5,3.4,0.9c6.5-3.6,10.9-9.7,12.2-17c0.5-2.8-2.9-4.3-4.6-1.9c-2.2,3.1-1.1,8.3,3.6,7.7
				c0.2,0,2.4-0.7,1.9-1c-0.3-0.2-2.3,3.8-2.4,4.1c-1.3,3.1-1.7,6.3-1.3,9.7c0.3,2.5,3.2,3.4,4.7,1.3c1.7-2.4,2-4.5,1.4-7.4
				c-0.6-3-4.6-1.9-4.9,0.7c-0.4,3.1-0.5,6.1-0.3,9.1c1.4-0.6,2.8-1.2,4.3-1.8c-1.6-1.5-3.1-3-4.7-4.5c-2.1-2-5.1,0.5-3.9,3
				c0.9,1.8,1.7,3.7,2.6,5.5c1.3-1,2.6-2,3.9-3c-4-3.3-1.5-8.5,1.3-11.6c-1.4-0.4-2.8-0.7-4.2-1.1c2.1,6.2,4.1,12.5,5.9,18.8
				c0.8,2.7,5,2.2,4.9-0.7c-0.2-4.9-0.5-9.8-1.2-14.7c-0.4-3.1-5.2-3.3-5,0c0.8,11.8,2.5,23.6,10.4,32.9c0.8,1,2.7,1,3.5,0
				c0.7-1.2,1.8-1.8,3.2-2c1.3-0.3,2.1-1.8,1.7-3.1c-1.1-4.4-2.2-8.8-3.2-13.1c-1.4,0.8-2.8,1.6-4.2,2.4c2.8,2.7,0.5,6-0.9,8.6
				c1.5,0.6,3,1.3,4.6,1.9c0.9-3.1,0.8-5.8-0.3-8.9c-1.2,0.9-2.4,1.9-3.7,2.8c0.2,0.2,0.4,0.4,0.6,0.6c1.4-0.8,2.9-1.7,4.3-2.5
				c-3.1-4.7-6.1-9.4-9-14.3c-1.4-2.4-5.3-0.8-4.6,1.9c2,7,4.4,13.8,7.4,20.5c1.4-0.8,2.9-1.7,4.3-2.5c-2.5-4.9-4.4-10-5.6-15.4
				c-0.7-3.2-5.3-1.8-4.8,1.3c0.9,5.8,0.8,11.5-0.2,17.2c1-0.6,2.1-1.2,3.1-1.7c-0.6-0.7-1.1-1.4-1.7-2.1c-1.4,0.4-2.8,0.7-4.2,1.1
				c2.2,2.5,4.3,5.1,6.5,7.6c2,2.3,5-0.6,3.9-3c-2.9-6.6-5.7-13.2-7.5-20.2c-1.5,0.6-3,1.3-4.6,1.9c3.5,8,7.6,15.6,12.4,22.9
				c1.8,2.7,5.8,0.3,4.3-2.5c-5.8-10.9-14-20.2-22.2-29.3c-2-2.3-5,0.6-3.9,3c2.5,5.5,5.1,10.8,8,16.1c1.4-0.8,2.9-1.7,4.3-2.5
				c-3.6-5.7-6.4-11.7-8.5-18.1c-1-3-5.8-1.8-4.8,1.3c3.6,11.3,8.2,22.2,13.8,32.6c1.5,2.8,5.8,0.3,4.3-2.5
				c-8.4-16.2-3.1-34.3,2.6-50.4c0.7-2-1.4-3.4-3.1-3.1c-7.6,1.4-15.5,3.5-21.3,8.9c-6.1,5.6-9.5,14.4-12,22.1
				c-2.8,8.5-4,17.6-2.9,26.5c0.4,3.5,1,7.5,2.9,10.5c1.9,2.9,4,2.5,6.7,4c0.9,0.5,0.2-0.7,1,0.9c0.5,1,0.3,2.6,0.4,3.6
				c0.2,2,0,4.3,0.7,6.2c1.2,3.4,4.2,3.6,6.5,1.1c3.5-3.7,5.5-9.2,7.8-13.7c1.1-2.2,2.2-4.8,3.7-6.7c2.4-2.9,6.6-3.2,10.1-3.7
				c-0.6-1.5-1.3-3-1.9-4.6c-5.8,2.7-10.7,6.4-14.9,11.1c1.3,1,2.6,2,3.9,3c2.6-4.4,4.9-8.9,6.9-13.5c1.3-2.9-2.6-5.4-4.3-2.5
				c-2.9,4.8-2.7,10.5,0.5,15.1c0.5-1.2,1-2.4,1.5-3.7c-3.2,0.9-6.4,1.4-9.7,1.4c0.7,1.3,1.4,2.5,2.2,3.8c3.7-7.5,8-14.6,12.9-21.3
				c-1.6-0.4-3.1-0.8-4.7-1.3c-0.3,2.8-0.2,5.5,0.4,8.3c0.2,1.1,1.4,1.8,2.4,1.8c5.1,0.3,10.2-0.5,13.6-4.6c3-3.7,3.5-8.9,2.2-13.4
				c-1.7-5.7-6-9.5-9.7-13.9c-6-7.1-3.9-14.4-0.7-22.3C401.6,617.1,396.8,615.8,395.6,618.8L395.6,618.8z"/>
		</g>
	</g>
	<g>
		<path class="st10" d="M427.5,563.1c-5.4,6.9-10.9,14.6-6.2,21.7c3.9,5.9,13.9,9.9,21.3,14.8c5.3,3.5,9.4,7.5,10.1,11.9
			s-2.5,9.1-9.4,11.7c-6.4,2.4-14.8,2.6-22.6,2.3c-1.4-3-1.6-6.1-0.7-9.1c-11.3,8-21.3,16.5-29.6,25.4c8.1,0.1,16.1-0.5,23.8-1.8
			c-6.6-4.1-7.1-10.5-1.3-15c-4.5,5.6-9.8,10.9-15.8,16.1c9-5.5,20.3-9.9,33-12.8c-8.1,0.6-16.6,1.2-23.3,3.7
			c-7.2,2.7-23.6,24.7-31.3,26.9c-6.4,1.8-1.8-15.7-9-15.9c-3.3-0.1-6.8-0.2-9.7-1.1c-4.9-1.4-7-4.4-8.4-7.2
			c-8-16.8,0.1-34.9,15-50.4c3.5-3.6,7.4-7.2,12.7-10.2c12.4-6.9,30.9-9.6,48.8-11.2c-6.9,10.1-13.3,20.4-15.5,31.1
			c-2.2,10.7,0.2,21.9,10.2,31.3c-12.6-12.2-23-25-30.9-38.1c4.7,7.9,11.5,15.4,20.1,22.3c-6.6-6.3-12.8-12.7-18.4-19.2
			c18.5,10.7,37.1,21.5,49.8,34.3c-11-8.6-20.5-17.8-28.3-27.3c4.2,8.6,11,16.7,17.8,24.8c-4.9-3-9.9-6-14.8-9.1
			c-1.8,2.7,2.4,6,7.9,6.2c2.7-7.3,2.8-14.8,0.4-22.1c2.8,6.6,7.3,13.1,13.4,19.1c-6.6-7.7-12-15.6-16.3-23.6
			c6.5,5.8,13.4,11.4,20.5,17c-0.6-0.8-1.8-1.5-3.3-1.8c2.4,2.8,2.6,6.1,0.6,9c2.5-2.2,5-4.5,5.8-7c0.8-2.5-0.5-5.4-4.5-6.9
			c2.5,5.2,4.9,10.4,7.4,15.6c-3.9,0.3-7.5,1.4-9.7,3.1c-16.9-9.8-20.5-23.9-22.1-37.1c1.5,5.8,2.4,11.7,2.7,17.5
			c-4-7.5-8.5-15-13.4-22.4c-2.7,1.4-4.9,3-6.6,4.7c-4.3,4.4-4.2,10.6,3.6,13.3c-2-2.2-3.9-4.4-5.9-6.6c3.6,1.8,7.1,3.5,10.7,5.3
			c-0.5-3.6-0.3-7.3,0.7-10.9c1.5,2.2,0.4,4.8-2.6,6.5c-1.4-4.6,0.7-9.6,5.8-13.4c1.3-1,2.8-1.9,3.3-3.1c0.6-1.1-0.2-2.6-2.3-3
			c-3.7-0.8-7.6,2-11.4,1.3c-3.3-0.6-2.7-3.3-0.2-4.6c-2.2,7.8-11.9,14.9-25.3,18.5c-3.9-3-0.1-7.8,6.7-8.4c-1.7,0.8-3.3,1.6-5,2.4
			c3.8-3.2,11.9-4.9,18.8-3.9c7,1,12.3,4.6,12.4,8.3c-7.8-2.1-14.6-5.2-19.9-8.9c1.9,3,4.7,5.8,8.2,8.4c-4.1-3.1-7.6-6.4-10.7-9.8
			c-0.5-0.5-0.9-1.1-0.6-1.7c1-1.5,5.1-0.7,8.1-0.6c3.6,0.1,6.8-1.2,9.1-2.7c2.2-1.5,4-3.2,6.9-4.4c2.9-1.2,7.5-1.5,9.9-0.1
			c-14.9,5.5-29.9,10.9-45.1,16.2c0.7-2.8,2.3-5.5,4.7-8c-2.3,10.2-6.7,20.3-13.2,30.1c-3.7-5-5.4-10.4-4.8-15.8
			c1.8,9.7,0.4,19.5-4,28.9c-0.3-4.9-0.3-9.7,0-14.6c1,14.3,2.2,50.4,4.9,64.7c2.1-2.8,2.3-27.6,1.8-30.6c-1.5-8.8-3-17.6-4.5-26.5
			c6,9.3,12.1,18.6,18.1,27.8c-3.2-5-6.4-10.1-9.6-15.1c3.7,5.3,3.8,22.7,5.2,28.3c-3.8-2.3-4.1-17-5.5-19.9
			c4.6,1.2,14.3,20.5,19.4,19.9c1.3-9.8-4.4-38.7-8.3-48.3c-6.3,10.6-3.9,22.1-1.4,33.2c-2.4-9-4.8-18.1-7.3-27.1
			c0.9,4.2,0.2,8.5-1.8,12.6c0.2-11.3,4.3-22.6,8.3-33.7c5.7,9.7,12,19.3,18.9,28.8c-6.9-10-12.6-20.2-17.3-30.5
			c1.3,1.3,1.4,2.9,0.2,4.3c-3.4-1.4-6.7-2.9-9.7-4.5c-3.1,4.1-4.9,8.4-5.2,12.8c1.1-1.6,2.2-3.2,3.2-4.8
			c6.5,5.4,15.1,10.1,25.1,13.7c-3.6-6-7.2-12-10.9-18.1c9,6,17.5,12.2,25.5,18.5c0.9,0.8,1.9,1.6,2,2.5c0.1,0.9-0.7,1.7-1.4,2.5
			c-4.1,4.4-8.4,8.9-14.6,12.6c-5.6,3.3-13.1,6.1-15.2,10.4c8.1-1.1,16.3-1.7,24.6-2c-4,0.7-9.2,1.3-11.9-0.4c-2-1.2-1.7-3-1.2-4.5
			c1.7-5.8,3.7-11.6,6.2-17.3c-2.4,7.6-3.4,15.4-2.9,23.1c7.2-7.7,13-15.8,17.1-24.1c-2.5,3.2-4.6,6.5-6.3,9.8
			c-2-6.1-3.9-12.3-5.9-18.4c2.4,4.7,4.8,9.5,7.1,14.2"/>
	</g>
	<g>
		<g>
			<path class="st9" d="M421.7,695.9c6-5.2,12.4-10.6,20.1-13.2c5.6-1.9,10-2.1,13.7-7.2c8.4-11.6,7.9-26.2,7.5-39.8
				c-0.1-4.8,0.1-6.8,3.3-10.3c3.1-3.4,6.6-6.5,10-9.4c5.5-4.7,11.7-8.9,16.9-14c1.1-1.1,0.9-3.1-0.5-3.9c-4.6-2.6-11.7-1.3-16.7-1
				c-3.6,0.2-7.3,0.4-11,0.3c-1.3,0-6.9,0.2-7.5-1.4c-0.4-1-1.2-1.8-2.4-1.8c-6,0-9.5,4.7-12.6,9.3c-4,6.1-8.9,10.7-14.1,15.8
				c-9.6,9.5-15.2,22.3-17,35.6c-0.9,6.8-1,13.6-0.1,20.4c0.7,5.2,1.4,14.2,5.8,17.9c4.6,3.8,9.3-0.5,12.5-3.8
				c4.5-4.5,10.5-6.7,15.2-11c5.4-4.9,7.9-12.2,10.2-18.8c3-8.6,5.2-17.3,6.8-26.2c0.6-3.1-4.1-4.5-4.8-1.3
				c-3.9,16.3-8.2,32.6-13,48.7c1.6,0.2,3.3,0.4,4.9,0.7c1.3-10.1,3.6-19.9,6.9-29.5c-1.6-0.4-3.2-0.9-4.8-1.3
				c-0.8,5.3-1.5,10.6-2.3,16c-0.3,1.8,1.1,3.6,3.1,3.1c1.6-0.4,2.1-0.8,3.4-2c-1.4-0.6-2.8-1.2-4.3-1.8c-0.1,1.6-0.4,3.2-1,4.6
				c-0.9,2.7,3.2,4.4,4.6,1.9c0.5-0.8,0.9-1.7,1.4-2.5c1.5-2.8-2.8-5.3-4.3-2.5c-6.7,12.1-20.4,15.8-30,24.9c-2.1,2,0.6,5.3,3,3.9
				c10-5.6,20.9-7.6,27.6-17.8c6.3-9.8,8-22.1,9.8-33.4c-1.6-0.2-3.3-0.4-4.9-0.7c-0.6,6.3-2.8,12.1-5.2,17.9c1.5-0.2,3-0.4,4.6-0.6
				c-2-3.4-2.4-9.7-7.2-10.6c-2.6-0.5-5.2,1.4-7.2,2.8c-1.1,0.8-2.1,1.6-3.1,2.5c-1.1,1-2.9,4-4.4,4.3c0.8,0.2,1.6,0.4,2.4,0.6
				c-1.3-1.5-1.7-5.4-2.3-7.3c-0.5-1.9-3.6-2.6-4.6-0.6c-3.5,7.4-6.4,15.1-8.5,23c1.6,0,3.2,0,4.8,0c-1-4.1-2.1-8.2-3.1-12.3
				c-0.6-2.5-4-2.2-4.8,0c-2.2,6.3-2.9,12.8-3.6,19.4c1.6-0.2,3.3-0.4,4.9-0.7c-0.9-4.5-1.3-9-1.2-13.6c-1.7,0-3.3,0-5,0
				c1.1,8.7,3,17.1,5.8,25.4c0.8,2.5,3.9,2.2,4.8,0c4-9.5,8.5-18.7,13.6-27.7c-1.5-0.6-3-1.3-4.6-1.9c-1.3,4-2.9,7.8-5,11.4
				c1.4,0.8,2.9,1.7,4.3,2.5c1.5-2.9,2.1-5.6,2.1-8.9c0-1.8-2.2-3.2-3.8-2.2c-4.7,3.2-8.3,7.2-11.3,12c-1.1,1.7,0.7,4.5,2.8,3.7
				c4.4-1.6,7.9-4.1,11.1-7.5c1.9-2-0.6-5.5-3-3.9c-4.8,3.2-7.9,7.6-10,12.8c-0.8,2.1,1.9,3.9,3.7,2.8c10.5-6.6,19.1-15.4,26.1-25.6
				c1.7-2.5-1.9-4.7-3.9-3c-4,3.2-6.9,7.2-9.3,11.7c1.5,0.6,3,1.3,4.6,1.9c2.6-8.1,4.8-16.1,5-24.6c0.1-2.5-3.4-3.4-4.7-1.3
				c-2.5,4.3-4.9,8.5-7.4,12.8c1.6,0.4,3.1,0.8,4.7,1.3c0.4-4.8,0.9-9.6,1.3-14.4c0.2-1.8-1.7-2.6-3.2-2.4c-4.2,0.7-5.9,4.9-7.6,8.4
				c-2.8,5.8-5.5,11.6-8.2,17.3c1.5,0.6,3,1.3,4.6,1.9c1.5-7.2,3.5-14.2,6.2-21c-1.6-0.4-3.2-0.9-4.8-1.3
				c-1.4,8.2-2.8,16.3-4.2,24.5c-0.4,2.6,3.1,4.6,4.6,1.9c4.3-8,7.8-16.3,10.7-24.9c-1.6-0.4-3.2-0.9-4.8-1.3
				c-2.1,7.5-4.5,15-7.1,22.4c1.6,0.4,3.2,0.9,4.8,1.3c0.6-3.9,4.5-14.9-1.8-16.5c-1.4-0.3-5.4,1.8-5.9,1.6
				c-0.8-0.4-0.4-6.6-0.4-7.5c0.1-2.3,0.3-4.5,0.6-6.8c0.4-2.9-4.2-3.3-4.9-0.7c-1.2,4.1-2.3,8.3-3.5,12.4c1.6,0.4,3.2,0.9,4.8,1.3
				c0.5-2.8,1-5.5,1.5-8.3c-1.6-0.4-3.2-0.9-4.8-1.3c-1,7.2-1.9,14.4-2.9,21.5c-0.4,3.1,4.4,4.5,4.8,1.3c0.6-4.4,1.2-8.8,1.8-13.3
				c0.4-3.1-3.7-4.5-4.8-1.3c-1,2.8-1.9,5.6-2.9,8.4c-1.1,3.1,3.7,4.3,4.8,1.3c7.3-19.2,15.7-37.9,25.2-56c-1.5-0.2-3-0.4-4.6-0.6
				c0.5,2.3-2.2,5.6-3.3,7.5c-1.3,2.3-2.5,4.7-3.8,7c-2.5,4.7-5.1,9.3-7.6,14c1.6,0.4,3.1,0.8,4.7,1.3c0.1-1.7,0.2-3.4,0.3-5.1
				c0.1-2.6-3.4-3.2-4.7-1.3c-1.7,2.5-3.2,5-4.6,7.7c-1.5,2.9,2.6,5.3,4.3,2.5c3-4.8,6-9.5,9-14.3c-1.4-0.8-2.9-1.7-4.3-2.5
				c-2.6,4.2-5.1,8.3-7.7,12.5c-1.7,2.8,2.5,5.1,4.3,2.5c3.1-4.3,6.6-8,10.7-11.3c-1.4-0.8-2.8-1.6-4.2-2.4
				c-1.4,8-3.8,15.8-7.4,23.1c1.4,0.8,2.9,1.7,4.3,2.5c3.3-6.8,6.3-13.8,9-20.9c1-2.7-3.2-4.4-4.6-1.9c-3.4,6.3-6.6,12.6-9.7,19.1
				c1.5,0.6,3,1.3,4.6,1.9c1.3-4,3.1-7.7,5.4-11.2c-1.6-0.4-3.1-0.8-4.7-1.3c-0.3,4.4-0.7,8.7-1,13.1c-0.2,2.5,3.5,3.3,4.7,1.3
				c4.9-8.6,8.9-17.6,12.2-26.9c1-2.7-3.2-4.3-4.6-1.9c-4.8,8.4-9.7,16.7-14.5,25.1c1.6,0.4,3.1,0.8,4.7,1.3c0-2.3,0.3-4.1,1.6-6.1
				c-1.5-0.6-3-1.3-4.6-1.9c-1.6,5.3-3.3,10.5-4.9,15.8c-0.7,2.3,2.6,4.4,4.2,2.4c3.2-4,5.3-8.4,6.8-13.3c0.7-2.3-2.5-4.3-4.2-2.4
				c-2.6,2.9-4.7,6.1-6.5,9.5c-1.5,2.8,2.7,5.3,4.3,2.5c2.8-5,5.6-10,8.5-14.9c1.3-2.2,2.6-4.4,3.8-6.6c1.4-2.4,3.5-7.6,5.9-9.1
				c-0.8,0-1.7,0-2.5,0c0.3,0.1,0.6,0.3,1,0.4c-0.4-0.7-0.8-1.4-1.2-2.2c-0.7,8.4-1.9,16.8-3.6,25.1c-0.7,3.2,3.6,4.3,4.8,1.3
				c2.5-6.1,5-12.2,7.4-18.3c-1.6-0.4-3.2-0.9-4.8-1.3c-1,5.3-2.1,10.6-3.1,16c-0.5,2.6,3.4,4.7,4.6,1.9
				c5.2-12.2,15.3-21.8,20.5-33.9c-1.6-0.4-3.1-0.8-4.7-1.3c-0.9,6.6-5.2,13.3-8.1,19.2c-2.7,5.5-6.2,11.4-7.5,17.5
				c-0.6,3.1,3.8,4.4,4.8,1.3c2-5.9,4-11.9,6-17.8c-1.6-0.2-3.3-0.4-4.9-0.7c0,2.4-0.4,4.4-1.9,6.4c1.4,0.6,2.8,1.2,4.3,1.8
				c1.3-10,3.5-20.1,6.4-29.7c-1.6-0.4-3.2-0.9-4.8-1.3c-1.9,7.1,10.5,2,13.1,1.3c4.3-1.2,8.5-2.5,12.8-3.8c1.7-0.6,5.4-1.1,6.3-3
				c0.7-1.4,0.1-3.3-1.5-3.7c-1.4-0.3-3.1,0.2-4.5,0.5c-3.1,0.6-6.2,1.2-9.3,1.9c-3.4,0.7-6.7,1.4-10.1,2.1
				c-1.1,0.2-2.2,0.5-3.4,0.7c-0.4,0.1-1.9,0.2-1.4,0.2c0.7,0.4,1.4,0.8,2.2,1.2c0.6,1,0.9,0,1.9-0.9c0.9-0.8,1.8-1.5,2.6-2.2
				c1.2-1.1,2.7-2.5,2.4-4.4c-0.5-4.1-5.5-2.4-8.1-1.9c-3.4,0.7-8.6,0.9-11.5,3.1c-3,2.2-4.7,7.3-6.4,10.5
				c-2.5,4.6-4.8,9.2-7.1,13.9c1.5,0.6,3,1.3,4.6,1.9c2.4-6.4,5.3-12.4,9-18.2c-1.5-0.6-3-1.3-4.6-1.9c-3.4,11.6-6.3,23.3-9.7,34.9
				c-0.8,2.7,3.2,4.5,4.6,1.9c3.5-6.7,5.9-13.9,9.4-20.6c-1.5-0.6-3-1.3-4.6-1.9c-0.8,4-1.7,8-3,11.9c-0.8,2.7,3.4,4.5,4.6,1.9
				c3.4-7.3,10.4-12.1,13.8-19.3c-1.6-0.4-3.1-0.8-4.7-1.3c-0.5,6.4-6.7,11.6-8.9,17.6c1.6,0.2,3.3,0.4,4.9,0.7
				c-0.4-8.1,0.1-16.2,1.5-24.2c-1.6,0-3.2,0-4.8,0c1.4,3.6,5.5,4.1,8.9,4.4c1.8,0.2,13.4-0.4,14,1.2c1.2,3,5.4,1.9,4.8-1.3
				c-0.7-4-7.1-2.1-9.5-1.5c-2.7,0.6-5.4,1.3-8.1,1.9c-1.4,0.3-2.7,0.7-4.1,0.9c-0.3,0-1,0-1.3,0.2c-1.7,0.9-0.2-2.1,0.3,1.3
				c-0.5-3.2-5.3-1.8-4.8,1.3c0.5,3.3,4.7,2.4,6.8,1.7c1.9-0.6,3.8-1.4,5.7-2c0.9-0.3,2.2-0.5,3-1c2.8-1.6-0.1,2.3-0.3-2.2
				c1.6-0.2,3.3-0.4,4.9-0.7c-0.4-2.3-1.7-3.9-3.3-5.5c-1.7-1.6-5.3-3.4-5.3-6.1c0-2.7-4.5-3.6-4.9-0.7c-0.6,3.8-3.2,7.1-3.7,10.9
				c1.6,0.2,3.3,0.4,4.9,0.7c0-1.3,0-2.5,0.1-3.8c0.1-3.2-4.9-3.2-5,0c0,1.3,0,2.5-0.1,3.8c-0.1,2.7,4.5,3.5,4.9,0.7
				c0.6-3.8,3.2-7.1,3.7-10.9c-1.6-0.2-3.3-0.4-4.9-0.7c0.1,6.3,7.8,7.4,8.8,12.9c0.5,2.8,5,2.1,4.9-0.7c-0.2-3.6-3.9-3.2-6.4-2.5
				c-2,0.6-4,1.4-6,2.1c-1,0.3-2.2,0.5-3.1,1c-2.6,1.4-0.4-1.5,0,1.5c-1.6,0.4-3.2,0.9-4.8,1.3c0.7,4,7.1,2.1,9.5,1.5
				c2.7-0.6,5.4-1.3,8.1-1.9c1.4-0.3,2.7-0.7,4.1-0.9c0.3,0,1,0,1.3-0.2c1.7-0.9,0.2,2.1-0.3-1.3c1.6-0.4,3.2-0.9,4.8-1.3
				c-1.4-3.6-5.5-4.1-8.9-4.4c-1.8-0.2-13.4,0.4-14-1.2c-0.8-2-4.3-2.7-4.8,0c-1.5,8.5-2.1,16.9-1.7,25.5c0.1,2.9,4,3.3,4.9,0.7
				c2.4-6.7,8.4-11.5,9-18.9c0.2-2.4-3.6-3.5-4.7-1.3c-3.4,7.3-10.4,12.1-13.8,19.3c1.5,0.6,3,1.3,4.6,1.9c1.2-3.9,2.2-7.8,3-11.9
				c0.5-2.6-3.2-4.6-4.6-1.9c-3.5,6.7-5.9,13.9-9.4,20.6c1.5,0.6,3,1.3,4.6,1.9c3.4-11.6,6.3-23.3,9.7-34.9c0.8-2.8-3.1-4.3-4.6-1.9
				c-3.9,6.1-7,12.6-9.5,19.4c-1,2.6,3.3,4.5,4.6,1.9c3.3-6.9,6.8-13.6,10.6-20.2c1.3-2.3,0.9-2.5,3.2-3.1c1.8-0.4,3.6-0.8,5.4-1.2
				c1.5-0.3,4.1-0.3,5.4-1.1c0.3-0.1,0.6-0.1,0.8-0.1c1.1-0.1,0.6-0.9-1.5-2.5c-0.1,0-1.6,1.5-1.7,1.6c-2,1.7-5.4,3.8-5.2,6.8
				c0.2,5.5,9.4,1.9,12.2,1.3c3.8-0.8,7.6-1.5,11.4-2.3c1.6-0.3,3.1-0.6,4.7-0.9c0.7-0.1,3.1-0.2,1.9-0.5c-0.5-1.2-1-2.4-1.5-3.7
				c0.7-1.3,1-0.6-0.3-0.4c-1,0.2-2.1,0.7-3.1,1c-3,1-6,1.9-9.1,2.8c-2.9,0.8-5.8,1.7-8.7,2.4c-1,0.3-2.2,0.4-3.2,0.8
				c-2,0.8-1.2-0.7,0.4,1c0.2,0.8,0.4,1.6,0.6,2.4c0.1-0.2,0.1-0.5,0.2-0.7c0.8-3.1-3.9-4.4-4.8-1.3c-3.1,10.1-5.3,20.7-6.6,31.1
				c-0.3,2.1,3,3.4,4.3,1.8c2.4-3,3.4-6.1,3.4-9.9c0-2.9-4-3.3-4.9-0.7c-2,5.9-4,11.9-6,17.8c1.6,0.4,3.2,0.9,4.8,1.3
				c2.7-13.4,13.9-24.3,15.8-38c0.3-2.4-3.7-3.5-4.7-1.3c-5.2,12.2-15.3,21.8-20.5,33.9c1.5,0.6,3,1.3,4.6,1.9
				c1-5.3,2.1-10.6,3.1-16c0.6-3.2-3.6-4.3-4.8-1.3c-2.5,6.1-5,12.2-7.4,18.3c1.6,0.4,3.2,0.9,4.8,1.3c1.8-8.7,3-17.5,3.8-26.4
				c0.1-0.8-0.5-1.8-1.2-2.2c-5.7-2.5-8.4,5.8-10.7,9.6c-4.4,7.4-8.6,14.8-12.8,22.3c1.4,0.8,2.9,1.7,4.3,2.5
				c1.6-3.1,3.4-5.9,5.7-8.5c-1.4-0.8-2.8-1.6-4.2-2.4c-1.2,4.1-2.8,7.8-5.5,11.1c1.4,0.8,2.8,1.6,4.2,2.4
				c1.6-5.3,3.3-10.5,4.9-15.8c0.9-2.8-3.1-4.3-4.6-1.9c-1.7,2.8-2.3,5.4-2.2,8.7c0,2.5,3.4,3.4,4.7,1.3c4.8-8.4,9.7-16.7,14.5-25.1
				c-1.5-0.6-3-1.3-4.6-1.9c-3.1,8.9-7,17.5-11.7,25.7c1.6,0.4,3.1,0.8,4.7,1.3c0.3-4.4,0.7-8.7,1-13.1c0.2-2.6-3.4-3.2-4.7-1.3
				c-2.5,3.9-4.4,8-5.9,12.4c-0.9,2.7,3.4,4.5,4.6,1.9c3-6.5,6.2-12.8,9.7-19.1c-1.5-0.6-3-1.3-4.6-1.9c-2.5,6.7-5.4,13.3-8.5,19.7
				c-1.4,2.9,2.9,5.4,4.3,2.5c3.8-7.7,6.4-15.8,7.9-24.3c0.5-2.6-2.2-4-4.2-2.4c-4.5,3.5-8.2,7.7-11.5,12.3c1.4,0.8,2.9,1.7,4.3,2.5
				c2.6-4.2,5.1-8.3,7.7-12.5c1.7-2.7-2.6-5.2-4.3-2.5c-3,4.8-6,9.5-9,14.3c1.4,0.8,2.9,1.7,4.3,2.5c1.4-2.7,2.9-5.2,4.6-7.7
				c-1.6-0.4-3.1-0.8-4.7-1.3c-0.1,1.7-0.2,3.4-0.3,5.1c-0.1,2.5,3.5,3.4,4.7,1.3c3.3-6.1,6.7-12.3,10-18.4
				c2.3-4.2,6.3-8.9,5.2-13.9c-0.5-2.1-3.6-2.5-4.6-0.6c-9.7,18.5-18.2,37.7-25.7,57.2c1.6,0.4,3.2,0.9,4.8,1.3
				c1-2.8,1.9-5.6,2.9-8.4c-1.6-0.4-3.2-0.9-4.8-1.3c-0.6,4.4-1.2,8.8-1.8,13.3c1.6,0.4,3.2,0.9,4.8,1.3c1-7.2,1.9-14.4,2.9-21.5
				c0.4-3.1-4.3-4.5-4.8-1.3c-0.5,2.8-1,5.5-1.5,8.3c-0.6,3.1,3.9,4.5,4.8,1.3c1.2-4.1,2.3-8.3,3.5-12.4c-1.6-0.2-3.3-0.4-4.9-0.7
				c-0.6,4.5-2.5,14.8,1.5,18.3c1.9,1.6,3,0.9,5.2,0.7c0.6-0.2,1.2-0.5,1.7-0.9c0.1,0.8,0.2,1.6,0.3,2.5c0,2.4-0.8,5-1.1,7.4
				c-0.5,3.1,3.7,4.4,4.8,1.3c2.7-7.4,5-14.8,7.1-22.4c0.9-3.1-3.8-4.4-4.8-1.3c-2.8,8.2-6.1,16.1-10.2,23.7c1.5,0.6,3,1.3,4.6,1.9
				c1.4-8.2,2.8-16.3,4.2-24.5c0.5-3.2-3.6-4.3-4.8-1.3c-2.7,6.8-4.7,13.8-6.2,21c-0.5,2.6,3.3,4.6,4.6,1.9c1.9-4,3.8-8.1,5.7-12.1
				c1.4-2.9,3.5-10.7,7-11.3c-1.1-0.8-2.1-1.6-3.2-2.4c-0.4,4.8-0.9,9.6-1.3,14.4c-0.2,2.5,3.5,3.3,4.7,1.3
				c2.5-4.3,4.9-8.5,7.4-12.8c-1.6-0.4-3.1-0.8-4.7-1.3c-0.2,8-2.4,15.6-4.9,23.2c-0.8,2.7,3.3,4.5,4.6,1.9
				c2.2-4.2,4.8-7.7,8.5-10.7c-1.3-1-2.6-2-3.9-3c-6.5,9.5-14.5,17.7-24.3,23.8c1.2,0.9,2.4,1.9,3.7,2.8c1.6-4,4-7.5,7.7-9.9
				c-1-1.3-2-2.6-3-3.9c-2.6,2.7-5.3,4.9-8.9,6.2c0.9,1.2,1.9,2.4,2.8,3.7c2.5-4,5.5-7.5,9.5-10.2c-1.3-0.7-2.5-1.4-3.8-2.2
				c0,2.3-0.3,4.3-1.4,6.4c-1.4,2.9,2.7,5.3,4.3,2.5c2.3-4,4.1-8.2,5.6-12.6c0.9-2.7-3.2-4.4-4.6-1.9c-5.3,9.3-9.9,19-14.1,28.9
				c1.6,0,3.2,0,4.8,0c-2.6-7.8-4.5-15.9-5.6-24.1c-0.4-3.1-5-3.3-5,0c-0.1,5,0.4,10,1.4,14.9c0.6,3,4.7,1.9,4.9-0.7
				c0.6-6.2,1.3-12.2,3.4-18.1c-1.6,0-3.2,0-4.8,0c1,4.1,2.1,8.2,3.1,12.3c0.6,2.4,4.2,2.4,4.8,0c2.1-7.5,4.7-14.8,8-21.8
				c-1.5-0.2-3-0.4-4.6-0.6c1,3.6,2.2,13.2,8.1,9.4c1.7-1.1,2.9-3.4,4.5-4.8c1.1-1,3.4-3.6,4.8-3.5c2.8,0.2,3.4,5.4,4.8,7.8
				c1.2,2,3.8,1.3,4.6-0.6c2.6-6.3,4.8-12.4,5.4-19.2c0.2-2.8-4.5-3.5-4.9-0.7c-1.6,10.4-3.1,21.7-8.5,31c-6,10.2-17,11.9-26.5,17.3
				c1,1.3,2,2.6,3,3.9c10-9.5,23.8-13.2,30.8-25.9c-1.4-0.8-2.9-1.7-4.3-2.5c-0.5,0.8-0.9,1.7-1.4,2.5c1.5,0.6,3,1.3,4.6,1.9
				c0.7-2,1-3.9,1.2-6c0.2-2.3-2.8-3.2-4.3-1.8c-0.4,0.2-0.8,0.4-1.2,0.7c1,1,2.1,2.1,3.1,3.1c0.8-5.3,1.5-10.6,2.3-16
				c0.4-3.1-3.8-4.4-4.8-1.3c-3.4,10-5.7,20.3-7.1,30.9c-0.4,2.9,4.1,3.3,4.9,0.7c4.8-16.1,9.1-32.3,13-48.7
				c-1.6-0.4-3.2-0.9-4.8-1.3c-1.4,7.4-3.1,14.8-5.4,22c-2.2,6.9-4.5,15.1-9.8,20.4c-4.3,4.2-10.2,6.2-14.6,10.3
				c-1.1,1-2.3,3-3.6,3.7c-4.6,2.2-4.6-0.9-5.5-3.8c-1.2-4.1-1.9-8.3-2.3-12.6c-1.3-14.5,1.7-29.8,10-41.9
				c3.8-5.5,8.9-9.6,13.5-14.3c2.1-2.1,3.9-4.4,5.6-6.8c2.4-3.5,5-9.7,10.1-9.7c-0.8-0.6-1.6-1.2-2.4-1.8c2.4,5.7,10.7,5.2,15.9,5.1
				c4.2-0.1,8.4-0.4,12.6-0.6c2.6-0.1,6.7-0.8,9,0.6c-0.2-1.3-0.3-2.6-0.5-3.9c-5.2,5.1-11.4,9.3-16.9,14
				c-4.9,4.2-12.8,9.7-14.6,16.3c-1.5,5.4,0.2,12.3,0.2,17.9c0,8.1-1.5,16.6-5.5,23.7c-2.4,4.2-4.8,5.7-9.3,6.8
				c-2.8,0.7-5.5,1.7-8.1,3c-6.4,3.1-11.9,7.8-17.2,12.4C415.7,694.4,419.3,698,421.7,695.9L421.7,695.9z"/>
		</g>
	</g>
	<path class="st10" d="M130.9,4.2c0,0,14.9,0,13.6-15.2c-1.3-15.2,18.1-20.5,18.1-20.5s22.6-5.9,32.3,12.3
		c9.7,18.1-3.2,36.9-12.3,41.6s22.6,8.2,22.6,18.1s-18.1,18.1-48.5,18.7c0,0-26.5,5.9-19.4,17.6s23.3,46.2,15.5,57.9
		s6.4,9.5,6.4,9.5l22.8,28c0,0-0.6,27.5-51.2-2.2c0,0-22.7,5.2-26-25.2s-24.6-17.8,0-49c0,0-27-25.2,16.4-40.1c0,0,8.2,5.2,18,0
		s-5.7-14.1,3.3-17.8c9-3.7,28.9,11.1,34.4-2.2c0,0-27.9-6.7-21.3-20c6.6-13.4,32-1.5,15.6-33.4c0,0-16.4-5.9-18,10.4
		c-1.6,16.3,8.2,8.9-13.1,23L130.9,4.2z"/>
	<path class="st11" d="M143.1,4.2c0,0,10.1-1.9,8.8-17.1c-1.3-15.2,22.9-18.6,22.9-18.6s13.8-5.2,23.5,12.9s5.6,36.2-3.5,40.9
		s22.6,8.2,22.6,18.1S199.4,58.6,169,59.2c0,0-32.4,11.8-25.3,23.5s17,40.2,9.2,52s6.4,9.5,6.4,9.5l22.8,28c0,0,11.6,27.5-38.9-2.2
		c0,0-15.5-15.1-18.8-45.5s-11.1,10.6,13.5-20.6c0,0-48.7-20.6-5.3-35.4c0,0,9.2-7.5,19-12.7c9.8-5.2-5.7-14.1,3.3-17.8
		c9-3.7,28.9,11.1,34.4-2.2c0,0-17.2-6.5-10.7-19.8c6.6-13.4,21.3-1.7,4.9-33.6c0,0-16.4-5.9-18,10.4c-1.6,16.3-4,8.9-25.3,23
		L143.1,4.2z"/>
	<path class="st10" d="M213.8,130.8c0,0,32.5,1.7,45.4-29.2s0.6-30.9,12.9-30.9s12.3,0,12.3,0s34.2,17.2,48.7-5.9
		s32.4-17.1,32.4-17.1s31.9,13.3,35.1,29.7c0,0,36.8,10.9,43.3,32.7s16.1,24.8,0,52.7c0,0-31.7,13.4-27.8,29.8
		c3.9,16.4,30.3,28.6,17.1,60.4c0,0,1-28.2-11.9-37.9s-27.8-24.2-11-49.7c16.8-25.5,23.3-41.3,12.9-55.2
		c-10.3-13.9-17.6,3.1-36.9-16c0,0-3.8-10.8-12.9-6c0,0-0.4-6.6-7.9-19.3c0,0-17.2-8.4-18.5,4.9c0,0-6,24.9-22.1,20.3
		c0,0-22.5,10.7-38.7-3c-16.1-13.7-17.8,24.7-17.8,24.7S244.3,129.8,213.8,130.8C213.8,130.8,232.8,127.2,213.8,130.8"/>
	<path class="st9" d="M268.6,115.8c0,0-7.5-24.9,5.5-28.6s17.6-2.2,22.6,3.1c5,5.3,52.8,1.1,53.3-21.5c0.5-22.6,24.1,2.8,24.1,2.8
		s9.1,18,13.3,11.6s6.8,11.1,6.8,11.1s33.2,3.3,39.2,15.7c6,12.5-5.5,58.2-22.1,62.4s8,51.3,19.1,43.9s8.3,39,8.3,39
		s-20.9-39.4-31.5-36.7c-10.6,2.8-41.7-4.1-24.1-50.8s25.1-54.5-4-66.1c0,0-37.7,26.3-51.3,12c0,0-37.2-28.2-45.8-21.3
		S268.6,115.8,268.6,115.8z"/>
	<path class="st12" d="M289,48.9c0,0-7.5-24.9,5.5-28.6c13.1-3.7,17.6-2.2,22.6,3.1c5,5.3,52.8,1.1,53.3-21.5s24.1,2.8,24.1,2.8
		s9.1,18,13.3,11.6c4.3-6.5,6.8,11.1,6.8,11.1c-8.8,21.1,14.3,41.4,39.2,15.7c33.6-34.6,9.5,54.9-22.1,62.4
		c-16.7,3.9,8,51.3,19.1,43.9c11.1-7.4,8.3,39,8.3,39s-20.9-39.4-31.5-36.7s-41.7-4.1-24.1-50.8c17.6-46.7,15.1-20.8-14.1-32.3
		c0,0-27.7-7.5-41.3-21.8c0,0-37.2-28.2-45.8-21.3C294,32.3,289,48.9,289,48.9z"/>
	<path class="st11" d="M251.2,118c0,0-7.5-24.9,5.5-28.6c13.1-3.7,17.6-2.2,22.6,3.1c5,5.3,52.8,1.1,53.3-21.5
		c0.5-22.6,24.1,2.8,24.1,2.8s9.1,18,13.3,11.6s6.8,11.1,6.8,11.1s33.2,3.3,39.2,15.7c6,12.5-5.5,58.2-22.1,62.4s8,51.3,19.1,43.9
		s8.3,39,8.3,39s-20.9-39.4-31.5-36.7c-10.6,2.8-41.7-4.1-24.1-50.8s25.1-54.5-4-66.1c0,0-37.7,26.3-51.3,12
		c0,0-37.2-28.2-45.8-21.3C256.2,101.3,251.2,118,251.2,118z"/>
	<path class="st10" d="M257.5,260.5c0,0-24.6-6.2-30.8,15.4c-6.2,21.6,19.1,29.4,14.8,50.2c-4.3,20.7-23.2,20.2-36.2,27.6
		c-13.1,7.4-49.1,18.4-61.5,35c-12.4,16.6-26,30.8-40.7-8c0,0,13-34.8-3-34c-16,0.8-18.6,26-16.2,32.8c2.4,6.7-24.8,57.1-83.7-40.7
		s-6,82.5-6,82.5s24.6-16,43.1-4.9s43.1,54.8,28.9,72c-14.2,17.2-8.6,25.2-33.9,34.5C7,532-22.6,541.3-22.6,541.3s48,10.5,53.6-8.6
		c5.5-19.1,44.3-11.3,47.4-28.4c3.1-17.1,17.2-18.8-5.5-63.9c0,0-19.6-49.2,17-27.7c0,0,7.2,13.5,32.4,6.8
		c25.2-6.8,15.6-18.5,30.1-30.8c14.7-12.5,74-34.5,88.3-22.5c8.5,7.1,42.2-42.7,34.2-52c-8-9.2-25.9-13.5-25.2-30.8
		C250.1,266.1,257.5,260.5,257.5,260.5z"/>
	<path class="st9" d="M344.6,255.8c0,0-5.3,45.5-48.7,28.6c0,0-25.9-37.4-63.3-28.6c-37.4,8.7-6,70.2-6,70.2s8.6,21.6-24.2,24
		s-64.5,59.8-87.8,34c0,0-3.3-14.7,4.6-34S101,338.7,101,338.7s14.7-26.7,2-36c-12.8-9.3-28.5,11.8-28,42.7s6.9,30.4-10.3,27.5
		s-13.1-27.4-13.1-27.4S66.3,307.9,1,330.1c0,0,41.3,8,46.7,53.9s42.1-6.3,42.1-6.3s-6.2-17.7,3.5-24.6s19.7-6.1,9.7,23
		c-10,29.2,19.9,34.7,28.4,31.9s80.8-75.7,86.2-54.2c5.4,21.6,43.7-22.6,30.6-30c0,0-8.7,0.9-4.9-11.3c3.8-12.3-27.1-33-9.3-42.9
		c17.8-10,28.6-21.6,69.3,29.8c0,0,9.3,19.2,49.6-14.6S344.6,255.8,344.6,255.8z"/>
	<path class="st12" d="M343,235c0,0-5.3,45.5-48.7,28.6c0,0-25.9-37.4-63.3-28.6c-37.4,8.7-6,70.2-6,70.2s8.6,21.6-24.2,24
		c-32.8,2.4-64.5,59.8-87.8,34c0,0-3.3-14.7,4.6-34s-18.2-11.3-18.2-11.3s14.7-26.7,2-36s-28.5,11.8-28,42.7
		c0.5,30.9,6.9,30.4-10.3,27.5C45.9,349.1,50,324.7,50,324.7S64.8,287-0.6,309.3c0,0,41.3,8,46.7,53.9s42.1-6.3,42.1-6.3
		s-6.2-17.7,3.5-24.6s19.7-6.1,9.7,23c-10,29.2,19.9,34.7,28.4,31.9c8.5-2.7,80.8-75.7,86.2-54.2s43.7-22.6,30.6-30
		c0,0-8.7,0.9-4.9-11.3s-27.1-33-9.3-42.9c17.8-10,28.6-21.6,69.3,29.8c0,0,9.3,19.2,49.6-14.6S343,235,343,235z"/>
	<path class="st9" d="M280.4,280.8c0,0-15.4-25.5-24-15.8c-8.6,9.8-21.4,4.5-19.2,19.2s31.2,15,31.2,26.3c0,11.3-18,52.2-33.8,49.2
		s1.9,22.2,22.9,7.5c21-14.7,34.8,1.2,34.8,1.2s15.4,1.7,16.5,13c1.1,11.4,11.2,15.6,3.7,23.1s-21,3.8-20.6,13s-12.2,7-6.7,16.3
		c5.5,9.3,42.9-21.4,41.2-35.2c-1.7-13.9-7.2-38.1-29.4-39c-22.3-1-23.2-31.7-23.2-31.7s6.2-4.5,3.8-14.6s-12.5-8.6-10.9-18.6
		c1.7-10,12.3,1.5,13-6.2S280.4,280.8,280.4,280.8z"/>
	<path class="st11" d="M299.7,286.8c0,0-15.4-25.5-24-15.8c-8.6,9.8-21.4,4.5-19.2,19.2c2.3,14.7,31.2,15,31.2,26.3
		s-18,52.2-33.8,49.2s1.9,22.2,22.9,7.5c21-14.7,34.8,1.2,34.8,1.2s15.4,1.7,16.5,13c1.1,11.4,11.2,15.6,3.7,23.1s-21,3.8-20.6,13
		s-12.2,7-6.7,16.3c5.5,9.3,42.9-21.4,41.2-35.2c-1.7-13.9-7.2-38.1-29.4-39c-22.3-1-23.2-31.7-23.2-31.7s6.2-4.5,3.8-14.6
		c-2.4-10.1-12.5-8.6-10.9-18.6c1.7-10,12.3,1.5,13-6.2S299.7,286.8,299.7,286.8z"/>
	<path class="st9" d="M105.4,414.7c0,0-30.9-17.9-39.2-3s15.2,48,15.2,48s19.4,45.3-19.4,52.2c0,0-28.6-7.2-49.1,36.6
		c-20.6,43.8-16.4,53.7-16.4,53.7s24,10.3,36.2-19.2c12.2-29.5,1.5-39.8,9.1-49.3c7.6-9.5,17.5-18.3,33.5-0.4
		c16,17.9,24.4-11.4,17.1-61.7c-7.2-50.3,12.2-35.4,13-49.1C106.1,408.6,105.4,414.7,105.4,414.7z"/>
	<path class="st11" d="M120.2,414.7c0,0-30.9-17.9-39.2-3s15.2,48,15.2,48s19.4,45.3-19.4,52.2c0,0-28.6-7.2-49.1,36.6
		C7,592.2,11.2,602.1,11.2,602.1s24,10.3,36.2-19.2c12.2-29.5,1.5-39.8,9.1-49.3c7.6-9.5,17.5-18.3,33.5-0.4
		c16,17.9,24.4-11.4,17.1-61.7c-7.2-50.3,12.2-35.4,13-49.1C121,408.6,120.2,414.7,120.2,414.7z"/>
	<path class="st10" d="M274.4,359.7c0,0,38.9,12.7,38.3,24.4c-0.6,11.7-11.2,19.2,0,17.5s-17.7,16-22.4,18.3
		c-4.7,2.4,1.2,13-3.5,18.3c-4.7,5.3-30,27.1-21.2,48.3c0,0,21.9,7.6,23.9,23.5c2,16,27.3,11.5,28.8,6.4c1.5-5.1,7.5,9.2,7.5,9.2
		s-23.6,22.2-47.8-3.7c-24.2-25.9,11.6-16.4-30.1-38.8c-41.7-22.4,52.5-58.4,41.9-96.1S262,363.5,262,363.5L274.4,359.7z"/>
	<path class="st12" d="M259.5,361.4c0,0,38.9,12.7,38.3,24.4c-0.6,11.7-11.2,19.2,0,17.5s-17.7,16-22.4,18.3
		c-4.7,2.4,1.2,13-3.5,18.3c-4.7,5.3-30,27.1-21.2,48.3c0,0,21.9,7.6,23.9,23.5c2,16,27.3,11.5,28.8,6.4c1.5-5.1,7.5,9.2,7.5,9.2
		s-23.6,22.2-47.8-3.7c-24.2-25.9,11.6-16.4-30.1-38.8c-41.7-22.4,52.5-58.4,41.9-96.1s-27.7-23.3-27.7-23.3L259.5,361.4z"/>
	<path class="st10" d="M344.6,487.1l13.9,17.1c0,0,22.2-2.2,32.8-24.3c0,0,42.7,9,50.1-32.9c4.3-24.3,5.2-36.3,7.4-42.9
		c1.5-4.8,3.7-6.8,8.2-8.7c10.6-4.6-25.7-6.9-40.4,47.3c0,0,5.1,26.7-31.2,19.1c0,0-22.1-1.1-12.9,21.1
		C372.4,482.9,360.4,506.5,344.6,487.1z"/>
	<path class="st11" d="M357,498.7l13.9,17.1c0,0,22.2-2.2,32.8-24.3c0,0,42.7,9,50.1-32.9c4.3-24.3,5.2-36.3,7.4-42.9
		c1.5-4.8,3.7-6.8,8.2-8.7c10.6-4.6-25.7-6.9-40.4,47.3c0,0,5.1,26.7-31.2,19.1c0,0-22.1-1.1-12.9,21.1
		C384.7,494.6,372.7,518.2,357,498.7z"/>
	<path class="st9" d="M447.2,404.8c0,0,39.9,20.8,66.8-8.7c26.9-29.5,46,25.1,39.1,26.7c-6.9,1.7-67.4,27.3-56.3,36.1
		c0,0,20.5-21.1,52.7-19.2c32.2,1.9,23-45.7-0.6-52.4c-23.6-6.6-39.4-25.8-59.9-3s-24.9,11.8-24.9,11.8S439.2,387.3,447.2,404.8z"/>
	<path class="st11" d="M447.2,390.5c0,0,39.9,20.8,66.8-8.7c26.9-29.5,46,25.1,39.1,26.7c-6.9,1.7-67.4,27.3-56.3,36.1
		c0,0,20.6-16,52.7-19.2c57.3-5.8,48.9-53.7-0.6-52.4c-24.5,0.6-39.4-25.8-59.9-3s-24.9,11.8-24.9,11.8S439.2,373,447.2,390.5z"/>
	<path class="st13" d="M436.7,440"/>
	<path class="st10" d="M496.8,458.9c0,0-14.6,4.7-6.7,27.1c7.8,22.4,0.2,30.5,10.3,27.3c10.1-3.2,10.2-9.1,10.2-9.1l10.4,14.6
		c0,0-11.5-23.7-5.8-34.3s12.4-18.7,22.4-16.5c10,2.2,29.8-6.5,28.1-33.8S496.8,458.9,496.8,458.9z"/>
	<path class="st11" d="M466.4,461.5c0,0-14.6,4.7-6.7,27.1c7.8,22.4,0.2,30.5,10.3,27.3c10.1-3.2,10.2-9.1,10.2-9.1l10.4,14.6
		c0,0-11.5-23.7-5.8-34.3c5.6-10.5,12.4-18.7,22.4-16.5c10,2.2,29.8-6.5,28.1-33.8C533.4,409.4,466.4,461.5,466.4,461.5z"/>
	<g>
		<g>
			<path class="st10" d="M451.3,581.5c-7.2,0.6-13.5,3.6-19.9,6.9c-6.4,3.3-12.7,6.8-18.4,11.2c-10.5,8.1-18.8,20.4-17.6,34.2
				c0.6,6.7,3.7,11.5,7.4,17c2.6,3.8,4.4,7.6,2.2,12c-1.5,3.1-4.5,5.6-6.9,8c-3.9,3.9-8.1,7.5-12.2,11.2c-3.5,3.2-7.4,6.7-8.8,11.4
				c-0.4,1.5,0.8,3.3,2.4,3.2c7.4-0.6,17.8-5.6,22.5-11.3c2.5-3,4.2-6.5,7.3-9c2.8-2.2,6.2-3.3,9.3-5.1c4.4-2.6,8.3-6.7,7.9-12.1
				c-0.5-6.6-6-11.5-6.2-18.4c-0.2-7.4,3.3-14.3,9.4-18.4c6.1-4.2,12.9-6.9,18.8-11.4c3.9-3,10-6.8,9.3-12.4c0,0.2-0.7-3.1-1-3.1
				c0.6-0.1-1,1.9-0.3,1.8c0.3-0.1,0.6-0.5,1-0.6c1.2-0.2,2.7-1.3,3.9-1.8c2.9-1.3,6-2.4,8.8-3.8c1.7-0.8,4.2-1.9,4.5-4
				c0.3-2.5-2-3.4-4-3.7c-7-0.9-14.3,1.4-21.1-0.1c-12.9-2.9-25.3,8.9-33.6,17.1c-10.6,10.3-22.2,25.5-16.7,41.3
				c1.1,3.1,2.8,5.7,5.4,7.7c1.5,1.2,3.6,2.1,4.5,3.9c1.3,2.3,0.6,5.2-0.4,7.5c-2,4.4-5.6,8-8.6,11.8c-3.1,3.8-6.2,7.7-9.2,11.5
				c-2,2.5,1,5.5,3.5,3.5c5.7-4.5,11.5-9,17.2-13.6c3.6-2.9,6.6-6.1,6.6-11c0-1.2-1.2-2.7-2.5-2.5c-3.3,0.4-5.9,1.3-8.5,3.3
				c1,1.3,2,2.6,3,3.9c4-4.8,7.6-9.9,10.6-15.4c-1.6-0.4-3.1-0.8-4.7-1.3c0.4,3,0.4,5.6-0.3,8.6c1.5-0.2,3-0.4,4.6-0.6
				c-0.8-1.3-1.3-2.8-1.6-4.3c-0.6-2.5-4.1-2.2-4.8,0c-1,2.9-1.4,5.7-1.5,8.7c0,2.1,2.1,2.9,3.8,2.2c1.7-0.7,2.9-1.6,4.2-2.9
				c-1.4-0.4-2.8-0.7-4.2-1.1c-0.1,0.4-0.1,0.8-0.2,1.2c-1.2,2.5,1.8,5.1,3.9,3c5.3-5.1,0.7-10.9-2.1-16c-4.4-8-7.3-16.6-8.8-25.6
				c-0.5-2.9-4.8-2.1-4.9,0.7c-0.1,5.5-0.3,10.9-0.4,16.4c1.6-0.2,3.3-0.4,4.9-0.7c-1.4-4.6-2.9-9.2-4.3-13.8
				c-1-3.1-5.4-1.8-4.8,1.3c1.5,8.3,4.5,16,9,23.2c1.6,2.6,5,0.8,4.6-1.9c-0.6-4.3-1.5-8.5-2.8-12.6c-1.5,0.6-3,1.3-4.6,1.9
				c1.5,2.9,3,5.8,4.5,8.6c1.3,2.4,4.4,1,4.7-1.3c0.8-8.2,2.1-16.4,3.8-24.5c-1.6-0.2-3.3-0.4-4.9-0.7c0.2,6.6,0.4,13.2,0.6,19.8
				c0.1,3.2,5,3.2,5,0c0-5.4-0.1-10.8-0.1-16.2c0-2.8-4.2-3.4-4.9-0.7c-2.6,9.7-4.1,19.6-4.5,29.6c1.6-0.2,3.3-0.4,4.9-0.7
				c-1-7.1-1.5-14.3-1.5-21.5c-1.7,0-3.3,0-5,0c0.9,7.2,1.7,14.4,2.6,21.6c0.4,3.2,4.6,3.2,5,0c0.8-6.5,1.6-13.1,0.4-19.5
				c-0.5-2.7-1.6-5.3-2.2-8c-1.1-4.7,0.6-8.3,2.9-12.4c1.4-2.4-2-5.2-3.9-3c-3.5,3.9-6.8,8.1-9.7,12.5c1.5,0.6,3,1.3,4.6,1.9
				c1-3.6,2.3-7,3.8-10.4c1.3-2.9-2.4-5.2-4.3-2.5c-2.3,3.2-3.9,6.6-5.1,10.3c-0.7,2.1,1.8,3.9,3.7,2.8c6-3.7,10.7-8.6,14.1-14.8
				c1.2-2.3-1.2-4.5-3.4-3.4c-8.7,4.4-14.1,12.5-15.4,22.1c-0.2,1.8,1.8,2.6,3.2,2.4c6.2-1,10.4-6.1,14.2-10.8
				c4.3-5.2,7.9-10.9,10.9-16.9c1.3-2.5-1.8-5-3.9-3c-3.9,3.5-6.5,7.5-8.5,12.2c-1,2.4,2.6,4.1,4.2,2.4c4.8-4.8,8-10.6,9.4-17.3
				c0.4-1.7-1.2-3.8-3.1-3.1c-5.6,2.3-10,5.7-13.5,10.6c-1.6,2.2,1.4,4.4,3.4,3.4c7.4-3.6,14.5-7.7,21.4-12.2
				c2.7-1.8,0.4-5.7-2.5-4.3c-2,0.9-4,1.9-6,2.8c0.8,1.4,1.7,2.9,2.5,4.3c4.7-2.7,9.5-4.9,14.6-6.7c2.5-0.9,2.3-5.2-0.7-4.9
				c-3.8,0.3-7.3,1-10.8,2.3c0.9,1.2,1.9,2.4,2.8,3.7c1.9-2.4,4,3.7,4.2,4.3c0.7,2,3.4,2.5,4.6,0.6c1.9-3.2,5.6-5,7.5-8.2
				c-1.5-0.2-3-0.4-4.6-0.6c0.3,0.8-2.3,4-2.7,4.8c-0.6,1.2-1.1,2.3-1.1,3.6c0.1,2.9,4,3.3,4.9,0.7c-0.4,1-0.3,0.5,0.5-0.1
				c0.7-0.5,1.4-0.9,2.1-1.4c1.5-1,3-1.9,4.5-2.9c1.9-1.2,4.5-2.5,5.3-4.7c-1.6-0.2-3.3-0.4-4.9-0.7c0.1,3.7-5.4,7.8-7.9,10.1
				c-3.1,2.8-6.3,5.3-9.5,8c1.2,0,2.4,0,3.5,0c-0.5-1-1-1.9-1.5-2.9c-0.4-1.4-2.3-2.5-3.7-1.5c-5.8,4.4-10.9,9.4-15.4,15.1
				c1.3,1,2.6,2,3.9,3c2.6-4.1,5.3-8.1,7.9-12.2c1.6-2.4-2-5-3.9-3c-4,4-7.9,8.1-11.9,12.1c1.3,1,2.6,2,3.9,3
				c2.7-5.7,5.4-11.3,8.1-17c1.1-2.4-2-5.4-3.9-3c-4.5,5.7-8.7,11.5-12.5,17.6c1.4,0.8,2.9,1.7,4.3,2.5c1.8-3.3,3.7-6.4,5.9-9.5
				c-1.5-0.6-3-1.3-4.6-1.9c-1.3,3.7-2.7,7.5-4,11.2c-0.9,2.6,3.5,4.5,4.6,1.9c3.2-7.6,6.5-15.2,9.7-22.8c1.2-2.9-2.5-5.3-4.3-2.5
				c-3.5,5.2-6.5,10.6-9.1,16.3c-1.1,2.4,1.9,5.4,3.9,3c6.5-7.6,13-15.2,19.5-22.8c-1.4-0.4-2.8-0.7-4.2-1.1
				c0.5,1.8,0.3,3.6-0.6,5.3c1.6,0.4,3.1,0.8,4.7,1.3c0-1.2,0-2.5,0-3.7c0-1.5-1.6-3-3.2-2.4c-3.9,1.6-7.1,3.7-9.9,6.8
				c-2.2,2.5,1,5.5,3.5,3.5c2-1.6,4-3.1,6-4.7c-1.4-0.6-2.8-1.2-4.3-1.8c0.1,1.6-0.2,3.2-1,4.7c-0.8,1.8,0.5,4.5,2.8,3.7
				c2.2-0.8,4-1.8,5.8-3.3c-1.3-1-2.6-2-3.9-3c-1.2,2.5-2.6,4.6-4.5,6.6c1.3,1,2.6,2,3.9,3c1.8-2.9,3.8-5.2,6.4-7.3
				c-1.3-1-2.6-2-3.9-3c-1.7,3.6-3.3,7.2-5,10.9c-1.1,2.4,2,5.4,3.9,3c1.7-2.2,3.4-4.4,5.2-6.6c1.9-2.5-1.3-6-3.5-3.5
				c-1.5,1.7-3,3.3-4.5,5c1.3,1,2.6,2,3.9,3c3.3-5.3,7.6-9.7,11.3-14.7c-1.6-0.4-3.1-0.8-4.7-1.3c-0.1,2.2-0.8,4.3-0.9,6.5
				c-0.2,3.1,3.9,3,4.9,0.7c0.5-0.8,1.1-1.6,1.6-2.3c-1.4-0.4-2.8-0.7-4.2-1.1c0.1,0.8,0.2,1.7,0.3,2.5c0.4-0.7,0.8-1.4,1.2-2.2
				c-0.7,0.3-1.4,0.6-2.1,0.9c0.1,1,0.3,2,0.4,3c0.1-0.2,0.2-0.3,0.3-0.5c-0.9,0.4-1.9,0.8-2.8,1.1c0.1,0,0.3,0.1,0.4,0.1
				c0-1.6,0-3.2,0-4.8c-0.6,0.2-1.3,0.4-1.9,0.6c0.8,1.4,1.6,2.8,2.4,4.2c0.6-0.5,1.1-1,1.7-1.5c2.4-2.2-1.1-5.7-3.5-3.5
				c-0.6,0.5-1.1,1-1.7,1.5c-1.8,1.7,0.1,4.9,2.4,4.2c0.6-0.2,1.3-0.4,1.9-0.6c2.3-0.8,2.4-4.1,0-4.8c-0.1,0-0.3-0.1-0.4-0.1
				c-1-0.3-2.3,0.2-2.8,1.1c-0.1,0.2-0.2,0.3-0.3,0.5c-0.6,1-0.4,2.2,0.4,3c2.2,2.3,5.7,1.2,8.2-0.1c0.8-0.4,1.2-1.3,1.2-2.2
				c0-1.8,0-2.1-0.5-3.9c-0.5-1.8-2.9-2.5-4.2-1.1c-1.3,1.4-2.1,2.8-2.9,4.5c1.6,0.2,3.3,0.4,4.9,0.7c0.1-2.2,0.8-4.3,0.9-6.5
				c0.1-2.7-3.3-3.1-4.7-1.3c-3.7,5-8,9.4-11.3,14.7c-1.5,2.4,2,5.2,3.9,3c1.5-1.7,3-3.3,4.5-5c-1.2-1.2-2.4-2.4-3.5-3.5
				c-1.7,2.2-3.4,4.4-5.2,6.6c1.3,1,2.6,2,3.9,3c1.7-3.6,3.3-7.2,5-10.9c1.2-2.6-1.7-4.9-3.9-3c-2.9,2.4-5.3,5.1-7.2,8.3
				c-1.5,2.4,1.9,5.1,3.9,3c2.2-2.3,3.9-4.7,5.3-7.6c1.2-2.6-1.7-4.8-3.9-3c-1.1,0.9-2.3,1.6-3.6,2c0.9,1.2,1.9,2.4,2.8,3.7
				c1-2.4,1.6-4.6,1.6-7.2c0.1-2.4-2.7-3-4.3-1.8c-2,1.6-4,3.1-6,4.7c1.2,1.2,2.4,2.4,3.5,3.5c2.2-2.5,4.6-4.3,7.7-5.5
				c-1.1-0.8-2.1-1.6-3.2-2.4c0,1.2,0,2.5,0,3.7c0,2.3,3.6,3.6,4.7,1.3c1.4-3.1,1.7-5.8,1.1-9.2c-0.3-1.8-3-2.5-4.2-1.1
				c-6.5,7.6-13,15.2-19.5,22.8c1.3,1,2.6,2,3.9,3c2.6-5.7,5.6-11.1,9.1-16.3c-1.4-0.8-2.9-1.7-4.3-2.5c-3.2,7.6-6.5,15.2-9.7,22.8
				c1.5,0.6,3,1.3,4.6,1.9c1.3-3.7,2.7-7.5,4-11.2c1-2.9-3-4-4.6-1.9c-2.2,3-4.2,6.1-5.9,9.5c-1.5,2.8,2.6,5.3,4.3,2.5
				c3.6-5.8,7.5-11.3,11.7-16.6c-1.3-1-2.6-2-3.9-3c-2.7,5.7-5.4,11.3-8.1,17c-1.2,2.5,1.8,5.2,3.9,3c4-4,7.9-8.1,11.9-12.1
				c-1.3-1-2.6-2-3.9-3c-2.6,4.1-5.3,8.1-7.9,12.2c-1.5,2.3,2.1,5.3,3.9,3c4.2-5.3,9-10.1,14.4-14.3c-1.2-0.5-2.4-1-3.7-1.5
				c0.7,2,1.5,3.5,2.8,5.1c0.9,1.1,2.6,0.8,3.5,0c4-3.5,8.3-6.7,12.1-10.5c2.9-2.9,6.8-6.7,6.7-11.1c0-2.9-4-3.3-4.9-0.7
				c0.4-1,0.3-0.5-0.5,0.1c-0.7,0.5-1.4,0.9-2.1,1.4c-1.5,1-3,1.9-4.5,2.9c-1.9,1.2-4.5,2.5-5.3,4.7c1.6,0.2,3.3,0.4,4.9,0.7
				c-0.1-3.4,4.8-5.9,3.6-9.7c-0.6-2-3.4-2.5-4.6-0.6c-1.9,3.2-5.6,5-7.5,8.2c1.5,0.2,3,0.4,4.6,0.6c-1.9-5.7-8.1-12.2-13.3-5.5
				c-1.3,1.7,0.9,4.4,2.8,3.7c3.1-1.1,6.2-1.8,9.5-2.1c-0.2-1.6-0.4-3.3-0.7-4.9c-5.5,1.9-10.8,4.3-15.8,7.2
				c-2.8,1.6-0.3,5.7,2.5,4.3c2-0.9,4-1.9,6-2.8c-0.8-1.4-1.7-2.9-2.5-4.3c-6.9,4.5-14,8.6-21.4,12.2c1.1,1.1,2.3,2.3,3.4,3.4
				c2.7-3.8,6.2-6.5,10.6-8.3c-1-1-2.1-2.1-3.1-3.1c-1.2,5.9-3.9,10.8-8.1,15.1c1.4,0.8,2.8,1.6,4.2,2.4c1.7-4,4.1-7.2,7.3-10
				c-1.3-1-2.6-2-3.9-3c-2.5,5-5.4,9.7-8.8,14.2c-3.4,4.4-7.5,10.3-13.4,11.3c1.1,0.8,2.1,1.6,3.2,2.4c1-7.8,5.9-14.2,12.9-17.7
				c-1.1-1.1-2.3-2.3-3.4-3.4c-3,5.4-7,9.7-12.3,13c1.2,0.9,2.4,1.9,3.7,2.8c1.1-3.3,2.6-6.2,4.6-9.1c-1.4-0.8-2.9-1.7-4.3-2.5
				c-1.7,3.8-3.2,7.6-4.3,11.5c-0.8,2.8,3,4.2,4.6,1.9c2.7-4,5.6-7.8,8.9-11.4c-1.3-1-2.6-2-3.9-3c-3.5,5.9-4.9,11-3,17.8
				c2.5,8.5,2.4,15.9,1.3,24.7c1.7,0,3.3,0,5,0c-0.9-7.2-1.7-14.4-2.6-21.6c-0.4-3.1-5-3.3-5,0c0,7.7,0.5,15.2,1.6,22.8
				c0.4,2.9,4.8,2,4.9-0.7c0.3-9.6,1.8-19,4.3-28.3c-1.6-0.2-3.3-0.4-4.9-0.7c0,5.4,0.1,10.8,0.1,16.2c1.7,0,3.3,0,5,0
				c-0.2-6.6-0.4-13.2-0.6-19.8c-0.1-2.7-4.3-3.5-4.9-0.7c-1.8,8.5-3.1,17.1-3.9,25.8c1.6-0.4,3.1-0.8,4.7-1.3
				c-1.5-2.9-3-5.8-4.5-8.6c-1.3-2.5-5.4-0.8-4.6,1.9c1.2,4.2,2.1,8.3,2.8,12.6c1.5-0.6,3-1.3,4.6-1.9c-4.3-6.8-7-14.1-8.4-22
				c-1.6,0.4-3.2,0.9-4.8,1.3c1.4,4.6,2.9,9.2,4.3,13.8c0.8,2.7,4.8,2.2,4.9-0.7c0.1-5.5,0.3-10.9,0.4-16.4
				c-1.6,0.2-3.3,0.4-4.9,0.7c1.1,6.3,2.8,12.5,5.3,18.4c1,2.3,2,4.7,3.2,6.9c1.3,2.4,6.4,8.8,3.7,11.5c1.3,1,2.6,2,3.9,3
				c0.9-1.8,1-3.1,0.7-5c-0.3-1.9-2.9-2.4-4.2-1.1c-0.8,1-1.9,1.7-3.2,2.1c1.3,0.7,2.5,1.4,3.8,2.2c0-2.6,0.5-5,1.3-7.4
				c-1.6,0-3.2,0-4.8,0c0.5,2,1.2,3.7,2.1,5.5c1,1.9,4.1,1.5,4.6-0.6c0.7-3.4,0.9-6.5,0.5-10c-0.3-2.2-3.3-3.7-4.7-1.3
				c-2.8,5.1-6.1,9.9-9.8,14.4c-1.7,2,0.6,5.7,3,3.9c1.9-1.4,3.6-2.3,6-2.6c-0.8-0.8-1.7-1.7-2.5-2.5c0,5-6.4,8.4-9.8,11.1
				c-4.2,3.3-8.3,6.6-12.5,9.9c1.2,1.2,2.4,2.4,3.5,3.5c4.6-5.8,9.3-11.5,13.8-17.3c3.5-4.4,7-9.1,6.5-15c-0.5-5.4-4-7.1-7.7-10.3
				c-6.6-5.8-4.4-17.2-1-24.1c3.1-6.3,7.8-11.5,12.8-16.3c5.3-5.3,11-10.6,17.8-14c2.8-1.4,6.4-2.8,9.6-2.6c1.6,0.1,3.1,0.8,4.6,0.9
				c3.9,0.5,8-0.1,11.9-0.3c1.9-0.1,6.5,0.7,7.9-0.2c0.8-0.5,0.7-2.8-0.4-2.9c-0.2,0-0.6,0.4-0.9,0.5c-1.3,0.3-2.7,1.3-3.9,1.8
				c-3.5,1.5-10.9,3-12.9,6.6c-0.5,0.9-0.4,1.3-0.4,2.3c-0.1,2.4,1.6,1.1,0.6,4c-0.4,1.2-2.8,2.8-3.7,3.6c-6,5.2-12.7,8.5-19.5,12.5
				c-9.1,5.3-14.8,14.7-14,25.4c0.2,2.5,0.7,4.9,1.6,7.2c1.2,3.1,3.9,6.1,4.4,9.4c1.3,8.3-11.9,10.4-16.6,14.9
				c-4.1,3.9-6.1,9-11.1,12c-4.1,2.5-9.4,5.6-14.3,6c0.8,1.1,1.6,2.1,2.4,3.2c1.4-4.8,6.9-8.7,10.5-11.8c3.6-3.1,6.9-6.2,10.3-9.6
				c3.6-3.6,7.6-7.6,8.3-13c0.7-5.9-2.9-10.6-6.1-15.3c-8.9-12.9-3.3-28.4,7.4-38.4c5.2-4.8,11.2-8.4,17.4-11.8
				c6.8-3.7,13.8-7.9,21.7-8.5C454.5,586.2,454.5,581.2,451.3,581.5L451.3,581.5z"/>
		</g>
	</g>
	<g>
		<g>
			<path class="st10" d="M431,612.2c0.6,0.1,1.2,0.2,1.8,0.4c-0.6-1-1.2-2.1-1.7-3.1c-0.6,1.6-1.4,2.8-2.4,4.2
				c1.4,0.8,2.9,1.7,4.3,2.5c3.1-5.7,7-10.7,11.8-15.2c-1.3-1-2.6-2-3.9-3c-2.2,4.7-5,8.7-8.8,12.2c1.3,0.2,2.6,0.3,3.9,0.5
				c-2.2-3.9-3.2-9.3-7.6-11.5c-3.4-1.7-7.1-0.8-9.8,1.7c-5.6,5.2-9.4,16.5-3.6,22.6c1.3,1.3,3.8,0.7,4.2-1.1c1-4.6,2-9.1,3-13.7
				c-1.6-0.2-3.3-0.4-4.9-0.7c0.1,4.1,0.1,8.1,0.2,12.2c1.6-0.2,3.3-0.4,4.9-0.7c-0.4-1.1-0.9-2.2-1.3-3.3c-0.9-2.3-3.9-2.4-4.8,0
				c-0.9,2.3-1.5,4.6-1.9,7c1.6,0.4,3.2,0.9,4.8,1.3c1.8-10.7,5.9-20.8,12.6-29.4c3.2-4.1,7-8.3,11.6-11c4-2.3,7-2.3,11.4-1.5
				c4,0.7,12.5,3.9,16.3,1.1c1.8-1.4,1.5-3.4,0.6-5.3c-0.7-1.3-5.2-5.1-4.7-6.4c-0.8,0.6-1.6,1.2-2.4,1.8c5.4-0.4,10.4,0,15.7,0.3
				c0.8,0,1.1-0.8,0.1,0.1c-0.8,0.7-1.5,1.6-2.4,2.3c-3.7,3.1-9.1,5.4-11.7,9.6c-1.7,2.8,2.7,5.3,4.3,2.5
				c3.2-5.3,11.4-6.6,14.3-12.4c5.1-10-16.9-7.6-20.5-7.4c-1.2,0.1-2,0.7-2.4,1.8c-0.8,2.2,0.5,4.3,1.8,6c0.6,0.8,2.1,3.3,3,3.7
				c0.6,0.2,2,0.3,1.2-0.8c-0.1-0.1-1.6,0-1.9-0.1c-6.2-0.5-13-3.7-19.2-2.2c-8.8,2.1-15.6,9.9-20.7,16.9
				c-6.2,8.6-10.2,18.6-11.9,29c-0.5,3.1,4.3,4.5,4.8,1.3c0.4-2.5,1-4.7,1.9-7c-1.6,0-3.2,0-4.8,0c0.4,1.1,0.9,2.2,1.3,3.3
				c1,2.4,5,2.4,4.9-0.7c-0.1-4.1-0.1-8.1-0.2-12.2c0-2.7-4.3-3.5-4.9-0.7c-1,4.6-2,9.1-3,13.7c1.4-0.4,2.8-0.7,4.2-1.1
				c-3.4-3.6-0.3-11.5,2.7-14.6c5.8-6,8.3,4,10.5,7.9c0.8,1.4,2.8,1.6,3.9,0.5c4.1-3.8,7.3-8.1,9.6-13.2c1.2-2.5-1.8-5.1-3.9-3
				c-5.1,4.8-9.2,10.1-12.6,16.2c-1.6,2.9,2.4,5,4.3,2.5c1.3-1.7,2.2-3.4,2.9-5.4c0.5-1.4-0.6-2.6-1.7-3.1c-1.3-0.6-1.6-0.6-3.1-0.5
				C427.8,607.3,427.8,612.3,431,612.2L431,612.2z"/>
		</g>
	</g>
</g>
</svg>
