<svg id="VMD_105" data-name="VMD 105" xmlns="http://www.w3.org/2000/svg" viewBox="0 0 960 334"><defs><style>.cls-1{fill:none;stroke:#fbfbfb;}.cls-1,.cls-12{stroke-miterlimit:10;}.cls-2{fill:#353636;}.cls-3{opacity:0.8;}.cls-4{fill:#58595b;}.cls-5{fill:#e6e7e8;opacity:0.11;}.cls-6{opacity:0.64;}.cls-7{fill:#414042;}.cls-8{opacity:0.81;}.cls-9{fill:#6d6e71;}.cls-10{opacity:0.95;fill:#231f20;}.cls-10,.cls-12{font-size:60px;font-family:HindMadurai-Bold, Hind Madurai;font-weight:700;letter-spacing:0.01em;}.cls-11{letter-spacing:0.01em;}.cls-12{fill:#848484;stroke:#f1f2f2;}</style></defs><title>WEBBANNERS</title><path class="cls-1" d="M702.3,34.2" transform="translate(0 87.6)"/><rect class="cls-2" y="87.6" width="960" height="200"/><g class="cls-3"><path class="cls-4" d="M126.6,28.2c-.1,19.6,14.4,38.2,33.6,43.2s41.6-4.1,51.9-21.1c6.7-11.1,8.4-24.5,15-35.6,9.4-15.8,33.6-24.6,46.7-12,7.9,7.6,8.8,20,5.8,30.6s-9.4,19.8-14.7,29.5c-10.7,19.4-16.3,46.2-.1,61.1,12.1,11.1,32.3,10.3,46.5,1.3s23-24.2,28.5-39.8C349.3,58.2,350.2,29,355.9.9s18-57.4,42.9-72.8" transform="translate(0 87.6)"/><path class="cls-5" d="M107.2,45.2a54.1,54.1,0,0,0,.7,5.8,40.4,40.4,0,0,0,3.3,9.6c3.7,7.9,9.6,14.6,16.4,20.1a63.5,63.5,0,0,0,52.1,12.8c18.2-3.8,35.3-14,45.5-29.8,5.9-9.3,8.7-19.8,11.7-30.3,1.2-4.1,2.4-8.2,4-12.3a25,25,0,0,1,2.6-5.5,21.2,21.2,0,0,1,3.9-5.5L246,11.4l4.3-3.7-1.5,1.2A24.6,24.6,0,0,1,255,5.6l-3.5,1,6.8-1.8-3.6.7,7-1.1-9,.7L265,4.6h-9.1l8.6.5L253.9,3.4l13.6,2.4L257,3.2l13.3,3.9L260,3.5l12.7,5.4-9.8-4.8,11.8,7.1L262.4,2.7l14.8,14.2L267.4,5.3l10.3,15-7.9-13L275,18.6l-3.5-9.1,5.2,17.7-3.5-15,2.3,18.4-1.1-15.7L274.1,34l1.3-15.7-3,19,2.5-11.7-4.4,14.9,4.1-11.2-6.3,14.3L274,32.8,263.3,51.5l5.6-8.7-9.1,12.5,6.7-8.1L256.1,59l3-3.2c-6.2,6.4-13.1,12.9-18,20.4a51.9,51.9,0,0,0-6.3,14c-3.1,11.1-3.2,23.6,1.2,34.3,3.2,7.7,8.8,15.1,15.9,19.6a54.6,54.6,0,0,0,19,7.8,68.1,68.1,0,0,0,46.5-8A80.5,80.5,0,0,0,344.3,117c9.5-15.8,14.6-33.5,18-51.5,2-10.6,3.2-21.3,4.4-32,1.6-13.4,2.6-27.1,5.5-40.4a166.5,166.5,0,0,1,6-20.9,105.5,105.5,0,0,1,5.9-12.8,81.2,81.2,0,0,1,7.4-11.3l-1.2,1.5,5.5-6.4-1.3,1.4a61,61,0,0,1,9.8-8.5,58.2,58.2,0,0,1,11.3-6c.7-.3,2.3-1.2,2.1-2.2l-.8-.9a5.9,5.9,0,0,0-3.7-.3c-3.3.3-6.5.9-9.7,1.5s-5.5,1-7.8,2.6l-5.8,4.1a73.4,73.4,0,0,0-12.2,12.7A107.3,107.3,0,0,0,362-24.1a186.4,186.4,0,0,0-9,32.7c-2.7,14.5-4.3,29.1-6.8,43.6-1.2,6.5-2.5,12.9-4,19.2l-2.5,9.9-3.2,10.6a67.2,67.2,0,0,1-7.7,14.5,55.5,55.5,0,0,1-8,10.1,50.4,50.4,0,0,1-11.5,8.5,52,52,0,0,1-10.1,4.8,41.9,41.9,0,0,1-11.2,1.4c-4,0-7.7-.9-11.6-1.7l1.2.2a59.9,59.9,0,0,1-8.2-3.6l1,.6-4-3,1,.8-3.7-3,.9.9-3.1-3.9.7,1-2.9-4.2.6,1.2-2.1-4.7.5,1.2-1.7-4.8.4,1.3-.9-5.1.2,1.3-.6-5.3v1.3a72.9,72.9,0,0,1,2.4-17.3,97.4,97.4,0,0,1,6.1-15.8c2.7-5.9,6-11.5,8.7-17.4,1.6-3.6,3.1-7.3,4.4-11a77.7,77.7,0,0,0,2.1-9.3l-7.4,14.7q10-9.5,11.4-22.2a22.1,22.1,0,0,0-2.3-11.8,7,7,0,0,0-2.6-2.8,48.3,48.3,0,0,0-6.1-4.3l-4.7-3a12.6,12.6,0,0,0-5.4-2.2L245.4,1a6,6,0,0,0-2.7.6,37.1,37.1,0,0,0-7.6,4.7,46.5,46.5,0,0,0-8.4,9.3c-1.7,2.6-3.4,5.3-5,8s-2.4,5.4-3.4,8.1L215,39.8c-1.5,3.6-3.1,7.1-4.9,10.5A43.6,43.6,0,0,1,189,68.7a48.9,48.9,0,0,1-24.5,3.7,27.8,27.8,0,0,1-4.9-.8,29.4,29.4,0,0,1-7.3-2.2l-2.8-2.1a22.6,22.6,0,0,1-5.2-3.5,46.8,46.8,0,0,1-12.7-15.9c-3.1-6.4-3.9-13.5-3.7-20.5.1-4.7-7.1,2.6-7.2,2.7-3.2,3-6.4,6.2-9.4,9.5A14.3,14.3,0,0,0,107.2,45.2Z" transform="translate(0 87.6)"/><path class="cls-5" d="M108.9,37.5l.4,4.5,1.2,4.6a45.9,45.9,0,0,0,5.9,12.2,65.1,65.1,0,0,0,19.4,19,66.3,66.3,0,0,0,15.1,6.9,60.9,60.9,0,0,0,6.1,1.7,48.5,48.5,0,0,0,9.6,1.2,62.5,62.5,0,0,0,15.6-1.2,69.6,69.6,0,0,0,29.3-12.8,66.8,66.8,0,0,0,20.4-24.1c5.3-11,7.5-23.4,11-35.1l-.4,1.2a43.1,43.1,0,0,1,5-10.9,19.8,19.8,0,0,1,5.4-5.4L251.2.4l4.7-2.8-1.7.9a15.3,15.3,0,0,1,4.9-1.8,18.2,18.2,0,0,1,5.2-.8h-3.6l7,.3-3.5-.4,6.8,1-8-2.1,11.1,3.3-7.5-2.7L277-.4,266-6.2,276.7.3l-7.3-5.2L279,2.8l-6.4-5.9,8.1,8.9L275.3-.6l6.6,10L276.4-.3l4.3,10-2.2-6.3L281,13.7l-1.2-6.6.4,6.6V11l-.5,6.6.5-2.7-1.5,6.5.8-2.6L277.4,25l1.2-2.5a108.9,108.9,0,0,1-23,30.7,106.8,106.8,0,0,0-9.2,9.9,52.5,52.5,0,0,0-8.2,14.1,55.5,55.5,0,0,0-.9,37.9c3,8.6,9,15.6,16,21.2a65.8,65.8,0,0,0,12.3,6.5,74.5,74.5,0,0,0,14,3.1,69.3,69.3,0,0,0,24.8-2.5c18.8-5.3,33.8-18.9,43.5-35.6,12-20.6,16.8-44.7,19.8-68s3.7-46.9,10.9-69.2a99.2,99.2,0,0,1,11.7-25.4,67.4,67.4,0,0,1,8.2-10.3,60.5,60.5,0,0,1,9.9-8.3l-1.7,1.1,7.2-4.3-1.7.9,5.9-2.7c.8-.3,2.4-.8,2.3-1.9l-.6-1a6.9,6.9,0,0,0-3.7-.8,80.2,80.2,0,0,0-9.8.2c-2.5.1-5.9,0-8.1,1.5a68.6,68.6,0,0,0-12.3,9.3,77.7,77.7,0,0,0-10.1,11.3,110.6,110.6,0,0,0-14.3,26.4,199.9,199.9,0,0,0-8.4,28c-2.8,12.8-4.1,26-5.7,39V32.4c-1.7,12.9-3.6,25.9-6.5,38.7a90.8,90.8,0,0,1-4.6,16.2,84.1,84.1,0,0,1-3.7,8.7,66,66,0,0,1-11.8,17.7,105.3,105.3,0,0,1-9.4,8.3,47.6,47.6,0,0,1-9.1,5l1.1-.3-6.1,2.1,1.1-.3-6.4,1.4,1.2-.2-6.6.8h-4.2l-6.5-.9,1.1.2L271,128l1.1.3-5.9-2.6,1,.5a27.3,27.3,0,0,1-6.2-4.5,21.1,21.1,0,0,1-3.5-3.8,31.7,31.7,0,0,1-5.9-11c-2.4-7.7-2.2-16.4-.5-24.2a81.4,81.4,0,0,1,7.7-20.8c4-7.7,9.5-14.6,14.3-21.8l-7.2,8.7c3.1-2.9,6.1-6,9.1-9.1a51.9,51.9,0,0,0,8.2-11.6,34.6,34.6,0,0,0,3.3-9c.2-1.3.3-2.7.4-4a4.9,4.9,0,0,0-.6-3.5A51.5,51.5,0,0,0,284,6.2a72.1,72.1,0,0,0-4.3-8.3c-1.7-2.6-4.9-4.2-7.6-5.7a40.7,40.7,0,0,0-5.5-2.8,10.4,10.4,0,0,0-5.8-1.1,32.1,32.1,0,0,0-8.8.7A38.5,38.5,0,0,0,230.8,1.3l-2.9,3.3c-1.7,2.5-3.4,5.1-4.9,7.7a79.9,79.9,0,0,0-4.1,11.6c-2.7,9.6-4.7,19.6-10.8,27.8a46,46,0,0,1-11.2,10.8,38.2,38.2,0,0,1-7,4.2,56,56,0,0,1-10.4,3.7l1.1-.3-6.9,1.3h1.2l-7,.5H169l-7.3-.3h1.2a22.7,22.7,0,0,1-9.9-2.5,50.8,50.8,0,0,1-9.3-4.7,51.8,51.8,0,0,1-11.3-10.1,46.7,46.7,0,0,1-7.5-12.7,45.7,45.7,0,0,1-2.4-16.8,1.3,1.3,0,0,0-1.6-1.3,7.3,7.3,0,0,0-3.9,2.8c-2.1,2.2-4,4.5-5.9,6.9A8.5,8.5,0,0,0,108.9,37.5Z" transform="translate(0 87.6)"/><path class="cls-5" d="M112.6,43.2a27.8,27.8,0,0,0,.6,5.8,44,44,0,0,0,3.1,9.5,56,56,0,0,0,13.8,18.2,63.7,63.7,0,0,0,21.2,12.7A63,63,0,0,0,174.1,93c17.5-.3,34.9-8,47.3-20.3a64.3,64.3,0,0,0,15.1-24c3.4-9,5.4-18.4,8.2-27.5l-.4,1.2a44,44,0,0,1,5.3-10.9A17.4,17.4,0,0,1,255,6.1l-1.9,1.4a21.5,21.5,0,0,1,6.2-3.2l-4.5,1.2,7.8-2.1-4.6.9,8-1.2-18.2.7h24.7L254.6,1.2l23.6,5.3L261.3.3l19.2,8.2L264.7.6l13.7,8.2L267.7,1.3l12.4,10L267.8-.8l13.5,15.1L271,.6l11.1,17L274.3,2.9l7.9,18.2L277,5.3l4.8,19.3L279.4,8.7l1.5,19.5V16.3l-1.2,15.5,1.7-11.5-4.1,19,4.3-15.1-5.4,14.6,4.9-10.4-8.9,17.3,4.9-8.5-8.3,12.5,5.8-7.7-9.4,11.7,2.7-3c-6.3,6.5-13,12.9-18.6,20a52.7,52.7,0,0,0-7.4,12.8,57.7,57.7,0,0,0-3.5,27.9c1,7.6,3.8,15.6,8.8,21.6a48.5,48.5,0,0,0,15.4,12.7c14.5,7.4,32.3,7.3,47.5,2.1,17-5.8,30.6-18.5,39.7-33.8,11.1-18.8,16-40.7,19.1-62.1,1.4-10.1,2.4-20.2,3.6-30.3,1.4-12.4,2.8-25,6.1-37.1a128.3,128.3,0,0,1,7.1-20.3,79.3,79.3,0,0,1,6.7-12.1,68.2,68.2,0,0,1,8.2-10.4l-1.7,1.7,6.5-6.1-1.8,1.5,6.9-5.4-1.9,1.4a58.6,58.6,0,0,1,11.3-6.1l2.1-1.1.6-1.2-1-.9a9.4,9.4,0,0,0-4.7,0c-4.1.4-8.2,1.1-12.3,1.9L399-71.3a10.4,10.4,0,0,0-4.4,1.7,63.7,63.7,0,0,0-8.2,7.4,36.2,36.2,0,0,0-4.9,5.4,89.3,89.3,0,0,0-10.2,14.9c-6.1,10.8-10.1,22.5-13.4,34.4-1.3,4.6-2.6,9.2-3.7,13.8-1.8,7.8-2.9,15.9-4.3,23.8s-2.6,15.7-4.2,23.4c-2,9.8-4.6,19.4-7.3,28.9l.3-1.2-3.6,11,.4-1.3a80,80,0,0,1-5.8,10.3,61.9,61.9,0,0,1-7.7,10l.9-1-4.7,4.5.9-.8-4.8,3.6,1-.7c-5.4,3.3-10.6,6.9-16.9,8.4l-7.6,1.1-7.4-.3-7.1-1.7c-2.2-1-4.3-2.1-6.4-3.3a47.6,47.6,0,0,1-5.5-5.5,37.5,37.5,0,0,1-3.6-6.9l.4,1.2-1.3-5,.2,1.2-.8-5.3v1.2a64,64,0,0,1,.7-13.1A66.6,66.6,0,0,1,265.3,73c2.2-4.7,4.7-9.1,7.3-13.5l4.5-7.7c8.1-13.5,9.6-28.9,4.5-45.9a3.1,3.1,0,0,0-2.1-2.8,67.3,67.3,0,0,0-7.3-3.2q-4.6-1.9-9.3-3.6a14.8,14.8,0,0,0-6.8-1.4C250.6-4,245.4-2.4,240.8.7a49.8,49.8,0,0,0-9.7,8.6,96.9,96.9,0,0,0-7.5,10.3,40.2,40.2,0,0,0-5.3,9l-4.8,10.6.5-1.1c-1.6,3.3-3.4,6.6-5.2,9.8a48.6,48.6,0,0,1-5.6,7.1l.9-.8a85.7,85.7,0,0,1-7.5,6l1.1-.6a90.1,90.1,0,0,1-8.7,4.6A45.6,45.6,0,0,1,178.6,67a53.4,53.4,0,0,1-8.9.7,34.4,34.4,0,0,1-4.6-.3,26.5,26.5,0,0,1-6.9-1.5l1.2.5c-3.7-1.9-7.4-3.5-10.8-6a57,57,0,0,1-8.8-8.2l.7,1-3.1-4.4.7,1.1-2.6-4.5.5,1.1-2.1-4.8.5,1.2a29.2,29.2,0,0,1-1.8-7.2,32.1,32.1,0,0,1-.4-7.6c.1-4.3-6.4,1.6-6.8,1.9-3,2.6-6,5.4-8.9,8.2A13.6,13.6,0,0,0,112.6,43.2Z" transform="translate(0 87.6)"/><path class="cls-5" d="M114.2,52.9l.6,4.4a42.3,42.3,0,0,0,2.4,7.1,53.6,53.6,0,0,0,2.6,5.4A57.9,57.9,0,0,0,129.1,82a60.9,60.9,0,0,0,12.3,9.8A67.9,67.9,0,0,0,156,98.9a66.1,66.1,0,0,0,31.2,2.5,76,76,0,0,0,38.7-18.2,71.6,71.6,0,0,0,18.6-26.8,149.8,149.8,0,0,0,4.7-14.8l3-10.5a80.7,80.7,0,0,1,3.3-9.4L255,23a22.1,22.1,0,0,1,3.9-6.6,14.5,14.5,0,0,1,3.9-3.9l-2,1.5,4.9-3.1-5.3,2.8,9.3-3.5-7.3,1.6,10.4-1.9-7.6,1,10.7-.8-7.8.2,10.8.5-7.9-.7,10.7,1.8-7.9-1.6,6.5,2-6.4-2.6,14.2,8.4-8.7-6.6,7.2,6.9-4.4-5,5.7,8-3.4-5.7,4.4,9.5-2-5.9L290,32.4,288.5,23l-1.2,17.7,1.3-6.1-6.1,14.1,2.9-4.6a101.5,101.5,0,0,1-18.1,19.5l-7.1,5.7c-4.8,3.9-9.9,8-13.4,13.2a51.1,51.1,0,0,0-8.3,25.4,50.5,50.5,0,0,0,7,28.7c7.6,12.6,20.5,20.6,34.8,23.2,24.5,4.7,50.5-5.5,66.9-24.1C376,103,377.7,56.6,382.4,15.5v1.2c1.8-13.7,3.8-27.6,8.9-40.7A127.8,127.8,0,0,1,397-36.5c3.1-5.9,7.1-10.8,11.5-15.8l-1.7,1.6,6.4-5.9L411.3-55l6.9-5.3-2,1.5,7.4-4.5-5.4,2.8,9-4.1c1.1-.5,2.7-1,3.2-2.2s-.3-1.9-1.3-2.1-3.5.3-5,.7-5.3,1.5-7.5,2.9A64.4,64.4,0,0,0,406-58a76.6,76.6,0,0,0-8.8,9.2A91,91,0,0,0,384-25.5c-8.9,21.9-10.8,45.7-14.3,68.9a316.2,316.2,0,0,1-9,41.7,67.4,67.4,0,0,1-6.5,17.9,102.7,102.7,0,0,1-7.6,12.8,74.3,74.3,0,0,1-9.4,10.8,58,58,0,0,1-9.8,7.3,51.7,51.7,0,0,1-10.3,6.3,43.3,43.3,0,0,1-10.4,3.8l1.1-.3-6,1.7,1.1-.2c-3.8.5-7.6,1.3-11.4,1.5a62.6,62.6,0,0,1-10.6-.3,40.5,40.5,0,0,1-22.3-10.1,17.6,17.6,0,0,1-3.7-4,18.2,18.2,0,0,1-4.5-8.7,19.1,19.1,0,0,1-3.1-9.2,29.2,29.2,0,0,1-.4-5.1,49.3,49.3,0,0,1,.9-10.1,60.5,60.5,0,0,1,3.9-11.8l-.4.9a61.2,61.2,0,0,1,5.4-7.9c2-2.1,4-4.1,6.1-6.1,4.9-4.7,10.3-9,15.1-13.8a79.5,79.5,0,0,0,8-9.4c1.1-1.5,2.1-3.1,3.1-4.7l3.8-7.5a28.3,28.3,0,0,0,1.4-18.6c-1.6-5.2-5-10.4-10.4-12.2a22,22,0,0,0-5.2-1.3,35.7,35.7,0,0,0-7.3-1,36.1,36.1,0,0,0-9.8,1.8,15.5,15.5,0,0,0-5.4,2.8,19.4,19.4,0,0,0-5.5,4.4,31.6,31.6,0,0,0-4.4,6.4,38.1,38.1,0,0,0-2.9,5.2c-5.5,12.2-9.2,25.4-17.5,36.1a59.5,59.5,0,0,1-12.1,11.4c-6.1,4.5-13.1,7.2-20.1,9.9l1.1-.3c-3.9,1-7.7,2-11.7,2.7h1.2c-3.2.4-6.4.6-9.6.7a42.9,42.9,0,0,1-8.8-.5l1.1.2c-3.2-.7-6.5-1.3-9.6-2.3a53.7,53.7,0,0,1-11.5-5.1,62.1,62.1,0,0,1-8.3-5.9,61.9,61.9,0,0,1-8.4-9.3l.6.9L126.8,60l.5.9A17.7,17.7,0,0,1,125,55a16.5,16.5,0,0,1-1-5.8,2,2,0,0,0-1.1-1.8,2.9,2.9,0,0,0-2.8.5,30.1,30.1,0,0,0-4.2,2.7A2.9,2.9,0,0,0,114.2,52.9Z" transform="translate(0 87.6)"/><path class="cls-5" d="M115.8,46.2l.6,4.2,1.4,4.5a43.2,43.2,0,0,0,4.8,10.2,59.8,59.8,0,0,0,7.6,9.8,64.4,64.4,0,0,0,23.5,15.7,62.8,62.8,0,0,0,30.1,4.5c20.4-2.3,39.7-12.6,51.6-29.5a67.9,67.9,0,0,0,8.5-16.5,144.1,144.1,0,0,0,4.3-14.6c1.5-5.1,2.9-10.3,4.8-15.3a23.1,23.1,0,0,1,2.6-5.5,21.7,21.7,0,0,1,3.9-5.6l-1.3,1.5A22.1,22.1,0,0,1,264,5.4l-3.6,1.5,6.8-2.7-3.7,1.2,7-1.9-3.8.8,7.1-1-9.4.7L277,3.6l-14.7-.8,20.8,2.8-14-3.9,13.1,4.4-9.7-4.3L284.8,8l-8.9-5.4,11,7.7L279,3.8l9.6,9.4-6.4-7.3,7.6,10.6L283.5,5.4l6.9,15.1-3.1-8.3,3.1,12.3-1.6-11.4.7,15.6V20.8l-1.3,12,1.4-7.3-3.5,11.4,2.4-6.6-4.7,10.6,3.2-5.8L281,44.5l3.7-5.2a121.9,121.9,0,0,1-19.1,20.2q-5,4.1-9.6,8.4a57.4,57.4,0,0,0-9.1,11.7c-5.4,9.6-7.3,21.7-5.8,32.6a47,47,0,0,0,14.4,27.9c12.5,11.7,30.6,15.5,47.3,13.2s33.1-11.7,44.6-25,17.3-27.4,21.8-42.7c7.3-24.4,8.6-49.9,11.9-75a224.4,224.4,0,0,1,4.8-27,109.3,109.3,0,0,1,4.4-13.7,97,97,0,0,1,5.8-12.7l-.9,1.7,4.5-7.5-1.1,1.7c3.8-5.4,7.7-10.6,12.8-14.8l5.1-3.8a48.3,48.3,0,0,1,11.3-5.8c.7-.4,2.3-1.3,2-2.3l-.8-.9a6.5,6.5,0,0,0-3.9-.1A85.6,85.6,0,0,0,415-72.7c-2.7.6-5.8,1.1-8.1,2.8l-5.6,4.5a76.9,76.9,0,0,0-9.7,10.1,92.1,92.1,0,0,0-11.1,17.9,135.5,135.5,0,0,0-8.9,23.7,252,252,0,0,0-6.4,27c-1.7,9.7-3.1,19.4-4.8,29.1a332.4,332.4,0,0,1-8.9,38.3l-3.2,10.2a117.9,117.9,0,0,1-5.9,11.1,84.7,84.7,0,0,1-6.9,10,61.3,61.3,0,0,1-8.4,8.5l.9-.7c-5.6,4.4-11,9.1-17.6,12.1a59.8,59.8,0,0,1-16.1,4.8,40.3,40.3,0,0,1-17.6-.8,33,33,0,0,1-9.6-4.2,32.1,32.1,0,0,1-8-7.2l.6,1-3.4-5.2.5,1-2.7-5.5.5,1a39.9,39.9,0,0,1-2.5-9.6,47.7,47.7,0,0,1-.1-10,54.7,54.7,0,0,1,1.9-9.8,64.3,64.3,0,0,1,3.7-9.1l-.6,1.1a59.8,59.8,0,0,1,5.2-7.9l3.8-4.2c3.7-4.2,7.7-8,11.5-12.1a88.9,88.9,0,0,0,9.2-11.1,20.2,20.2,0,0,0,2.5-4.3c.3-11,.1-22.1-.5-33.1,0-3.3-4.7-4.5-7.1-5.6a78.7,78.7,0,0,0-7.4-3.2,9.7,9.7,0,0,0-5.5-1.3A40.9,40.9,0,0,0,256.8-.8a38.2,38.2,0,0,0-14.6,11.2,50.4,50.4,0,0,0-4.8,6.6c-1.7,2.9-3.6,5.6-5.1,8.6s-3,6.8-4.5,10.2-4.1,8.9-6.2,13.3l.6-1.1-3.6,5.5.7-.9-3.4,4.6.9-.9c-2.5,2.5-4.9,5.1-7.5,7.3s-3.8,2.8-5.7,4.1a21.4,21.4,0,0,1-4.1,2.5,66.4,66.4,0,0,1-9,4,54.7,54.7,0,0,1-12.7,3,50,50,0,0,1-11.6,0,75.4,75.4,0,0,1-8.2-2,49.3,49.3,0,0,1-11.1-5.3,66.3,66.3,0,0,1-9.7-7.8l.8.8-3.9-4.6.7.9-3.4-4.8.6.9a37.3,37.3,0,0,1-3.5-7.9,25.1,25.1,0,0,1-1-7.7,1.7,1.7,0,0,0-1.3-1.6,4,4,0,0,0-3.3,1.2,49.1,49.1,0,0,0-5.1,3.9A4.2,4.2,0,0,0,115.8,46.2Z" transform="translate(0 87.6)"/><path class="cls-5" d="M99.7,38a37.9,37.9,0,0,0,1.6,9.9,57.1,57.1,0,0,0,2.1,5.8,60.8,60.8,0,0,0,12.7,17.9,66.8,66.8,0,0,0,25.7,16,67.3,67.3,0,0,0,36.4,2c17.5-3.9,33.6-13.3,44.8-27.4a70.4,70.4,0,0,0,11.5-21.6c1.6-4.7,2.8-9.4,4-14.2s1.7-6.9,2.6-10.4a78.9,78.9,0,0,1,3-9.4l-.4.8a20.2,20.2,0,0,1,5.2-8.2,13,13,0,0,1,6.3-3.9l-1.1.4,4.6-1.3-1,.3a16.8,16.8,0,0,1,11.5,1.9A12.8,12.8,0,0,1,274.6,0L274-.7l4.8,10,.3,4.2a25.7,25.7,0,0,1-3.3,10.8A50.4,50.4,0,0,1,265,37.4c-3.7,3.3-7.8,6.2-11.6,9.4a147.3,147.3,0,0,0-14.5,14A46.1,46.1,0,0,0,229,76.3a61.8,61.8,0,0,0-3.9,17,58.4,58.4,0,0,0,2.1,20.4,47,47,0,0,0,5.3,11.9,23.3,23.3,0,0,0,4.2,5.7,53,53,0,0,0,8.3,8.1l6.6,4,7,3.2,7.6,1.9,7.7,1.1a71,71,0,0,0,19.5-1.4,84.8,84.8,0,0,0,14.6-4.5,77.8,77.8,0,0,0,13-7.1,82.8,82.8,0,0,0,10.7-8.9A88.2,88.2,0,0,0,343.1,114a132.2,132.2,0,0,0,10-19c5.5-13.1,8.9-27,11.1-41s3.1-28.9,4.4-43.3c.8-8.4,1.7-16.9,3.1-25.2a174.9,174.9,0,0,1,4.5-19l-.3,1a126.3,126.3,0,0,1,5.2-13.3A77.3,77.3,0,0,1,390-60.3a59.8,59.8,0,0,1,9.1-9.7,35.1,35.1,0,0,1,5.3-4,33.4,33.4,0,0,1,8.7-4.8l-1.1.3,7.4-2.5c1.1-.4.9-3,.2-3.6s-3.6-.7-4.8-.3a71.1,71.1,0,0,0-13.5,6,71.3,71.3,0,0,0-11.5,9A84.8,84.8,0,0,0,372-43.1a128.1,128.1,0,0,0-6.8,21.8c-3.2,14.1-3.9,28.7-4.8,43s-1.5,28.1-4.1,41.9L322.1,130l-11.6,7.5a66,66,0,0,1-13.4,5.1,79.2,79.2,0,0,1-14.5,2.1,54.7,54.7,0,0,1-18-2.3,16.2,16.2,0,0,1-6.7-2.6,29.9,29.9,0,0,1-6.2-3.7,16.7,16.7,0,0,1-5.6-5A51.8,51.8,0,0,1,239,122l.4.8-3.1-6.7.4.9-2.3-7.1.3,1-1.2-6.7v1.1l-.5-6.9v1.1c.2-7.3.9-14.3,3.2-21.3a66.5,66.5,0,0,1,8.2-16.7l-1.1,1.4a41.5,41.5,0,0,1,7.5-7.6,81.2,81.2,0,0,1,7.5-5.6,130.6,130.6,0,0,0,12.7-10.9c8.5-8.5,15.9-21.2,11.9-33.7A20.9,20.9,0,0,0,271.4-7.7a27.9,27.9,0,0,0-8.6-2.2c-2.8-.2-5.9-.4-8.6.4l-4,1.3a10.6,10.6,0,0,0-5.4,3.1,18.8,18.8,0,0,0-4.3,4.6c-.9,1.8-1.7,3.5-2.5,5.3a22.9,22.9,0,0,0-2.2,6.7c-.9,4.2-1.8,8.4-2.5,12.6-1.6,7.6-3.4,15.2-6.6,22.3C218.9,64,203,77.1,185.2,82.8A75.3,75.3,0,0,1,163.6,86a58.6,58.6,0,0,1-26-6.3,81.2,81.2,0,0,1-10.7-6.9,86.2,86.2,0,0,1-9.4-9.7l.6.8-4.3-6.2.5.8L110.6,52l.4.9a53.5,53.5,0,0,1-3.5-10.2,34.2,34.2,0,0,1-.7-9,2.2,2.2,0,0,0-3-2,11.6,11.6,0,0,0-2.5,2.9A9.7,9.7,0,0,0,99.7,38Z" transform="translate(0 87.6)"/><path class="cls-5" d="M102.1,44a29.2,29.2,0,0,0,1.5,9.3,50.7,50.7,0,0,0,4.4,9.8,64.8,64.8,0,0,0,16,17.8,69.1,69.1,0,0,0,22.6,11.5,64.6,64.6,0,0,0,28,1.5c19.2-3.1,37.2-13.8,48-30.1,5.8-8.7,8.9-18.5,11.6-28.5,1.1-4.6,2.4-9.2,3.8-13.7a40.8,40.8,0,0,1,4.9-11.1l-.8,1.1A20.2,20.2,0,0,1,247.4,6a21.2,21.2,0,0,1,6.2-3.1l-2.1.6L257,2.3l-2.2.5,9.9.6-6.2-1.3,8.4,3.2-1.8-1.4L269,7.3l-1.7-1.6,3.3,3.9-1.5-1.9a17,17,0,0,1,1.8,3.9,9.1,9.1,0,0,1,.7,4.3c.2,3.9-.7,7.6-1.3,11.4l.5-2.8-1.7,5.7.9-2.9-3.6,10,2.8-7.1-9.9,17.9,5.1-8.1-8.5,11.7,6.1-7.8L246.5,61.7,249,59c-5.9,6.2-12,12.3-16,20.1A55.5,55.5,0,0,0,228.1,94a52.6,52.6,0,0,0,2.8,29.1c3.2,8,8.9,14.6,15.8,19.9l4.9,2.9a30.3,30.3,0,0,0,6.3,3,58,58,0,0,0,17.4,4,70.5,70.5,0,0,0,25-2.7,64.8,64.8,0,0,0,19-9.4A79.6,79.6,0,0,0,342.5,116,121.5,121.5,0,0,0,353,93.1c8.1-23.5,10-48.6,12.6-73.1,1-10.1,2-20.3,4.1-30.2,1-4.7,2.2-9.4,3.6-14a101.4,101.4,0,0,1,5.1-13.3l-.6,1.2,3.8-7.4-.7,1.2a85.2,85.2,0,0,1,7.5-11.3,50.2,50.2,0,0,1,6.7-7.1,43.6,43.6,0,0,1,7.6-6,49.7,49.7,0,0,1,11.6-5.6c2-.9,1.2-3-.5-3.6a19.6,19.6,0,0,0-5.4.2,19.3,19.3,0,0,0-5.3,1.1,65.8,65.8,0,0,0-12,7.2A76.5,76.5,0,0,0,381-58a99.9,99.9,0,0,0-11.8,17.8,98.9,98.9,0,0,0-6.3,14.6A162.5,162.5,0,0,0,355.5,5c-2,13.2-3,26.6-4.7,39.9-1.3,10.3-2.9,20.5-5.2,30.6A102.8,102.8,0,0,1,334,107.7c-4.3,7.5-9.5,14.1-16.4,19.3a97.3,97.3,0,0,1-9.4,6.4,38.7,38.7,0,0,1-11.2,4.5,46.8,46.8,0,0,1-23.8.1,36.9,36.9,0,0,1-25.4-23.6c-3.4-10.2-2.2-21.5.8-31.6,3.5-12.3,10-23.4,16.2-34.5l-5.7,6.5c5.7-5.9,12-11.6,16.3-18.7,3.1-5.2,5.7-11.5,5.3-17.6a23.4,23.4,0,0,0-2.2-9.1A19.3,19.3,0,0,0,268.9.5a33.8,33.8,0,0,0-19.1-2.4c-10.4,1.8-18,10.2-22.3,19.4a105.5,105.5,0,0,0-4,12c-1.2,4.3-2.5,8.5-3.9,12.8-2.9,8.4-6.9,16.2-13.3,22.5-10.5,10.4-25.2,16-39.9,16a49.9,49.9,0,0,1-12.8-1.6,17.8,17.8,0,0,1-10.1-4.4,52.3,52.3,0,0,1-8.7-6.1,55.8,55.8,0,0,1-7.1-7.5,50.3,50.3,0,0,1-8.5-17,55.7,55.7,0,0,1-1.4-16.3c0-1.1-.6-1.5-1.6-1.3a10.8,10.8,0,0,0-4.5,3.7c-2.4,2.8-4.7,5.6-6.9,8.6A9.7,9.7,0,0,0,102.1,44Z" transform="translate(0 87.6)"/><path class="cls-5" d="M107.5,53.4a42.9,42.9,0,0,0,1.5,9.4,52.5,52.5,0,0,0,2.2,5.5,38.1,38.1,0,0,0,4.6,7.8,53.3,53.3,0,0,0,7.9,9.2,66.4,66.4,0,0,0,40.1,18.2,68.2,68.2,0,0,0,21.1-1.5,74.5,74.5,0,0,0,29.7-13.6,71.7,71.7,0,0,0,18.9-22.1c3.2-5.7,5.4-12.4,7.2-18.7s3.5-11.8,5.2-17.7l-.4,1.1a45.4,45.4,0,0,1,5.1-11.2,19.8,19.8,0,0,1,5-5.4l-1.4,1.1L263,12l-5.4,1.2a19.4,19.4,0,0,1,10.7.1l-2.1-.7,4.4,1.7-2.1-.9,4.2,2.2-2.1-1.3a41,41,0,0,1,5.3,4.9l-1.8-1.8a58.3,58.3,0,0,1,3.7,7l-1.2-2.5a49.9,49.9,0,0,1,1.5,8.6l-.2-2.8v5.9l.3-2.8-1.5,10.4,1.5-6.5-4.2,13.6,2.6-7.4-5.1,10.7,3.7-6.8L259.6,64.7l1.9-1.9c-9.1,8.4-19.5,16.5-24.6,28a56.6,56.6,0,0,0-4.1,30.4c2.1,15.2,12.1,28.4,25.8,35.2s27.8,7.1,41.6,4.4a66.5,66.5,0,0,0,23.1-9.3,85.8,85.8,0,0,0,21.5-19.7c13.4-17.5,19.6-39.4,23.6-60.7,4.5-24.1,5-48.8,9.7-72.8a117.9,117.9,0,0,1,8.6-27.2,91.1,91.1,0,0,1,6.6-11.8,59.3,59.3,0,0,1,8.1-9.9l-1.2,1.1,5.8-5.3-1.3,1.1,6.4-4.8-1.5,1.1,11-5.4a3.2,3.2,0,0,0,2.3-1.9,1.9,1.9,0,0,0-.6-2,2.9,2.9,0,0,0-3-.2,22.1,22.1,0,0,0-5,1.5,71.4,71.4,0,0,0-9.1,5,71.7,71.7,0,0,0-6.8,5.2,70.5,70.5,0,0,0-16.8,22.3A134.1,134.1,0,0,0,371.2-2.8a231.1,231.1,0,0,0-3.9,23.3c-1.5,10.8-2.7,21.6-4.1,32.4V51.8l-1.9,11.7.3-1c-1,5.8-2.3,11.4-3.8,17.1s-3,11.5-4.8,17.1l.4-1-3.4,8.3.5-1-4.1,8.2.6-1a107.1,107.1,0,0,1-9.6,14.5,56.9,56.9,0,0,1-11.3,10.6c-5.6,3.8-11.8,7.6-18.3,9.7a52,52,0,0,1-16.6,2.2A60.3,60.3,0,0,1,281,146c-3.4-.9-6.8-1.9-10.2-3.1l1.1.4-5.1-2.6,1,.5-4.8-2.7.9.7c-3.8-3.3-7.5-6.2-10.2-10.4l-2.3-3.8a40,40,0,0,1-2.9-8.2l.2,1.1-.9-5.5v1.1a56.5,56.5,0,0,1-.1-9.2,49.9,49.9,0,0,1,2.5-11.6,53.5,53.5,0,0,1,3.9-8.8,129,129,0,0,1,7.4-10.8l-.9,1.2c2.6-3.1,5.1-6.3,7.6-9.5a61.1,61.1,0,0,0,7-10.4c1.9-3,4.1-5.8,6-8.8,4.9-7.9,8.1-18.2,3.4-26.9a19.2,19.2,0,0,0-7.3-7.9c-3.3-2.1-6.3-2.6-9.9-3a31.6,31.6,0,0,0-11.4,1.3,26,26,0,0,0-6.3,3,24.7,24.7,0,0,0-8.1,8.9c-4.1,6.7-6.1,14.3-8.8,21.6s-6.3,16.2-11.5,23.2a57.1,57.1,0,0,1-17.1,14.6,61.6,61.6,0,0,1-40.6,6.8,36.2,36.2,0,0,1-8.5-2,43.3,43.3,0,0,0-7.3-4c-5.8-3.2-10.4-7.5-15.1-12.2l.9.9-3.6-4.4.7.9-3.1-4.5.6,1-2.6-4.8.6,1.1-2-4.7.4,1.1a35,35,0,0,1-1.3-5.6,15.6,15.6,0,0,1-.4-5.7c-.1-3.4-4.5-.5-5.6.2a85.8,85.8,0,0,0-7,5.3A6.8,6.8,0,0,0,107.5,53.4Z" transform="translate(0 87.6)"/><path class="cls-5" d="M111.9,40.1l.6,4.3,1.4,4.4a52.5,52.5,0,0,0,6.5,12.7A64.9,64.9,0,0,0,138.7,79a64,64,0,0,0,14.9,7.2,63.6,63.6,0,0,0,12.7,3.1l7.7.4h1a86.3,86.3,0,0,0,11.4-1.1,74.7,74.7,0,0,0,27.3-10.6,72,72,0,0,0,22.9-22.7c5.4-8.7,8.2-18.7,10.7-28.5a137.5,137.5,0,0,1,4.5-15.5,18.3,18.3,0,0,1,2.5-5.5A16.3,16.3,0,0,1,258.2.2l-1.4,1.1L261-2.1l-1.4,1a22.9,22.9,0,0,1,6.3-3,31,31,0,0,1,6.8-1h-3.1l6.6.5-3-.5L279.5-4l-2.7-.7,5.9,2.1-6.1-2.6,9,4.5L277.2-6,286,.5l-5.2-4.6,7.5,7.4-4.2-4.9,7,12.6-2.5-7,1.4,7V9.2l.4,9.2V14.5l-1.5,6.7.4-1.5L287,26.2l.6-1.3-3.2,5.5.7-1.1-3.8,5.1.8-1-3.9,4.3,1-.9c-3.4,3.1-6.7,6.3-10.2,9.3l-9.2,7.7a120.7,120.7,0,0,0-11.7,10.9,40.2,40.2,0,0,0-6.3,10,51.8,51.8,0,0,0-3.9,12.7,63.5,63.5,0,0,0-.8,15.1,46.1,46.1,0,0,0,3.2,14.7,53.4,53.4,0,0,0,6.5,11.4l4.7,5.2a24.7,24.7,0,0,0,6.1,5.1,66.7,66.7,0,0,0,6.4,3.7c11.2,5.8,24.1,6.6,36.5,5a67.7,67.7,0,0,0,18.6-5.6,78.3,78.3,0,0,0,27.5-21c10.6-12.6,17.6-28.5,21.7-44.5a284.4,284.4,0,0,0,6.5-31.8c2.1-15.7,3.3-31.5,5.5-47.2,1.7-12.2,4-24.2,8.5-35.7a120.1,120.1,0,0,1,5.9-12.6,80.7,80.7,0,0,1,11.8-16l-1.3,1.3,6.1-5.6-1.4,1.2,6.6-5L415-73.8a51.7,51.7,0,0,1,11.5-5.8c.8-.4,2.1-.8,2-1.9l-.5-1a4.6,4.6,0,0,0-3.2-.8,60.3,60.3,0,0,0-8.5-.1c-2.4.2-5.1.1-7.1,1.4l-6.6,4.2a55,55,0,0,0-8.5,7.5,86.6,86.6,0,0,0-9.5,11.5c-7.1,10.3-12,21.7-15.6,33.7-1.4,4.6-2.7,9.2-3.8,13.9-1.8,7.3-2.9,14.9-4,22.4s-1.6,12.6-2.4,18.9c-1.3,9.9-2.8,19.6-4.4,29.4l.2-1.1c-1.3,7.2-2.9,14.4-4.6,21.6l.3-1.2L348.1,86l.3-1.1c-2.3,6.5-4.6,13.1-7.9,19.1a109,109,0,0,1-6.8,10.8,63.2,63.2,0,0,1-6.4,7.2,62.2,62.2,0,0,1-7.1,6.5,66.6,66.6,0,0,1-13,7.3c-4.9,1.9-10.3,3.7-15.5,3.8l-35-11.6a23.3,23.3,0,0,1-5.7-7.2,40.9,40.9,0,0,1-5.5-13.5c-1.2-5.5-1.1-10.9-.8-16.5v1a73.7,73.7,0,0,1,2.1-10.4,47.2,47.2,0,0,1,4.9-11.3,39.2,39.2,0,0,1,5.2-7.1,94.7,94.7,0,0,1,9.3-8.6l3.7-2.9a69.8,69.8,0,0,0,6.6-5.6,60,60,0,0,0,6.6-5.7,49.2,49.2,0,0,0,6.9-8.2l2.6-5.1,2.1-5,.9-5.4a14.4,14.4,0,0,0-.2-6.2,28.7,28.7,0,0,0-1.7-5.7,25.5,25.5,0,0,0-7.1-9.8,33,33,0,0,0-4.9-3.4,24.5,24.5,0,0,0-8.9-3.2A31.5,31.5,0,0,0,255-9.6a35.7,35.7,0,0,0-8.1,4.5,42.5,42.5,0,0,0-6.5,6.2,49.8,49.8,0,0,0-5,7.3c-2.5,4.2-3.8,9.1-5,13.8-1.9,7.5-3.2,15.3-6.1,22.5a56,56,0,0,1-14.5,20.5,61.1,61.1,0,0,1-20.9,12.2c-8.7,2.8-18.2,3.9-27.2,2.1A65.3,65.3,0,0,1,150.3,76a60,60,0,0,1-19.2-13.6A47,47,0,0,1,123.3,51a47.2,47.2,0,0,1-3.9-11.1v1l-.5-5a2.8,2.8,0,0,0-1.5-1.5,2.1,2.1,0,0,0-2.2.7C113.8,36.2,111.6,38.1,111.9,40.1Z" transform="translate(0 87.6)"/><path class="cls-5" d="M103.3,50.2a37.7,37.7,0,0,0,1.9,9.9,42.9,42.9,0,0,0,1.9,5c3.2,7.3,8.8,13.7,14.7,19a67.3,67.3,0,0,0,29.9,15,59.2,59.2,0,0,0,13.9,1.5,73.5,73.5,0,0,0,18.1-2.2,76.2,76.2,0,0,0,28.7-15.1,59,59,0,0,0,10.1-10.5,47.4,47.4,0,0,0,6.1-9.2l3.3-7.4a131.4,131.4,0,0,0,4.9-15l3-10.5a76.1,76.1,0,0,1,3.3-9.5l-.5,1a26.7,26.7,0,0,1,3.9-6.5,14.8,14.8,0,0,1,3.9-4l-1.6,1,4.6-2.6-1.7.9,9.4-2.1-5.7.3,11.4,1.5-5-1.5,4.4,1.9-2-1,4.1,2.3-2-1.3c2,1.8,3.3,3,4.4,5.4l1,2.4a73.2,73.2,0,0,0,1.1,8l-.5-2.9q-.2,4.3-.6,8.7l.5-3L269.8,40l2.1-7.4-5.2,15,3.2-8.6-5.7,11.4,4.5-8.3L261,54.4l5.7-7.6-15,17.6,2.4-2.5a208.2,208.2,0,0,0-14.5,15.2,52.1,52.1,0,0,0-7.4,12.7c-3.5,8.5-4.3,17.9-3.4,27A45.5,45.5,0,0,0,242.9,145c8.7,8.2,20.2,12.4,31.9,13.6a67,67,0,0,0,20.5-.8c6.9-1.5,13.9-3.6,20-7.2A86.3,86.3,0,0,0,349,114.5c8.1-16.2,12.3-33.7,15.2-51.5,1.7-10.8,2.8-21.6,3.9-32.5s2.7-23.7,4.7-35.6L372.6-4c2.7-11.4,5.8-23,11.7-33.3a93.1,93.1,0,0,1,7.4-11.1,43.7,43.7,0,0,1,6.7-6.9,38.4,38.4,0,0,1,7.4-5.9l-1.6,1,7.1-4-1.7.9,5.8-2.5c.9-.4,2-.6,2.5-1.7a1.9,1.9,0,0,0-1-2.3c-1.1-.5-2.6-.1-3.8.1a22.8,22.8,0,0,0-5.8,1.7c-4,2.1-7.5,3.8-11.2,6.7a74.8,74.8,0,0,0-11.7,11.5,100.7,100.7,0,0,0-17.2,34.3,242.9,242.9,0,0,0-6.7,34.8c-2.6,19.1-4.1,38.3-8.6,57.2-2,8.2-3.8,16.5-7.2,24.3a108.2,108.2,0,0,1-9.7,17.3,68.5,68.5,0,0,1-13.2,14.2,81.1,81.1,0,0,1-9.4,5.7,45.7,45.7,0,0,1-9.2,4.4,47.8,47.8,0,0,1-28.5,0,37.2,37.2,0,0,1-13-7l-3.2-2.8c-2.2-2.5-4.2-5.1-6.2-7.8l.7,1a76.1,76.1,0,0,1-3.9-8.8l.5,1.2a74.5,74.5,0,0,1-1.7-8.2,61.7,61.7,0,0,1,0-8.6,63.2,63.2,0,0,1,4.5-18.1c2.5-6.3,6-12.2,9.4-18.1,1.8-2.8,3.4-5.6,4.9-8.5a69.4,69.4,0,0,0,5.1-10.2l-7.3,10.4c6.3-7.1,13.3-13.8,16.4-23.1,1.8-5.5,2-11.7-.4-17A20.1,20.1,0,0,0,266.2,5.3a33.1,33.1,0,0,0-8.9-.5,25.9,25.9,0,0,0-10.6,2.6c-8.8,4.5-13.1,13.4-16.2,22.3S224.9,47.6,220.4,56a31.1,31.1,0,0,1-5.8,8.9,38.7,38.7,0,0,1-6.8,7.2,57.6,57.6,0,0,1-47.2,12.7,53,53,0,0,1-11.8-3.3L145.4,79a44,44,0,0,1-7.9-5.7,41.3,41.3,0,0,1-6.4-6.8,46.8,46.8,0,0,1-8.4-15.1,46,46,0,0,1-1.9-15.2c0-4.2-6,1.4-6.3,1.6-2.8,2.5-5.4,5-7.9,7.6A11.5,11.5,0,0,0,103.3,50.2Z" transform="translate(0 87.6)"/><path class="cls-5" d="M107.6,36.6c.4,3.5.5,7.5,2,10.8a63.9,63.9,0,0,0,5.5,9.9,69.7,69.7,0,0,0,26.5,23.5,72.2,72.2,0,0,0,23.5,7.3c2.7.3,5.5.3,8.2.4a55.3,55.3,0,0,0,11.5-1A72.7,72.7,0,0,0,196,84.9a72.6,72.6,0,0,0,19.5-10.2,77.9,77.9,0,0,0,15-14.8,21.6,21.6,0,0,0,2.7-4,48.6,48.6,0,0,0,5.3-9.8,133.8,133.8,0,0,0,5.9-18.9c1.3-5.5,2.4-11.1,4.1-16.4l2.2-6a23.9,23.9,0,0,1,5.2-8.1l-.9.9,2.8-2.3A14.7,14.7,0,0,1,262.7-7a26.1,26.1,0,0,1,8.8-1.3h-1.9l5.5.7-1.8-.2,10.3,4.7-3.2-2.4,7,8.2L286.1.3l1.7,5.3-.3-1.1,1,5.8v-1l-.5,4.6a18.1,18.1,0,0,1-2.2,6.8,41.3,41.3,0,0,1-5,8,60.5,60.5,0,0,1-7.9,8.1l-4.1,3.1-4,3.5c-9.8,8-21.1,15.3-27,27a54,54,0,0,0-5.3,23.7,53.9,53.9,0,0,0,4,21.4l3,5.8,3.8,5.6,5,5.2a34.9,34.9,0,0,0,6.3,5.2,73.4,73.4,0,0,0,14.4,6.9l7.6,1.8,7.8,1a82.3,82.3,0,0,0,15.7-.8,66.6,66.6,0,0,0,18-5.3,77.7,77.7,0,0,0,9-4.8c4.6-2.9,8.8-6.9,12.7-10.7,8.9-8.8,15.2-20,19.9-31.5,11.7-28.5,13.5-59.5,16.8-89.8,1.4-13.1,3.2-26.4,7.3-39a105.8,105.8,0,0,1,5.1-13.2,91.1,91.1,0,0,1,10.8-17.3l-1,1,5.4-5.9-1,1a65.9,65.9,0,0,1,10.1-8.2,57.9,57.9,0,0,1,11.8-5.6c1.9-.7,1.9-2.6.3-3.6a21.7,21.7,0,0,0-5.1-.8,21,21,0,0,0-5,.2,49.8,49.8,0,0,0-10.2,5.4,46.3,46.3,0,0,0-9,6.8l-5.3,5.3c-8,8.3-13.7,19-17.8,29.7a150.1,150.1,0,0,0-5.6,17.6,182.3,182.3,0,0,0-3.7,21.1c-2.2,18.2-3.1,36.5-5.2,54.8l.2-1.1-1.7,11.2.2-1.1c-1.1,6.5-2.3,12.9-3.7,19.3l.2-1c-5.9,22.6-17.9,47.2-40.6,56.7a63.6,63.6,0,0,1-24.7,4.8c-15,.2-30.9-6.1-40.3-18.2a56.2,56.2,0,0,1-6.3-10.9,63.8,63.8,0,0,1-3-11.4l.2.9a61.1,61.1,0,0,1-.4-11.3,56.6,56.6,0,0,1,1.2-8.1,32.9,32.9,0,0,1,2.1-7.6,31.9,31.9,0,0,1,4.3-8.9l-.6.8A42.7,42.7,0,0,1,254.8,57l7.8-6c6.7-5.2,13.8-10.2,19.7-16.5,7.9-8.5,14.1-20.6,9.9-32.4a24.5,24.5,0,0,0-7.5-10,32.9,32.9,0,0,0-10.1-5,31.3,31.3,0,0,0-27.7,5.6,30.1,30.1,0,0,0-8.7,11.9c-1.6,3.9-2.3,8.6-3.1,12.7s-1.2,8.5-1.9,12.8a90.2,90.2,0,0,1-3.4,13.6,58.8,58.8,0,0,1-13.9,22.1c-17.5,17.7-45.3,22.4-68.2,12.3A65.1,65.1,0,0,1,127,63.6c-5.3-5.5-9.3-12.2-12.7-19l.4.8a39.8,39.8,0,0,1-1.2-10.3,2.8,2.8,0,0,0-2.8-2.3C109.6,33,107.5,35.4,107.6,36.6Z" transform="translate(0 87.6)"/><path class="cls-5" d="M98.1,41.8c.1,1.6.1,3.1.3,4.7a36.2,36.2,0,0,0,3.1,10c3.7,8.5,9.8,15.8,16.7,21.9a76.6,76.6,0,0,0,11.1,7.8,64.6,64.6,0,0,0,13,5.6,32,32,0,0,0,6.9,1.9,22,22,0,0,0,7.2,1,68.1,68.1,0,0,0,19.1-1.3c19.9-4.4,38.3-16.2,49-33.7a83.2,83.2,0,0,0,8.2-18.9c1.5-4.8,2.8-9.8,4-14.7a141.9,141.9,0,0,1,5-16.5l-.3.8a14.9,14.9,0,0,1,4-6.6A14.3,14.3,0,0,1,249.6.3l-.9.4C255.1-2.6,262-2.2,269.3,2a16.3,16.3,0,0,1,5.8,7.7c1.8,5.2,1,11.5-1.3,16.4s-5.2,7.6-8.7,10.8a28.6,28.6,0,0,1-5,4.2,59.1,59.1,0,0,1-6.3,6,41.6,41.6,0,0,0-4.2,4.2c-3.6,3.4-7.1,6.9-10.4,10.4-5,5.5-9.4,10.9-12,17.9-4.8,12.9-5.8,27.1-1,40.2a49.3,49.3,0,0,0,15.9,21.8,57.5,57.5,0,0,0,29.2,11.6,70.4,70.4,0,0,0,30.5-4.2,75.5,75.5,0,0,0,26.4-16.7C346,115.4,354.5,91.4,359.7,68c3.2-14.5,4.6-29.3,6.1-44q.9-10.5,2.1-21t3-19.8l-.2.9c2.6-11.6,6-23.2,12.2-33.4a92.2,92.2,0,0,1,7.6-10.9,48.5,48.5,0,0,1,6.9-6.7,42.1,42.1,0,0,1,7.7-5.6l-.8.5,6.5-3.3-.9.5L416-77a2.3,2.3,0,0,0,1.2-3.2c-.5-1.3-2.6-1.5-3.8-1a61.7,61.7,0,0,0-12.3,5.3,55.7,55.7,0,0,0-8.9,6.4c-9.6,8.3-16.7,19.3-21.2,31.1a106.9,106.9,0,0,0-5.3,17.5c-1.1,4.6-1.8,9.3-2.5,14-2.9,18.9-3.4,38-5.9,57-2.1,15.7-5.4,31.5-11.3,46.3s-14.5,28.1-27.2,37.6l-5.5,3.9a55,55,0,0,1-9.4,4.7,69.5,69.5,0,0,1-17.3,4.8,56.6,56.6,0,0,1-10.9.1,26.2,26.2,0,0,1-11-2.3l-7.2-2.8a69.9,69.9,0,0,1-12.6-9.6l.6.8-4.7-6.2.6.9-3.8-6.7.4,1.1a54.6,54.6,0,0,1-3.8-12.3,37.3,37.3,0,0,1-.7-8.2,75.1,75.1,0,0,1,2.2-18.3l-.4,1.3,1.8-6.2-.4,1.3a90.1,90.1,0,0,1,4.7-11.1,82.5,82.5,0,0,1,6.2-9.6l-1.3,1.6,3.2-3.7-3.8,3.8c3.5-3.1,7.2-6,10.8-9a66.1,66.1,0,0,1,7.7-6.3l3.4-3c7.4-6.7,12.7-15,13.6-25.2A22.7,22.7,0,0,0,278.5,5a20.6,20.6,0,0,0-5.7-6.4,24.5,24.5,0,0,0-15.7-4.7c-5,.3-9.7,1.3-13.7,4.4a14.8,14.8,0,0,0-4,3.9,29.3,29.3,0,0,0-2.8,5.6c-2.3,5.2-3.5,10.8-4.7,16.2a141.1,141.1,0,0,1-10.8,32.1,45.5,45.5,0,0,1-6.3,8.8,69.1,69.1,0,0,1-7.6,7.7,67.5,67.5,0,0,1-8.9,6.2,63.8,63.8,0,0,1-20,8.3,48.9,48.9,0,0,1-10.7,1.8,80.3,80.3,0,0,1-14.7-.5l.8.2a56.3,56.3,0,0,1-10.5-3.5,72.2,72.2,0,0,1-9.7-4.7l.8.5-6.4-4.5.8.6-6-5.1.7.7-4.9-5.3.7.8-4.4-5.8.6.9-3.5-6,.5,1-3-6.3.5,1.1-2.1-6,.4,1.1-1.5-6.2.3,1.2-.7-5.7V34.1c0-.8,0-1.6-.7-2.1s-2.2.1-3,.9a28.3,28.3,0,0,0-3.2,4.5,9.4,9.4,0,0,0-1.2,2.2A2.2,2.2,0,0,0,98.1,41.8Z" transform="translate(0 87.6)"/></g><g class="cls-3"><path class="cls-4" d="M620-26.6c-1.6,9.2-3.1,18.6-1.7,27.8s6.5,18.3,14.6,21.4c5,2,10.4,1.5,15.6.7a148.1,148.1,0,0,0,41.9-12.7c3.6-1.7,7.3-3.6,11.2-3.8,10.3-.7,18.7,11,18.4,22.3s-7.4,21.1-15.7,27.7-18,11-27.1,16.4-16.8,12.4-17.6,22.7c-.8,12,10,21.9,20.9,23.3s21.8-3.5,31.8-8.6,20.2-10.6,31.3-10.7a7.3,7.3,0,0,1,4.1.9c2.1,1.4,2.6,4.3,2.8,6.9a92,92,0,0,1-12.1,53.8c-1.4,2.3-2.9,4.8-2.9,7.5a12.1,12.1,0,0,0,2.7,6.5c12,17.3,34.5,24.8,53.4,17.9" transform="translate(0 87.6)"/><path class="cls-5" d="M598.3-12.5c-1.7,11.4-3.4,23.5,1.4,34.3A44.9,44.9,0,0,0,607.6,34a35.7,35.7,0,0,0,15.6,9.8c6.4,2.1,13.2,1.9,19.8.9a192,192,0,0,0,20.1-3.6,187.9,187.9,0,0,0,30.1-10.4A71.8,71.8,0,0,0,706.1,24a20.5,20.5,0,0,1,6.7-2.7h.8l-3.7-1.2,5.8,1.9-13.8-6.3L713.6,22,704,16l10.7,7.9L702.9,14l14.7,19.9-9.2-17.6,6.7,16.5-4.9-15,4.3,17.4-2.8-15.8,2.1,18.2-.7-16L712.7,40l1.5-16.3-2.9,18.6,2.4-11.8-4.2,14.9,4.1-11.6-6.3,14.5,5.6-10.9-8.2,13.4,7.1-10.1-10,12.4,8.4-9-11.4,11L712,44.7,685.1,61.9l4-1.8-9.6,4,4.2-1.4c-9.7,3-19.6,5.6-29.1,9.4a31.3,31.3,0,0,0-6.6,3.3,29.9,29.9,0,0,0-6.5,6.3,27.3,27.3,0,0,0-4.7,8.9l-1,5.3v5.8l1.2,5.5a23.7,23.7,0,0,0,3.3,7.9,46.4,46.4,0,0,0,8.8,11.4,55.3,55.3,0,0,0,9.1,6.8,48.5,48.5,0,0,0,12.7,5.2,42.8,42.8,0,0,0,15.1,1.2l7.2-1,6.9-2.1c10.3-3.3,19.8-8.8,29.2-13.9,3.4-1.9,6.9-3.7,10.4-5.3a32.5,32.5,0,0,1,7.4-2.6,22.6,22.6,0,0,1,6.9-1.1l-21.1-8.2,12,21-.4-17.9-1.3,22.3,3.1-15.7-8.4,28.5,3.8-9.6-6.7,15.7,1.9-3.9-5.1,9.8L734,152a93,93,0,0,1-7.7,11.9,75.1,75.1,0,0,1-6.1,7.6l13.3-10.8c-4.9,3.4-9.6,7-14.2,10.7a14.5,14.5,0,0,0-4,3.8l-1,1.9a24.4,24.4,0,0,0-.1,2.7,6,6,0,0,0,1.4,4.6l2.1,3.2a41.9,41.9,0,0,0,3.9,4.5c2.1,2.2,4.2,4.5,6.4,6.7l5.4,4.8a66.4,66.4,0,0,0,9.2,5.6,69.3,69.3,0,0,0,16.6,6.3,59.5,59.5,0,0,0,10.3,1.5,46.1,46.1,0,0,0,10.5,0l6.9-1a70.1,70.1,0,0,0,13.4-4.4c2.2-.9-4.7-7.3-5.3-7.9s-4.1-3.9-6.3-5.7a10.1,10.1,0,0,0-5-3.1,38.2,38.2,0,0,1-9.6.6,26.9,26.9,0,0,1-6.9-1.1,39.6,39.6,0,0,1-6.7-2,82.5,82.5,0,0,1-9.3-4.9l1.1.6a105.7,105.7,0,0,1-8.3-6.7l1,.8-4.1-4.6.8,1-3.1-4.6.7,1a33.3,33.3,0,0,1-2.7-6.1l.4,1.2c-.3-1.5,0-2,.7-3.4a22.5,22.5,0,0,0,.8-2.4,15.7,15.7,0,0,1,2.2-5.2,104.2,104.2,0,0,0,7-20.6c1.2-6.3,1.9-12.8,2.7-19.2l-6.5,19.3a105.7,105.7,0,0,1,15-19.4,3,3,0,0,0,1.3-3.3A2.5,2.5,0,0,0,759,113a45.6,45.6,0,0,0-5.5-4q-3.4-2.4-7.2-4.5a11.1,11.1,0,0,0-5.5-2.2,94.4,94.4,0,0,0-12,2.4q-4.8,1.6-9.6,3.6l-4.9,2.2-10,4.2a51.8,51.8,0,0,0-6.6,1.4,45.5,45.5,0,0,1-7.3,1.7,43.5,43.5,0,0,1-10.2.8,29.7,29.7,0,0,1-9.7-2.2l1.4,1.6a23.8,23.8,0,0,0-4.4-5.1c-1-1.3-2-2.7-2.9-4.1s-1.2-2.7-1.9-4.1a31,31,0,0,0-1.1-5.1l.2,1.3a43.4,43.4,0,0,0,0-5.1l-.2,1.3,1.5-6-.5,1.2,2-3.7-.6,1.1,2.4-3.7-.7,1.1a52,52,0,0,1,7.8-7c4.8-3.5,10.1-6.2,15.2-9.2a98.9,98.9,0,0,0,16.8-11.7,24.3,24.3,0,0,0,5.3-5.8,61.3,61.3,0,0,0,4.6-7.8l-1.1,1.9,3.1-3.9a12.2,12.2,0,0,0,.7-6.3c-.1-2.9-.2-5.9-.5-8.9s-.5-4.7-.9-7.1a2.6,2.6,0,0,0-2-2.5c-5.4-2.3-10.8-4.8-16.4-6.6a10.3,10.3,0,0,0-5.7-1.1,33.1,33.1,0,0,0-4.5,1.2c-5.8,2-11.5,4.3-17.4,6s-8.8,2.6-13.3,3.6a74.3,74.3,0,0,1-19.9,3l1.9.9-4.1-2.2-2.4-.9a19.4,19.4,0,0,1-5.6-3.2,24.7,24.7,0,0,1-3.5-3.7,27.3,27.3,0,0,1-3.2-6.1,32.7,32.7,0,0,1-2.2-11.6c.1-8.3,1.7-16.5,3.4-24.6,1-4.6-7.5,1.4-7.5,1.4-3.7,2.4-7.4,5-10.9,7.7A15,15,0,0,0,598.3-12.5Z" transform="translate(0 87.6)"/><path class="cls-5" d="M600.3-20.5a127.2,127.2,0,0,0-1.9,13.8A52.5,52.5,0,0,0,599,5.2a36.8,36.8,0,0,0,3.8,11.6,56.8,56.8,0,0,0,5.5,8.3,37.7,37.7,0,0,0,12.4,9.7,35.2,35.2,0,0,0,14.6,3.5,66.9,66.9,0,0,0,14.1-.9c11.2-1.7,22.1-5,32.8-8.8a152,152,0,0,0,23.4-10.2l3.6-2.1a19.8,19.8,0,0,1,5.1-2.4,6.8,6.8,0,0,1,4.2-.5h-1.7l2.1.8-6.5-3.9,5.5,3.8-6.6-5.6,7.9,7.5-5.7-6.3,6.3,8.7-4.6-6.8,4.9,9.4-3.5-7.2,3.5,9.9-2.9-10.4,1.5,12.3.3-6.7-1,9.5,1.1-6.6L717,31l1.8-6.4-2,5.2,1.2-2.5-2.9,5.9,1.4-2.4L713,36.2l1.8-2.2-4.2,4.9,2.1-2.1-7.4,7.5,5.2-4.9a105.3,105.3,0,0,1-36.8,18.4l-10.1,3.1c-3,1-6,2.2-8.9,3.5A27.4,27.4,0,0,0,640.3,79a29.6,29.6,0,0,0-1.9,16.9,42.1,42.1,0,0,0,10.8,21.3l4.1,4.2a51.1,51.1,0,0,0,7.1,5.1,45.6,45.6,0,0,0,13.3,5.5,35.9,35.9,0,0,0,13.5.9l8.4-1.2a69.9,69.9,0,0,0,10.7-3.4,57.9,57.9,0,0,0,9.8-4.5c4.6-2.3,9-4.7,13.4-7.3a128.7,128.7,0,0,1,13.2-7.1l4.9-2a29.5,29.5,0,0,1,9.3-1.8h-1.7l5.8.6-12.3-6.5,11.7,8.2-11.2-10,7.5,11.2-5.2-9.4,1,3.9-.5-2.6-2.6,13.6,2.2-7.6a252.9,252.9,0,0,1-11.3,26.8,96.9,96.9,0,0,1-10.8,20.7l1.6-2.5-5.6,7.6,1.9-2.4-6.1,7.2L730,156l-8.3,6.7a11.1,11.1,0,0,0-4.7,4.9,5,5,0,0,0-.9,4.4,12.4,12.4,0,0,0,1.5,4.2,34.6,34.6,0,0,0,5.9,7.9,83.9,83.9,0,0,0,10.4,11.1c2,1.5,4.1,2.9,6.1,4.2a74.2,74.2,0,0,0,21.1,9,63.9,63.9,0,0,0,28.4.6,73.6,73.6,0,0,0,13.7-4.6,2.1,2.1,0,0,0,.1-2.6,36.4,36.4,0,0,0-4.2-5.5,38.6,38.6,0,0,0-5-4.9,2.1,2.1,0,0,0-2.6-.2l-5.2,1.8,1.1-.2-6.5,1.3H782l-6.7.5h1.1l-6.7-.2h1.1l-6.7-1,1.2.2c-5.7-1.5-11-3.3-16-6.5l-5.1-3.4a28,28,0,0,1-6.7-6.6,33.9,33.9,0,0,1-3.8-5.3,7.3,7.3,0,0,1-2.1-4.3,12.8,12.8,0,0,1,.8-5.8l-.8,1.5a18.5,18.5,0,0,0,2.1-4.5l-.9,1.5c2.9-4.9,6.2-9.5,8.6-14.6a144.8,144.8,0,0,0,7.1-19l-.8,2.7,1.1-2.8-2.8,6c1.6-2.9,3.2-5.9,4.7-8.9a72.5,72.5,0,0,0,2.8-7.8l-2.2,3.7c2.4-1.8,4.8-3.6,7.1-5.5l2.4-2.1a7.9,7.9,0,0,0,1.9-5.4,2.1,2.1,0,0,0-.6-2.6,34.2,34.2,0,0,0-4-3.6c-1.8-1.4-3.6-2.7-5.5-3.9a6.8,6.8,0,0,0-4.4-1.9,38,38,0,0,0-8.9.5,51.9,51.9,0,0,0-12,4.2c-3.3,1.7-6.5,3.4-9.6,5.3a49.1,49.1,0,0,1-6.7,3.7q-4.1,1.8-7.8,3.9l1-.5a80.2,80.2,0,0,1-11.8,4.6l1.1-.3-7,1.7,1.2-.2a52.4,52.4,0,0,1-13.7.2c-1.4-.8-2.8-1.6-4.3-2.3a27.6,27.6,0,0,1-9.4-7.9A21.9,21.9,0,0,1,655.4,95a26.3,26.3,0,0,1,1.7-10,28.7,28.7,0,0,1,6-9.7,60.5,60.5,0,0,1,8.7-7.2,105.3,105.3,0,0,1,9.8-5.8L692.1,57a72.2,72.2,0,0,0,10.2-5.7l-11.5,5.3c6-2.1,11.1-3.2,16.3-6.4a31.5,31.5,0,0,0,5.4-4,22.2,22.2,0,0,0,4.7-5A28.7,28.7,0,0,0,723,32l1-3.4q-.2-7.1-.6-14.1l-.6-1.5a32.3,32.3,0,0,0-3.7-3.7l-3.3-2.8a26.1,26.1,0,0,0-4.3-3.1c-3.5-.9-7-1.6-10.6-.9a28.7,28.7,0,0,0-5.7,2.4,102,102,0,0,1-11,5.4,220.5,220.5,0,0,1-27.6,9.8A26.1,26.1,0,0,1,641.7,23a34,34,0,0,1-7.8-.3,21.7,21.7,0,0,1-13.1-7,33.7,33.7,0,0,1-5.9-9.8c-2-5.2-2.3-10.4-2-16A117.7,117.7,0,0,1,616-31.4a1.4,1.4,0,0,0-1.4-1.6,7.7,7.7,0,0,0-4.4,2.4c-2.4,1.9-4.7,3.9-7,6.1A7.4,7.4,0,0,0,600.3-20.5Z" transform="translate(0 87.6)"/><path class="cls-5" d="M603.9-14.4c-1.3,7.5-2.6,15-1.8,22.6.3,2.5.7,4.9,1.2,7.3a44.3,44.3,0,0,0,3.6,8.4,41.4,41.4,0,0,0,5.7,8A35.1,35.1,0,0,0,627.9,42c6.5,2.2,13.3,2.1,20,1.2,3.6-.5,7.1-1.2,10.6-2a96.8,96.8,0,0,0,15.9-3.8,135.1,135.1,0,0,0,15.2-5,166.6,166.6,0,0,0,18.8-8.5,51.1,51.1,0,0,1,6-3.4,8.9,8.9,0,0,1,6-.9l-6.7-2.1,6.4,2.6L700.5,8.7l21.9,15.4L708.9,12.4l10.5,10.8-8.2-9.7,8.7,11.9-6.7-10.7,6.8,13-5.1-11.6,5.1,14-3.3-11.9,3.9,18.7-2.4-16.5.9,14.8.2-12-1,14.6,1.8-11.9L717,40.3l3.3-11.4-6.4,18.7L720.1,33,713,46.7l6.1-9.8-8.8,12.6,7.4-8.9L707.4,51.9l8.3-7.8-11.5,10,9.2-6.7L700.9,56l9.8-5.6L690.4,60.6,694,59l-9.3,3.7,3.8-1.2c-9.6,2.9-19.3,5.4-28.6,9.1-5,2-9.3,4.7-12.6,9.1a28,28,0,0,0-6,14.4c-.9,7.5,1.4,14.9,5.3,21.3,7.7,12.8,21.9,21.8,36.9,22.8,18.9,1.2,35.9-9,51.6-18.1l-1.1.6c4.9-2.5,10-5.5,15.4-7l4.7-1.2a21.3,21.3,0,0,1,8.7,0L750,107.4l6.9,3.4L745.4,104l12,7.8L741.5,99.2l6.9,31.8,2.2-11.8-4.7,16.3,1.2-3.8-3.9,10.2,1.7-3.7c-3,6.4-5.8,12.7-9.5,18.6a115.3,115.3,0,0,1-9.9,13.1l7.7-6c-3.6,2.5-7.7,5-11,8a7.1,7.1,0,0,0-2.5,4.7,8.8,8.8,0,0,0,1.2,5.8,41.2,41.2,0,0,0,6.9,9.1c4.9,5.4,10.1,10.4,16.5,14.2a69.6,69.6,0,0,0,19.7,8.2,68,68,0,0,0,17.4,1.6,53.5,53.5,0,0,0,10.5-1.1,70.1,70.1,0,0,0,13.4-4.4c2.8-1.1-7.4-12-7.3-11.9a92.2,92.2,0,0,0-7.4-7.9,3.1,3.1,0,0,0-3.3-1,23,23,0,0,1-8.2,1.2h-4.2c-5-.3-9.9-2-14.5-3.9a45.3,45.3,0,0,1-11.7-7.6,27,27,0,0,1-4.9-5.2c-1.1-1.6-2.1-3.2-3.1-4.8l.4,1.2-.6-2.1.3,1.2c-.1-1.4.4-2.1.9-3.4a11.8,11.8,0,0,1,1.9-4.1c1.6-2.8,3.1-5.7,4.4-8.6a100.9,100.9,0,0,0,6.9-21.4l.9-5.4a34.9,34.9,0,0,0-3-21.4l.4,18.9a6.5,6.5,0,0,0,3.4-2.2,100.6,100.6,0,0,0,7.4-9.8,3.2,3.2,0,0,0-1.9-3,69.9,69.9,0,0,0-7-4c-3-1.6-6-3.1-9.1-4.5a14.8,14.8,0,0,0-6.7-2.2,37,37,0,0,0-9.4,1.6l-4.8,1.6c-5.4,1.9-10.7,4.3-16,6.5a16.2,16.2,0,0,1-5.7,1.6,44.3,44.3,0,0,1-7.3,2.3l-6.5,1.6a39.4,39.4,0,0,1-9.1.4l1.2.3-5.9-1.1,1.2.3a10.9,10.9,0,0,0-4.2-2.7l1,.6-2.9-2.4.9.8-2.7-2.4.8.9-2.3-3,.7,1-2-2.9.6,1.1c-.8-1.8-1.6-3.6-2.2-5.4l.2,1.2c-.3-1.9-.4-3.8-.6-5.7v1.3l.6-3.6-.3,1.2,1.1-4.3-.4,1.2a28.4,28.4,0,0,1,3.3-5.6,57.9,57.9,0,0,1,5.1-4.8A74.9,74.9,0,0,1,686,72.2c6.1-3.2,12.4-6.3,18.2-10.1a55.8,55.8,0,0,0,5.6-3.9c10.6-8,15.7-20,15.2-36.2a2.7,2.7,0,0,0-1.4-3.1,59,59,0,0,0-6.2-5q-3.9-3-8.1-5.7a13.5,13.5,0,0,0-6.2-3.1,19.6,19.6,0,0,0-6.4.5,10.4,10.4,0,0,0-3.9.4c-5.4,1.3-10.8,3.8-15.9,5.7l1.2-.4c-4.4,1.5-8.9,2.9-13.5,4s-9,2.4-13.5,3.4h1.2l-10.5,1.2H643a8.2,8.2,0,0,0-4.9-1l1.2.3a53.6,53.6,0,0,0-5.4-1.4l1.1.6-5.1-2.9.9.8a48.9,48.9,0,0,1-4.4-4.7l.7,1-2-3.5.6,1.1-1.9-3.8.5,1.2a29.4,29.4,0,0,1-1.6-5.8,30.6,30.6,0,0,1-.3-7.4,125.8,125.8,0,0,1,3-20.3c.9-4.3-6.7.6-7,.7-3.4,2.1-6.7,4.3-10,6.7A11.6,11.6,0,0,0,603.9-14.4Z" transform="translate(0 87.6)"/><path class="cls-5" d="M604.9-5.2c-1.2,7.6-2.3,15.1-1.4,22.8a37.2,37.2,0,0,0,5,14.7,43.6,43.6,0,0,0,18,17.1,41.6,41.6,0,0,0,20.9,3.9c7.4-.4,14.8-2.3,22-4a195.7,195.7,0,0,0,36-12.2,88.5,88.5,0,0,0,13.3-7,24.1,24.1,0,0,1,6.8-2.9l-1.6.2h2.7l-7.1-2,9.1,3L718,23.8l9.1,5.2-9.4-6.5,10.5,11-6.4-8.6L728,38.6l-2.8-10,2.2,13-.8-7.2V44.5l.5-7.1-1.8,10.2,1.5-6.5-3.1,9.5,2.5-5.9L718.7,57l3.5-4.2-10.9,9.9,3.7-2.6a56,56,0,0,1-19.8,8.1c-4.1.7-8.1,1.4-12.1,2.3-6.3,1.3-12.8,2-19,3.8a59.2,59.2,0,0,0-8.9,3.2,19.4,19.4,0,0,0-6.4,4.6A25.3,25.3,0,0,0,643,90c-6.2,13.1-1.3,29,8,39.3,11.4,12.7,28.3,20.5,45.5,18.2a67.1,67.1,0,0,0,14.1-3.2,96.3,96.3,0,0,0,13.6-5.9c6-3,11.8-6.4,17.6-9.7,3.5-2,7-3.8,10.6-5.5A41.7,41.7,0,0,1,762,120l-1.6.3a19.2,19.2,0,0,1,8.6-.1l-11-4.1,8.7,4-10.1-5.7,6.6,5.6-5.1-5.1,2.3,3.8-1.3-2.3a10.5,10.5,0,0,1,.3,5v-2.3l-.6,3.3.7-2.2-6.6,20,.8-1.8q-3.9,7.2-7.5,14.7l.9-1.6a157.9,157.9,0,0,1-10.2,16.2,111.8,111.8,0,0,1-11.3,12.5l2.9-1.8c-2.8,1.2-6.3,2.4-7.9,5.3a6.2,6.2,0,0,0-.5,4.6c1,3,3.1,5.6,5.1,7.9a130.7,130.7,0,0,0,9.9,9.8,80.4,80.4,0,0,0,13.1,9.4,52,52,0,0,0,10.2,4.7,59,59,0,0,0,10.6,3.3,67.2,67.2,0,0,0,21.9,1.1l7.2-1.1a68.4,68.4,0,0,0,14-4.9,2.1,2.1,0,0,0,.1-2.5,22,22,0,0,0-3-3.7,41.6,41.6,0,0,0-4.2-4.2,5.2,5.2,0,0,0-3.6-2.1l-6,2,1.1-.2c-3.8.8-7.6,1.5-11.5,2s-7.1.1-10.7-.1a64.6,64.6,0,0,1-19.2-4.9,49.3,49.3,0,0,1-8.3-4.1,86.5,86.5,0,0,1-12.1-9.6,30.8,30.8,0,0,1-4.1-3,4.9,4.9,0,0,1-2.1-3.8l-.4.9a6.9,6.9,0,0,1,3.1-3.2l-1.2.8a15.2,15.2,0,0,0,3.4-2.2,94,94,0,0,0,9.6-11.3c6.2-8.6,10.4-18,14.5-27.8l-.8,1.7a60.3,60.3,0,0,0,3.9-8.1,29.9,29.9,0,0,0,2.4-11.2l-4,9.9c2.7-2.1,5.8-3.6,8.6-5.7a12.5,12.5,0,0,0,4-3.6,8.6,8.6,0,0,0-.2-6.3l-1.1-1.3a28.2,28.2,0,0,0-4.6-2.3,34.2,34.2,0,0,0-4-1.7,29.1,29.1,0,0,0-5-1.6c-4,.3-6.5.4-10.4,1.6a79.7,79.7,0,0,0-14.1,6l-5,2.5a30.5,30.5,0,0,1-9.1,3.9l-4.8,2.2c-3.8,1.5-7.6,3-11.5,4.3l1.1-.3-6.7,1.7,1.1-.2-7.8,1.2,1.1-.2a31.8,31.8,0,0,1-10.2-.2l1.1.2-5.2-.8,1.1.2-5.1-1.4,1.1.4-5.4-2.1,1,.5-5-2.7.9.6c-17.1-12.9-22.2-25.4-15.3-37.7a13.9,13.9,0,0,1,3.7-5l-.6.7a20.4,20.4,0,0,1,6.2-4.7l3.4-1.4c5.6-2.3,11.5-3.4,17.3-4.5L696,72.6a46.8,46.8,0,0,0,11.6-3.4,59.1,59.1,0,0,0,7.1-3.6,39.1,39.1,0,0,0,8.3-6.9,44.8,44.8,0,0,0,5.8-9.4,50.3,50.3,0,0,0,2.8-5.7,139.6,139.6,0,0,0-.5-17.1,5.2,5.2,0,0,0-2.3-2.1,34.6,34.6,0,0,0-5-2.7c-2.6-1.2-5.5-3-8.4-2.7s-3.6.2-5.3.5a24.2,24.2,0,0,0-5.9,2,75.5,75.5,0,0,1-7.2,3.2A255.7,255.7,0,0,1,670.3,34,130.3,130.3,0,0,1,654,38.3a25.5,25.5,0,0,0-7.3.7h1.1c-2.8.2-5.7.2-8.6.3a48.7,48.7,0,0,1-7.6-1.5c-5.2-1.8-9.1-5.3-12.8-9.3l.6.9-3-4.2.6,1-2.5-4.4.5.9a13.4,13.4,0,0,1-2-5.8,42.6,42.6,0,0,1-.8-8l.2-5.6c.6-3.4,1.2-6.9,2-10.3a2.1,2.1,0,0,0-.8-1.9,2.6,2.6,0,0,0-2.7,0C609.2-8.6,605.3-7.3,604.9-5.2Z" transform="translate(0 87.6)"/><path class="cls-5" d="M606.6-11.9c-1.7,12.2-3.5,25.9,3.3,37,3.8,6.3,8.5,12,14.9,15.8a40.5,40.5,0,0,0,16.6,5.3c7.5.7,15-.8,22.2-2.5a227.7,227.7,0,0,0,22.9-6.2,157,157,0,0,0,32.7-14.6l-1,.6a17,17,0,0,1,5.1-2.4,7,7,0,0,1,4.3-.4l-5.5-1.6,5.6,2.3L715.4,14,726,21.2l-8.1-6.6,9.1,8.5-6.9-7.4,7.6,9.8-5.4-7.9L728.1,28l-3.9-8.2,4,10.8L725.9,22l2,11.6-.8-8.3.4,11.4.5-8.1-1.6,11.2,1.6-7.5-3,10.6,2.6-7L723,45.6l3.2-6.2-5.9,10,3.8-5.5L713.3,55.1l4.6-3.9a63.3,63.3,0,0,1-24.2,11,92.8,92.8,0,0,1-9.1,2.2c-7.3,1.6-14.9,2.9-22,5.6S650,76.8,646.5,83.3c-7.5,14.2-1.5,31.8,9.4,42.4A56.1,56.1,0,0,0,671,136.2a49.5,49.5,0,0,0,8.9,3.1,44.6,44.6,0,0,0,8.9,1.4,61.2,61.2,0,0,0,22.8-3.6,125.6,125.6,0,0,0,19.6-9.3c5.1-2.9,10.2-6,15.4-8.7a70.1,70.1,0,0,1,10.1-4.4,28.3,28.3,0,0,1,9.2-1.7h-2l6.1.7-10.3-4.4,5.6,3.2-8.9-5.9,9.4,6.9L755,104.2l9.2,12.6-6.5-10.5,2.5,13.3-1-10.3-.5,7.7,1.1-6.5c-1.6,7.5-3.5,15-5.6,22.4l.9-2.3c-2.5,5-5,10.1-7.4,15.1l1-1.9a155.5,155.5,0,0,1-10,16.6,118.8,118.8,0,0,1-10.8,12.7l3.9-2.9a30.8,30.8,0,0,0-5.8,3.5,5.2,5.2,0,0,0-2.8,3,5.6,5.6,0,0,0-.6,4.6A22.7,22.7,0,0,0,727,189a106.5,106.5,0,0,0,9.3,9.7,65.4,65.4,0,0,0,12.8,9.5,49.1,49.1,0,0,0,10.1,4.8,60,60,0,0,0,10.4,3.3,65,65,0,0,0,21.5,1.3l7.2-1.1a66.3,66.3,0,0,0,13.8-4.8c2.7-1.1-4.3-9.1-4.5-9.3a51.5,51.5,0,0,0-5.3-6.1,2.3,2.3,0,0,0-2.8-.5,27.3,27.3,0,0,1-6.9,2.6,60.8,60.8,0,0,1-7.4,1.6,56.5,56.5,0,0,1-13,0,52,52,0,0,1-13.3-3.4l-5.5-2.6a46.4,46.4,0,0,1-11-7.7l.8.8c-2.8-2.8-6.1-5.5-8.6-8.7l.5.9-1.3-2.6.4,1a2.3,2.3,0,0,1-.1-2.6l-.6,1a11.5,11.5,0,0,1,4.5-4.8,90,90,0,0,0,8.7-11.6c5.6-8.7,9.4-18.2,13-27.8l-.9,2.1a63,63,0,0,0,3.7-8.4,20.4,20.4,0,0,0,1-12L761.2,125a29.2,29.2,0,0,1,3.7-2.4,37.7,37.7,0,0,0,3.9-2.6l2.3-2.3a10.1,10.1,0,0,0,.6-4.9,7.5,7.5,0,0,0-2.5-2.8,62.7,62.7,0,0,0-5.9-4.2l-4.5-2.9a10.1,10.1,0,0,0-5.2-2.2l-6.4.5a38.3,38.3,0,0,0-9.5,2.7,69.9,69.9,0,0,0-9.2,4.2c-3.1,1.6-6.2,3.2-9.2,4.9l-4.3,1.8c-2.9,1.6-5.8,3.1-8.8,4.4a61.8,61.8,0,0,1-10.4,3.9,47.7,47.7,0,0,1-13,1.5h1.1l-7.1-1.3,1.1.3-4.8-1.7,1,.5-4.9-2.4,1,.6-4.6-2.9.9.6-4.2-3.6.8.8-3.8-4.1.7.8-3-4.5.6,1-2.3-4.9.4,1-1.4-4.9.3,1.1L654,96v1.1c.4-3.8.8-7.3,2.6-10.7a10.8,10.8,0,0,1,2.1-3.4,17.3,17.3,0,0,1,3.9-4.2l-.9.7,4-3-1,.7c7.6-4.2,15.9-6.4,24.2-8.7l-1.8.4c9.5-2.5,19.5-4.9,28-10a27.5,27.5,0,0,0,6-4.8c9.3-9.4,6.2-15.2,9.4-32.9.6-3.1-4-5.1-6.1-6.6s-4.5-2.9-6.8-4.2a9.1,9.1,0,0,0-5.2-2c-2.4.1-4.9,0-7.1.7a45.4,45.4,0,0,0-7.8,3.5l1.1-.6-9,4.1,1.1-.4c-5.8,2.4-11.7,4.6-17.8,6.6a186.5,186.5,0,0,1-20.9,6.3l1.1-.3c-4.5.5-9,1.8-13.6,1.5a28.1,28.1,0,0,1-7.1-1.5,25.5,25.5,0,0,1-6.3-3.9l.8.8-3.6-3.5.8.9L621,18.7l.7.9a28.9,28.9,0,0,1-3.6-6.7,18.9,18.9,0,0,1-1.6-8.1c-.6-7.3.6-14.1,2-21.1a1.6,1.6,0,0,0-1-1.8,3.9,3.9,0,0,0-3.3.6,46.8,46.8,0,0,0-5.4,3A4.1,4.1,0,0,0,606.6-11.9Z" transform="translate(0 87.6)"/><path class="cls-5" d="M590.7-20.5c-1.7,11.4-3.1,23.3.9,34.3A47.4,47.4,0,0,0,598.5,26a47.1,47.1,0,0,0,8.3,8.4,19.1,19.1,0,0,0,5.2,3.3,35.4,35.4,0,0,0,8.8,3.6c2.2.3,4.5.7,6.7.8a50,50,0,0,0,6.7.1,109.9,109.9,0,0,0,19-3.6c7.3-1.8,14.5-3.5,21.5-5.8a172.5,172.5,0,0,0,25-10.7,43.2,43.2,0,0,0,6.7-3.6l3.3-2a12.3,12.3,0,0,1,3.1-1.4,7.2,7.2,0,0,1,4.6-.9l-2.8-1.7,1.6,1.7-.4-.8a13.3,13.3,0,0,1,1.7,5.2,23.2,23.2,0,0,1-1.1,6.4,29.8,29.8,0,0,1-5.1,10.6,44.3,44.3,0,0,1-8,7.6c-3.5,2.5-7.6,3.8-11.6,5.1s-6.4,1.9-9.6,3c-8.7,2.8-17.6,4.8-26.3,7.5a109.7,109.7,0,0,0-10.9,4,35.7,35.7,0,0,0-7.5,5.4c-9.7,8.6-10.8,23.7-6.9,35.2a49.8,49.8,0,0,0,33.1,31.3c9.4,2.7,18.9,2.4,28.4.1a98.7,98.7,0,0,0,21.6-8.7c9.4-5,18.1-11.5,27.8-15.8a31.8,31.8,0,0,1,9.6-3.1,20.8,20.8,0,0,1,8.6.3l-3.3-2.3,1,1.8-.4-.8a2.1,2.1,0,0,1-.6,3,8,8,0,0,1-4.1,4.2,37.7,37.7,0,0,1-5.4,3.4,41.1,41.1,0,0,1-6,2.8c-3,1.5-4.6,4.9-5.6,8l-3.6,9.9a125.9,125.9,0,0,1-18.2,25.3l2.8-2.3a43.3,43.3,0,0,0-5.4,3.8c-1.4,1.1-3.2,2.7-3.8,4.5s.1,5.3,1,7.4a43.9,43.9,0,0,0,6.9,11.1l5.8,6.3a58.9,58.9,0,0,0,12.8,10,70,70,0,0,0,21.5,8.5,72.2,72.2,0,0,0,19.1,1.5,55.7,55.7,0,0,0,11.4-1.5,69.5,69.5,0,0,0,14.7-5.2c1.1-.4,2.4-1.4,1.9-2.8s-1.6-2.5-2.9-1.9a55.9,55.9,0,0,1-10.3,3.9,39.9,39.9,0,0,1-10.8,2.2,65.4,65.4,0,0,1-21.6-1.3,63.8,63.8,0,0,1-20.1-8.5l-5.7-4.1a118.4,118.4,0,0,1-11.8-13.7l.5.8-1.8-4,.4.9-1.5-4.5.2,1a26.2,26.2,0,0,1-1.1-8.4v1.1a8,8,0,0,1,.9-2.6l-2.8,2.8,1.4-1.1-3.2,2.2a8.7,8.7,0,0,0,4.9-3c2-2,3.8-4.1,5.6-6.2s3.6-4.6,5.3-6.9,3.7-5.5,5.4-8.3l5.1-8.5a17.6,17.6,0,0,1,4.8-7.6,14.8,14.8,0,0,1,8.7-8.8,39.2,39.2,0,0,0,9.1-7.1,6.2,6.2,0,0,0,2-4.8,7.3,7.3,0,0,0-1.5-3.9,7.5,7.5,0,0,0-2.4-1.5c-2.9-1-6.5-.6-9.5-.2-5,.7-9.8,3.1-14.2,5.5s-7.5,4.6-11.2,6.9-9.7,6-14.8,8.7a62.8,62.8,0,0,1-9.9,4.5l-14.7,3.6a40.3,40.3,0,0,1-18.9-1.5l-5.5-1.9a64.3,64.3,0,0,1-10.2-7.1l.5.7a82.8,82.8,0,0,1-8.6-11.8l.4.9-2.5-7.2.2,1-1.7-7.7v1.1l.2-6.2-.2,1.2,1.2-6.4-.4,1.1a25,25,0,0,1,3.3-7.9,21.7,21.7,0,0,1,3.6-5.5l-1,1a59.6,59.6,0,0,1,6.7-6.6l-1.1.9a64.2,64.2,0,0,1,6-4.2,59.4,59.4,0,0,1,5.7-2.7,40,40,0,0,1,5.7-2.3l11.4-2.9-1.8.4c6.9-1.1,13.7-2.2,20.1-4.9a42.9,42.9,0,0,0,17.8-14,37.5,37.5,0,0,0,7.1-18.1c.4-4-.9-8.5-4.3-11s-6.7-.1-9.2,1.3l-3.4,1.9a49.3,49.3,0,0,1-8,4.7,206.5,206.5,0,0,1-24.1,10.5c-5.1,1.7-10.2,3.2-15.4,4.4l-10.8,2.7A61.2,61.2,0,0,1,632,37a24.3,24.3,0,0,1-6-.5,17.5,17.5,0,0,1-8.5-2.8l-5-2.9a69.2,69.2,0,0,1-8.2-8.9l.5.8L601.4,17l.5.8-3-6,.4.9A59,59,0,0,1,597,3.5a60.4,60.4,0,0,1-.3-8.5,101.6,101.6,0,0,1,2.2-19.1,2.1,2.1,0,0,0-2.7-2.4,11.4,11.4,0,0,0-3.1,2.7A12.7,12.7,0,0,0,590.7-20.5Z" transform="translate(0 87.6)"/><path class="cls-5" d="M593.1-13.9c-1.2,7.5-2.4,15.2-1.6,22.8a38.3,38.3,0,0,0,5.2,15.8c3.9,6.5,8.9,12.1,15.7,15.8A38.3,38.3,0,0,0,623,44.3a41.4,41.4,0,0,0,11.1,1,87.7,87.7,0,0,0,11.4-1,149.6,149.6,0,0,0,19.8-4.6c6.9-2.1,13.6-4.4,20.3-7.1a133.5,133.5,0,0,0,16.2-7.7,26.4,26.4,0,0,1,3.7-2,16,16,0,0,1,5.1-2l-1.3.3h2.6l-2.4-.4,4.3,1.2-8.4-3.6,7.5,4.2-5.7-3.6,3.9,3.3L707,18l2.5,3.4-1.4-2.1,1.9,3.8-1.1-2.3a43.4,43.4,0,0,1,1.4,6l-.4-2.6.3,4.6V25.9l-.2,4.9.3-2.9-.8,4.9.6-3-1.5,5.1,1-3-2.3,5.8,1.3-2.9-4.9,9.9,3.8-7.1L695.5,53.1,704.4,43,689.1,56.3l8.4-6.1-11.8,7.3,9.3-5.1-21.4,10,3.6-1.4-9.3,2.9,3.8-1c-5.1,1.4-10.1,2.7-15.1,4.3A61.6,61.6,0,0,0,644,72.3,28.3,28.3,0,0,0,633.8,83a31.4,31.4,0,0,0-2.4,5.7,28.9,28.9,0,0,0-.4,14,44.1,44.1,0,0,0,12.6,22.4,64.6,64.6,0,0,0,12.9,9.8,43.1,43.1,0,0,0,13.2,4.6,57.8,57.8,0,0,0,14.4.2,33.4,33.4,0,0,0,11.2-2.3l7.2-2.5a138.9,138.9,0,0,0,13-6.1c4.8-2.5,9.4-5.3,14.1-7.9a101.9,101.9,0,0,1,12.9-6.2l-1.3.4,6-1.7-1.3.4a20.3,20.3,0,0,1,8.5-.3l-5.5-1.8,3.8,1.7-7.8-4.6,5.2,4.6-4-4.4,1.4,2.6-1.1-3.5-.3,1.8.2-1.3c-1.7,3.6-3,7.5-4.5,11.3l1.2-2.8a34.9,34.9,0,0,0-3.9,7.4c-5.1,12.2-10.6,24.3-16.6,36.1l1.8-3.1-5.7,8.2,2.1-2.9-6.4,7.7,10.3-10c-3.9,3.2-7.8,6.5-11.6,9.9a8.9,8.9,0,0,0-3.2,3.5l-1,1.9a12.7,12.7,0,0,0,.2,3.4c.3,2.6,2,5,3.5,7.1a54.8,54.8,0,0,0,4,4.4,63.5,63.5,0,0,1,5.4,6.1l5.3,5.1a56.8,56.8,0,0,0,9.3,6,75.2,75.2,0,0,0,16.7,7.2,63.5,63.5,0,0,0,10.6,1.8,39.1,39.1,0,0,0,10.8.3l7.2-.7a67.5,67.5,0,0,0,14.1-4.2c2.9-1,.2-3.7-.9-4.7s-3.6-2.9-5.5-4.2a4.9,4.9,0,0,0-3.6-1.3,51.4,51.4,0,0,1-12.4,1.6,50.1,50.1,0,0,1-12.1-1.5,52.3,52.3,0,0,1-18.7-9,63,63,0,0,1-6.8-5.8,30.2,30.2,0,0,1-6.8-9.4c-2.1-4.4-2.9-6.1-1.8-10.4l-.8,1.9c.7-1.7,1.6-3.3,2.2-4.9l.4-2a26,26,0,0,1,2.4-4.7c4.1-7.8,6.7-16.1,9-24.6l-3.2,8.7a61.1,61.1,0,0,1,3.5-6.7,52.1,52.1,0,0,0,4.6-10.2l-1.1,1.2a61.4,61.4,0,0,0,9.7-6.2,11.8,11.8,0,0,0,3.1-3.2,6,6,0,0,0,.7-3.2c.2-1.7-4.3-4.5-5-5s-4-3-6.4-2.9a25.4,25.4,0,0,0-9.9,1,57.6,57.6,0,0,0-5.9,1.8c-6.5,2.5-12.5,6-18.5,9.3a29.6,29.6,0,0,1-7.6,3.1,120.5,120.5,0,0,1-12,4,64.7,64.7,0,0,1-13.1,1.9,66.1,66.1,0,0,1-14.6-2.2l1.4.8-3.8-3.1,1.2,1.1a44,44,0,0,1-7.2-7.1l.9,1.4c-2.3-3.8-4.7-7.3-5.5-11.7a25.9,25.9,0,0,1-.4-4.8,10.4,10.4,0,0,1,.5-4.3l.3-2.3a27.4,27.4,0,0,0,1.5-4,22.5,22.5,0,0,1,5.2-8.1,74.4,74.4,0,0,1,6.8-5.8c3.9-2.8,7.9-4.9,12-7.3s7.4-4.2,11.1-6.5a88.5,88.5,0,0,0,8.8-6.3l-13.4,5.9a53.7,53.7,0,0,0,18.2-7.8,37.3,37.3,0,0,0,6.6-6,38.5,38.5,0,0,0,6.4-8.6,33.8,33.8,0,0,0,3.2-9.9,20.8,20.8,0,0,0,0-6.1,14,14,0,0,0-1.6-3.8,26.6,26.6,0,0,0-4.6-3.5,30.6,30.6,0,0,0-5.1-2.6h-7.4L697,15a85.1,85.1,0,0,0-8.3,3.4c-6,2.6-12.1,5-18.4,7.1l-15,4.1a166.9,166.9,0,0,1-18.4,3.8h1.5c-3.1-.7-6.2-1.3-9.3-2.2a23.7,23.7,0,0,1-9.4-5,25.6,25.6,0,0,1-5.2-5.7,33,33,0,0,1-4.2-8.4,39,39,0,0,1-2-14c.3-8.6,1.9-17.1,3.7-25.5.2-1-.3-1.6-1.4-1.6a11,11,0,0,0-5.2,3c-2.9,2.4-5.8,4.8-8.5,7.4A11.2,11.2,0,0,0,593.1-13.9Z" transform="translate(0 87.6)"/><path class="cls-5" d="M598.3-4.5c-1.7,10.6-3.4,21.9.6,32.2s12,19.9,22.5,24.2,22.9,2.7,34,.6a198.7,198.7,0,0,0,32.1-9,175.4,175.4,0,0,0,19.3-8.7,65.1,65.1,0,0,1,7.3-4.1l-1.3.5a9.7,9.7,0,0,1,6-1.1l-6.3-1,5.6,1.3L711,27.9l4.9,2.3-5.6-3.3,6.4,4.8-5.1-4.2,2.9,3.1-1.7-2.1,2.3,3.6-1.3-2.5,3.6,16.2-1.3-11.2-1.4,16.2L717,39.6l-6.4,16.8,3.8-7.4-6.7,10.2,4.8-6.4-7.9,9,5.6-5.6L701.1,64l6.1-4.5L697.4,66l6.6-3.4a54.4,54.4,0,0,1-16.1,6.9l-4.2,1.1c-4,1.1-8,2.2-12,3.1-8,1.8-16.5,3.4-23.7,7.4-13.4,7.6-16.3,25.8-10.1,38.9s20.5,24.7,36,28.3a37,37,0,0,0,9.4.9,45.1,45.1,0,0,0,11.6-.9,100.7,100.7,0,0,0,17.8-6c10.9-5,21-11.3,31.7-16.7l-1.3.5,6.2-2.5-1.2.5a19.8,19.8,0,0,1,6.8-1.5,14.4,14.4,0,0,1,6.2.1L749.2,119l9.6,6.4-8.2-6.6,1.7,2.6-1.6-3.6v.4c-2.3,7.5-4,14.8-5.9,22.5l2.1-6.4c-2.7,6.3-5.5,12.7-8.4,19l1.2-2.5-4.4,8.5,1.5-2.4a121.9,121.9,0,0,1-8.7,13.7,88.8,88.8,0,0,1-8.5,9.9L725,177c-2.6,1.4-7.4,3.2-9.4,5.8a13.8,13.8,0,0,0-1.7,2.5,13,13,0,0,0-.1,3.4c.2,3.8,3.7,7.7,6.1,10.4,4.5,4.7,8.9,9.4,14.2,13.3a71.2,71.2,0,0,0,32.8,13.3,59.5,59.5,0,0,0,8.4.7,65.8,65.8,0,0,0,13.3-1.1,67.5,67.5,0,0,0,14.1-4.2c3.1-1.1-.3-4-1.4-4.9a71.7,71.7,0,0,0-6.3-4.5,5.1,5.1,0,0,0-3.9-1.4,74.6,74.6,0,0,1-11.6.9,60.3,60.3,0,0,1-13.3-2,67.6,67.6,0,0,1-9.8-3.6c-4.5-1.9-8.4-4.6-12.5-7.2l.9.7-5.2-4.3.9.8-5-4.8.8.9a19.9,19.9,0,0,0-5.6-6.3,6.3,6.3,0,0,1-1.6-2.4l.2,1.1-.3-2.5v1.1a7,7,0,0,1,1.2-3l-1,1.2a21.3,21.3,0,0,1,3.3-3.4,87.6,87.6,0,0,0,8-12.7c4.6-8.9,7.3-18.5,10-28.1l-.9,2.6c1-2.3,1.9-4.6,2.8-7a28.3,28.3,0,0,0,1.3-11.2l-4.4,14.6c4.6-2.2,9.8-4.2,13.2-8.1a5.1,5.1,0,0,0,1.5-2.9,5.4,5.4,0,0,0-.2-3.3l-.9-1.2a24.2,24.2,0,0,0-3.9-2.1l-3.5-1.4a21.3,21.3,0,0,0-4.3-1.3,40,40,0,0,0-9.6,1.5c-1.9.6-3.9,1.3-5.8,2.1-7.2,2.9-14.2,6.6-21.3,10l1.3-.4c-6.9,1.9-13.8,4.3-21,5.4a47,47,0,0,1-9.2.9,50.8,50.8,0,0,1-12.8-1.9l1.3.9a22.7,22.7,0,0,0-4.8-3.3,16.5,16.5,0,0,1-4.5-2.9l-2.8-2-5.8-5.7.8.9-4.7-6.4-2.1-4.5a11,11,0,0,1-1.3-4.7,19.6,19.6,0,0,1,.5-8l-.4,1.1,1.7-4.5-.4,1a11.4,11.4,0,0,1,3.1-4.4,17.2,17.2,0,0,1,4-3.6,39.5,39.5,0,0,1,8.6-4c5.3-1.9,10.7-3.4,16-5.1a93.5,93.5,0,0,0,10.1-3.6,42.6,42.6,0,0,0,7.5-3.5l14.8-12.4a17,17,0,0,0,1.9-1.9,31.6,31.6,0,0,0,4.8-6.7,34.6,34.6,0,0,0,3.6-9.9l.4-3.3a11.1,11.1,0,0,0-.9-5.7c-.6-2-3.2-2.9-4.7-3.7l-3.4-1.7a22.6,22.6,0,0,0-4.3-1.7l-6.9.2-3.9,1.2c-2.5.8-5,1.9-7.5,2.9-6.1,2.4-12.2,4.6-18.5,6.5l-14.9,3.6a87.6,87.6,0,0,1-17,2.9l1.6.2c-4-1.2-7.9-2.1-11.8-3.5l-2.9-1-6.6-3.9,1,.6L619,28.2l.8.9-2.6-3.6.7.9-2.5-3.7.6,1-1.9-4.1.4,1.1L613,16.6l.4,1.1a42.5,42.5,0,0,1-1.2-12.8,110.1,110.1,0,0,1,2.3-15.1c.6-3.4-4.2-1.4-5.3-.9a65.3,65.3,0,0,0-7.5,3.7A6.5,6.5,0,0,0,598.3-4.5Z" transform="translate(0 87.6)"/><path class="cls-5" d="M602.4-19.3a142,142,0,0,0-1.2,17.2,50,50,0,0,0,1.2,12.2,63.6,63.6,0,0,0,4,9.3,47,47,0,0,0,10.2,12.4c4.7,3.9,10.5,7.3,16.5,8.3a50,50,0,0,0,11.6.9,89.6,89.6,0,0,0,12.5-1.8,243.3,243.3,0,0,0,27.7-8c10.2-3.6,20.5-7.7,29.8-13.3a55.8,55.8,0,0,1,6.3-3.5,8.3,8.3,0,0,1,5.7-1.2L723,12.1l4.5,2.2L722.7,11l4.5,3.7-4.4-4.6,5.7,6.7-4.3-7,2.3,5.2-.6-1.9,2.6,11.2V20.2a46.3,46.3,0,0,1-1.2,9.1l.5-1.4-2.3,5,.7-1.2-2.8,4.7.8-1.1-3.2,3.8.9-1-4.3,4.5.9-.9-4.2,3.5,1-.8-4.7,3.1,1.1-.7L707,49.2l1.2-.5-4.9,1.9,1.2-.4-4.8,1.5,1.3-.3-24.9,5.7a153.2,153.2,0,0,0-16.4,4.6,30.5,30.5,0,0,0-13.4,9.6,31.3,31.3,0,0,0-6,14.3l-.4,6.2.9,6.3a24.6,24.6,0,0,0,3.2,9.2,46.4,46.4,0,0,0,5.1,8.6,76,76,0,0,0,6.9,7,49.9,49.9,0,0,0,27.4,12.3,40.8,40.8,0,0,0,12.1-.4l7.1-1.3a19.8,19.8,0,0,0,4.7-1.5c10.8-3.6,20.8-9.5,30.5-15.5a131.1,131.1,0,0,1,13.2-7.4l4.9-2a32.5,32.5,0,0,1,9.2-1.7h-1.4l4.1.5-5.2-3.3,3.9,2.9-5.2-4.6,5.8,5.7-5.8-6.9,2,5.9-.5-1.9a33.2,33.2,0,0,1-2.7,9.3l.7-1.3-3.2,4.5a28.5,28.5,0,0,0-6.3,8.8c-7.1,15.5-11,24.7-26.8,40.5l2.9-2.2a35.5,35.5,0,0,0-6.2,3.8,7.1,7.1,0,0,0-2.1,2.7,14.2,14.2,0,0,0-.5,3.6,25.5,25.5,0,0,0,3.4,7.3,40.9,40.9,0,0,0,4,5.3,73.1,73.1,0,0,0,19.6,16.7,72,72,0,0,0,36,9.7,79.1,79.1,0,0,0,8.4-.6l7.3-1.3a75.8,75.8,0,0,0,14-5.2c2.4-1.1-1.1-5.2-1.6-6s-3-4.5-5.3-3.3c-5.6,2.9-11.3,5.7-17.7,6.5l-37.3-6.6a37.4,37.4,0,0,1-8.7-6c-3.7-3.1-7.5-6.4-10.2-10.4l-1.9-2.9a20.8,20.8,0,0,1-2.3-6.3v.9a6.7,6.7,0,0,1,1.5-3.2l-1,1,1.5-1.2-3.2,1.9a10.2,10.2,0,0,0,3.6-1.8,41.8,41.8,0,0,0,5.9-6,68.4,68.4,0,0,0,6.2-8,129.1,129.1,0,0,0,7-11.1c.7-1.3,1.5-2.6,2.1-3.9a107.4,107.4,0,0,1,10-17.4l-.9,1.1c2.8-2.5,5.5-5.1,8.1-7.9l2.5-2.8a21.5,21.5,0,0,0,1-7.6A3.4,3.4,0,0,0,769,102a18.5,18.5,0,0,0-3.7-3.1c-1.9-1.5-4-3.4-6.6-3.5a22.5,22.5,0,0,0-9.3.8l-4.8,1.5c-5,1.8-9.9,5.3-14.2,8.3s-9.3,6.7-14.1,9.9a57.8,57.8,0,0,1-8,4.7,46.2,46.2,0,0,1-8.8,3.9l-14.4,2.4a44.3,44.3,0,0,1-8.8-1.2c-6.4-1.7-13-4.9-17.5-9.9l-6.8-9.2a19.1,19.1,0,0,1-2.8-8.2,32.1,32.1,0,0,1-.8-8.7,35.5,35.5,0,0,1,2.9-10.6l-.6.9,2.9-4.7-.6.9,3.4-4.3-.7.9a42.4,42.4,0,0,1,7.5-5.9,63.8,63.8,0,0,1,10.1-4.3l-1.5.5c7.4-2.1,15-3.7,22.6-5.1l-1.3.2a64.4,64.4,0,0,0,17.2-4.6,39.4,39.4,0,0,0,6.3-3.6,26.5,26.5,0,0,0,5.8-4.8,23.3,23.3,0,0,0,5.6-6.1,17.7,17.7,0,0,0,3.1-5.5,33.5,33.5,0,0,0,2.3-13.7,9.6,9.6,0,0,0-1.3-5.5l-1.7-2.6a16.9,16.9,0,0,0-9.7-7.5,13.9,13.9,0,0,0-7.3-.6A23.5,23.5,0,0,0,708,6.6l-3.6,2.5,1-.6-9.2,5.2,1-.6-9.5,4.7,1-.5-9.8,4.2,1.1-.4-11.1,4.1,1.1-.4c-6.3,2.1-12.5,4.4-18.9,6a19.3,19.3,0,0,1-14.3-1c-6.2,1.1-11.4-.3-15.5-4.4a42.8,42.8,0,0,1-6.3-7.2c-2.9-4-4.3-8.2-5.8-12.8v.9L608.6,0V-4.9c.3-5.3.7-10.4,1.4-15.7.2-1.4-.5-2.9-2.2-2.8a8.5,8.5,0,0,0-2.9,1.7A7.8,7.8,0,0,0,602.4-19.3Z" transform="translate(0 87.6)"/><path class="cls-5" d="M594.3-7.8c-1.7,10.7-3.4,22,.6,32.4s11.8,19.6,22.3,23.8c5.1,2.1,10.6,2.7,16.1,2.8a107.4,107.4,0,0,0,17-1.5,187.8,187.8,0,0,0,32.2-9.1A151.3,151.3,0,0,0,701.8,32a74.3,74.3,0,0,1,7.3-4l-1.3.4a11.3,11.3,0,0,1,6-1.1L708,26.2l5.2,1.3-8.8-3.6,10.9,6.9-8-6.2,2.7,3-1.6-2.1,2,3.5L709,26.6c.6,1.9,1.1,3.8,1.8,5.6l-.7-2.9.9,11.2V32.8l-5.2,19.6,4.8-12.1L703.2,55l6.5-11.2-9.4,13.5,5.8-7.8-8.9,9.9,6.8-6.8-10,8.7,7.8-5.8L690.5,63l8.4-4.7-18.5,8.5,3.2-1.2a81.5,81.5,0,0,1-11.8,3.9L666.1,71c-3.5.9-6.9,1.8-10.3,3s-7.4,2.3-10.7,4.3a26.5,26.5,0,0,0-7.8,6.7c-3.1,4.4-5.5,9.4-5.9,14.8v6a23.6,23.6,0,0,0,2.1,8.4,39.2,39.2,0,0,0,7.4,13,67.5,67.5,0,0,0,8.6,8.3,58.5,58.5,0,0,0,9,5.5l5.3,2.3a43.2,43.2,0,0,0,14.6,2.6,45,45,0,0,0,11.6-.6l7.3-2a103.8,103.8,0,0,0,16.9-7c5-2.4,9.7-5.1,14.6-7.8a132.8,132.8,0,0,1,15.6-7.7l-1.2.5a23.2,23.2,0,0,1,6.8-1.6,14.4,14.4,0,0,1,6.2.1L745,116l9.2,6.3-8.2-7.9.2,1.6.9-2.2a1.5,1.5,0,0,0-1.2.7,185.8,185.8,0,0,0-5,19.5l2.6-8.6c-4.3,10-8.4,20.1-12.5,30.2l1.4-3.1-4.7,8.9,1.7-3-5.4,8.4,2.1-2.8a96.9,96.9,0,0,1-10.3,12.7l10.7-8.2a173,173,0,0,0-14.2,10,10.4,10.4,0,0,0-1.7,2.4c-1.1,2.1-.7,4.6.1,6.7,1.8,4.5,5.1,7.7,8.4,11.1l5.2,5.4c1.8,1.7,3.7,3.3,5.6,4.9a85.1,85.1,0,0,0,11.6,7,67.1,67.1,0,0,0,7.8,3.2,79.8,79.8,0,0,0,20,4,70.6,70.6,0,0,0,14.5-.8,75,75,0,0,0,14-4.1c3-1.1-.5-4.1-1.5-4.9a69,69,0,0,0-6.3-4.2,5,5,0,0,0-3.9-1.3,55.2,55.2,0,0,1-12.2.8l-5.7-.8a50.9,50.9,0,0,1-18.4-7,56.4,56.4,0,0,1-12.6-10.2,25.9,25.9,0,0,1-4.8-6.1c-1.1-2.3-2.3-4.5-3.5-6.7l.5,1.1-.8-2.4.4,1.2a10.4,10.4,0,0,1,.7-3.9,8.4,8.4,0,0,1,1.2-3.1q2-3.7,4.2-7.5a106.9,106.9,0,0,0,5.3-13.2c1.7-5.6,2.9-11.3,4.5-17l-4.4,11.6a100.5,100.5,0,0,1,7.6-13.6l-1,.5c3.9-2,8-3.8,10.9-7.2a3.2,3.2,0,0,0,1.2-2.2,4.2,4.2,0,0,0-.2-3.8c-.5-1.7-3-2.5-4.5-3.2l-3.2-1.4a19,19,0,0,0-4-1.4,40,40,0,0,0-9.7,1.5c-1.9.6-3.9,1.2-5.8,2-7.4,2.9-14.5,6.8-21.7,10.3l1.3-.4c-7.2,2.1-14.3,4.6-21.7,5.6a52.1,52.1,0,0,1-9.7.6,55.5,55.5,0,0,1-13.3-2.9l1.4.9c-3.7-3.4-7.7-6.6-10.5-10.9l-2.9-5.5a60.8,60.8,0,0,0-2.1-6l.3,1.1a41.7,41.7,0,0,0-1-6v1.2c.1-1.7.2-3.5.4-5.3a9.6,9.6,0,0,1,1.2-4.6l-.5,1.1,2-4-.6,1a33,33,0,0,1,10.6-9.4c5-2.7,10.3-4.9,15.5-7.3a119.7,119.7,0,0,0,10.8-5.3l6-3.9a54.5,54.5,0,0,0,9.6-9.6l-10.3,8.1a28.5,28.5,0,0,0,11.2-7.2,30.7,30.7,0,0,0,2.5-2.6,35.6,35.6,0,0,0,6.5-8.5,30.9,30.9,0,0,0,3.4-9.8l.4-3.2a9.8,9.8,0,0,0-1.1-5.6c-.7-1.9-2.9-2.7-4.4-3.6a34.1,34.1,0,0,0-3.3-1.7,17.6,17.6,0,0,0-4-1.6l-6.8.2a26.4,26.4,0,0,0-4,1.2c-2.6.8-5,1.9-7.5,2.9a183.9,183.9,0,0,1-18.9,6.6c-5,1.4-10,2.6-15.1,3.7a96.3,96.3,0,0,1-17.7,3h1.6c-5.9-1.8-12.2-3.5-16.9-7.8a26.2,26.2,0,0,1-4.6-4.8,38.1,38.1,0,0,1-4-7.1A34.5,34.5,0,0,1,611,6.6c-.3-8.3,1.3-16.6,3-24.7.9-4.1-6.1.2-6.4.4-3.2,1.9-6.2,3.8-9.1,5.9A10.8,10.8,0,0,0,594.3-7.8Z" transform="translate(0 87.6)"/><path class="cls-5" d="M598.2-21.9c-.7,3.7-1.2,7.5-1.6,11.3a68.8,68.8,0,0,0,.4,12,41.3,41.3,0,0,0,5.7,16.3,62.9,62.9,0,0,0,6.7,8.7,51.6,51.6,0,0,0,8.9,7.3,46.2,46.2,0,0,0,9.2,3.9l3.6,1.2a61.2,61.2,0,0,0,13.5.7,83.3,83.3,0,0,0,13.1-2.2c5.2-1.4,10.5-2.8,15.8-4a177.1,177.1,0,0,0,29.7-11.1,88.4,88.4,0,0,0,13.1-7.4,27.8,27.8,0,0,1,6.7-3.3l-1,.3,2.6-.2-1.2-.4,2.3,1.3-2.8-2.3,4.7,5.7-.8-2.5a38.9,38.9,0,0,1-3,14.3,22.5,22.5,0,0,1-3.5,6.2,20.3,20.3,0,0,1-4.8,4.9,46.2,46.2,0,0,1-14.7,8.6,66.9,66.9,0,0,1-7.7,2l-7.7,1.3a56.2,56.2,0,0,1-9.6,2.4c-4.7.9-9.4,2-14,3.2s-11.7,3.9-16.4,8.1a32.2,32.2,0,0,0-7.9,12,23.9,23.9,0,0,0-1.7,7,22,22,0,0,0,.2,9.9,38.2,38.2,0,0,0,2.4,9.4l3.2,5.9a45,45,0,0,0,9.4,11,60.1,60.1,0,0,0,10.9,7.8,55.9,55.9,0,0,0,11.9,4.8c14.5,3.9,29.9.9,43.2-5.6a186.3,186.3,0,0,0,16.9-9.8l10.9-7a74,74,0,0,1,9.9-4.6l-.9.2a22.9,22.9,0,0,1,6.9-1.4,13.5,13.5,0,0,1,6.3.3l-4.3-2.9,3.3,3.8-1.5-2.5,1.1,2.9.2-2-2,3.5.5-.7a25.7,25.7,0,0,1-5.6,5.8,22.2,22.2,0,0,1-7.1,4.2l-6.7,7.5a12.9,12.9,0,0,0-1.6,8.5l.8-1.9c-1.9,3.1-3.9,6.1-5.9,9.2l-5.6,8.8a133.4,133.4,0,0,1-12.8,14.3l1.8-1.1c-3.5,1.3-8.8,3.9-8.3,8.5a5.2,5.2,0,0,0,1,2.7,22.6,22.6,0,0,0,3.4,5.6,68.9,68.9,0,0,0,6.2,7,77.7,77.7,0,0,0,48,25.1,84.6,84.6,0,0,0,8.7.5,78.9,78.9,0,0,0,15.3-1.8,68.1,68.1,0,0,0,14.5-5.3c1.7-.7,1.5-2.1.8-3.5s-1.6-2.2-3.3-1.4c-6.6,2.9-13.3,5.8-20.6,6.4l-34.8-5a39.8,39.8,0,0,1-12.5-7.8,38.6,38.6,0,0,1-9-7.6c-2-2-3.9-4-5.7-6.1l-2.6-3.2a33.4,33.4,0,0,1-3.8-6.9l.2.8.4-1.9-.5.8c.8-1.1,2.7-1.6,3.9-2.5a93.5,93.5,0,0,0,6.9-7.2,82.7,82.7,0,0,0,6.5-7.9l3.8-5.9,7.2-11c1.4-2.6,1.2-5.4,1.6-8.4l-.5,1.7,9.9-8.4,3.8-2.6,4.9-4c2.3-2.2,5.3-4.7,3.8-8.1a12.6,12.6,0,0,0-5.5-6.3,11.5,11.5,0,0,0-5.5-1,27.6,27.6,0,0,0-7.6,1.4c-5.4,1.4-10.2,4.3-14.7,7.5l-12.2,8.8a85.2,85.2,0,0,1-10.6,7.1l-6.6,3-6.8,2.4-7.6,1.5-47-22.1c-2.9-4.3-3.9-9.1-4.3-14.1a11.6,11.6,0,0,1,.3-6.4,39.9,39.9,0,0,1,2.5-9.6l-.3.9c2.3-3.9,4.5-7.7,8.1-10.6a41.8,41.8,0,0,1,9.3-5.6l-1.3.6a48.3,48.3,0,0,1,8.9-2.8l3.9-.8a97.6,97.6,0,0,0,11-2.4l3-.4c9.3-1.2,18.4-3.6,26.1-9a44.3,44.3,0,0,0,9.7-8.6,38.9,38.9,0,0,0,6.1-10.4,32.2,32.2,0,0,0,1.8-5.8,26.3,26.3,0,0,0,.9-5.5,11.1,11.1,0,0,0-1.9-4.3A15.4,15.4,0,0,0,727.1,8l-1.4-1a16.2,16.2,0,0,0-4.2-2l-2.7.3a13.8,13.8,0,0,0-3.9,1.8l-2.9,2a58.8,58.8,0,0,1-11.7,7.3l-8.8,4.4c-11.5,4.3-23.2,8.2-35,11.7a64.9,64.9,0,0,1-15.2,2.2c-8.5.4-16.3-2.3-23.7-7.9a27.5,27.5,0,0,1-5.6-5.7,40.9,40.9,0,0,1-4.5-6.4A67.9,67.9,0,0,1,603.6,6l.3.8L602.8.6a43.3,43.3,0,0,1-.4-8.8c0-4.9,1-9.7,1.9-14.5a2.6,2.6,0,0,0-2.4-2.6C600.6-25.2,598.4-23.1,598.2-21.9Z" transform="translate(0 87.6)"/><path class="cls-5" d="M589.1-17.6c-1.9,11.5-3.5,23.7.8,34.9a48.8,48.8,0,0,0,11.8,17.5,41.1,41.1,0,0,0,10.1,6.9l6.2,2.5a49.2,49.2,0,0,0,10.2,1.4,16.8,16.8,0,0,0,6.7-.1c2.2-.2,4.4-.5,6.5-.9,5-1,9.8-2.3,14.6-3.5a190.2,190.2,0,0,0,25.9-8.2,173.5,173.5,0,0,0,19.5-9.2l5.3-3.1a13.3,13.3,0,0,1,3.4-1.6,8,8,0,0,1,4.6-1l-2.9-1.4,1.6,1.7-.5-.7a11.7,11.7,0,0,1,1.6,5.1,26,26,0,0,1-1.1,6.2,24.3,24.3,0,0,1-4.9,9.6,32.7,32.7,0,0,1-3.5,3c-1.8,1.5-3.6,2.9-5.5,4.2-3.9,2.4-8.3,4.2-12.4,6.3l1.8-.9-4.6,1.8L659.7,61c-5.2,1.6-10.2,2.9-15.2,4.9a28.3,28.3,0,0,0-14.7,13.2,33.1,33.1,0,0,0-3.2,10.1,34.8,34.8,0,0,0,1.3,14.7,46.2,46.2,0,0,0,4.9,11.4,19.5,19.5,0,0,0,3.7,5.3,47.8,47.8,0,0,0,6.8,7.4l5.5,4,5.8,3.5,6.1,2.4,6.3,1.8c6.1,1.4,12.3.7,18.3-.4a73.7,73.7,0,0,0,15.2-4.5c9.7-4,18.6-9.7,27.7-15a88.7,88.7,0,0,1,13-6.7,27.4,27.4,0,0,1,14.8-1.8l-2.5-1.9c.9,1.5.9,2.1.6,3.9l1-1.6-9.6,7.7a15.9,15.9,0,0,1-5.4,2.6c-3.1,1-2.6,1-4.7,4.9s-3.8,8-5.7,11.9a80.5,80.5,0,0,1-8.1,13.5,72,72,0,0,1-11,14.8l5.4-5.3a62.4,62.4,0,0,0-8.4,6.8c-1.2,1.2-2.6,2.8-2.8,4.6s.8,5.7,2.1,8.2a52.1,52.1,0,0,0,8.5,11.8,61.3,61.3,0,0,0,8.5,8.4l6.6,4.6a42.7,42.7,0,0,0,10.6,5.5,65,65,0,0,0,11.2,4,67.9,67.9,0,0,0,22.9,1.4l7.6-1.2a75.2,75.2,0,0,0,14.7-5.1,2.4,2.4,0,0,0,1.5-3.1c-.5-1.1-1.8-2.3-3.1-1.8a75.8,75.8,0,0,1-13.9,4.7,57.1,57.1,0,0,1-28.8-1.1,94.5,94.5,0,0,1-14.2-6.3l.8.5-7.3-5.1.7.6-6.9-5.8.7.7-5.5-6.6.6.9-4.9-7.3.5,1-1.3-4,.3,1.1-.9-4.3v1.2l-.3-4.6v1.3l.4-4.7-.3,1.3.7-2.5-.4,1.3.6-1.6-8.2,6.4a14.4,14.4,0,0,0,5.4-3,28.6,28.6,0,0,0,3.8-4c2.1-2.5,4.1-5,6-7.7,7-9.7,12.2-20.5,17.8-31.1l-.7.5a60.8,60.8,0,0,0,15.2-9.3,8.8,8.8,0,0,0,2.1-2.2,4.4,4.4,0,0,0,1.6-2.2,6.7,6.7,0,0,0-1.1-6.1c-1.6-2-4.2-1.9-6.6-2.1a31.2,31.2,0,0,0-10.1,1.4,84.7,84.7,0,0,0-9.7,4.4l-11.2,6.9a179.3,179.3,0,0,1-18.2,10.1,80.4,80.4,0,0,1-13.8,4.8,63.6,63.6,0,0,1-15.1,1.7l.8.2L668,134l.8.2a63.3,63.3,0,0,1-12.5-5.5l.7.5-5.9-4.6.7.6-5.6-5.3.7.7-4.1-6.2.5.9-3.5-6.8.4,1.1-1.4-6.2.2,1.2-.6-6.7v1.3l.6-5.4,1.2-4.2,1.4-4.1a31.5,31.5,0,0,1,3.3-5.3c3.2-4.7,7.7-8.1,12.3-11.2l-1.2.8a129.6,129.6,0,0,1,22-9.3l-2.2.5a83.1,83.1,0,0,0,16.2-3.9,51.3,51.3,0,0,0,7.9-3.7,54.4,54.4,0,0,0,7.3-5.3A30.4,30.4,0,0,0,716,37.2a45.5,45.5,0,0,0,2.7-7.3,20.7,20.7,0,0,0,.9-8.9,11,11,0,0,0-3.9-7.1c-2.2-1.7-4.9-.9-7.3,0a21.6,21.6,0,0,0-3.4,1.7,106.6,106.6,0,0,1-23.2,10.1,86.8,86.8,0,0,1-26.9,10.4l-8.2,2a75.6,75.6,0,0,1-11.6,1.8,13.5,13.5,0,0,1-6.3-.3,51.9,51.9,0,0,1-9.6-2.4l.8.5a62.8,62.8,0,0,1-11.8-8l.7.7-4.2-5,.7.9-3.8-5.5.6.9-2.6-5.3.5,1L598,11.7l.4,1.2-1.3-5.6.3,1.3-.8-5.7V-1.2l.2-7.1V-7c.6-5.5,1.4-10.7,2.4-16.1a2,2,0,0,0-.3-2.3,1.9,1.9,0,0,0-2.3-.1,19.5,19.5,0,0,0-4,3.6A23.8,23.8,0,0,0,589.1-17.6Z" transform="translate(0 87.6)"/></g><g class="cls-6"><path class="cls-7" d="M399.4,240.8c-2.3-23.8-1.9-48.9,6.1-70.5,13.9-38,51.1-57.5,82.4-46.2s54.8,50,58.7,91.7" transform="translate(0 87.6)"/><path class="cls-5" d="M411.6,226.4a192.6,192.6,0,0,1,.1-34.8,118.3,118.3,0,0,1,3.1-16.6,80.8,80.8,0,0,1,5.7-15.1l-.8,1.7a58.8,58.8,0,0,1,6.8-10.5,64.9,64.9,0,0,1,8.2-8.4A55.9,55.9,0,0,1,454,132.2l-3.6,1,8.7-2.4-3.6.8,8.8-1.6-3.7.4,8.9-.7h-3.7l8.8.2-3.7-.2,8.7,1.1-3.7-.6,8.6,1.9-8.9-2.5,13.6,4.4-8.7-3.3,13.1,5.7-8.3-4.2,12.6,7.2-8-5,12.2,8.5-7.6-5.9,11.6,10-7.1-6.7,10.8,11.1-6.4-7.4,9.9,12.2-2.5-3.2,5.7,8.4-2.2-3.5,5.2,9-1.9-3.7a173.5,173.5,0,0,1,8.2,18.7,139.2,139.2,0,0,1,4.8,16.4c1,4.7,1.8,9.3,2.4,14,1.1,8,1,15.9,1,23.9.3,1.2,1,1.4,1.9.7a12.8,12.8,0,0,0,3.3-5.9c1.6-4,3-8.1,4.3-12.2a13.1,13.1,0,0,0,1.2-6.7,177.3,177.3,0,0,0-5.4-22.9,124.5,124.5,0,0,0-10.9-24.1,102.9,102.9,0,0,0-18.7-23.9c-8.6-7.9-18.9-14.7-30.6-17.1a56.6,56.6,0,0,0-32.8,2.5,72.4,72.4,0,0,0-15.5,8.3,73.4,73.4,0,0,0-13.5,12.6c-8.2,9.5-13.5,21-16.8,33-2.9,9.9-3.9,20.4-4.3,30.7s-.4,20-.1,30c.1,4.2,5.8-1.9,6-2.1,2.4-2.5,4.6-5.2,6.8-8A9.3,9.3,0,0,0,411.6,226.4Z" transform="translate(0 87.6)"/><path class="cls-5" d="M414.4,217.9c-.5-5.9-.8-11.6-.8-17.4a171.6,171.6,0,0,1,1.5-21.6,101.2,101.2,0,0,1,3.7-16.3,40.1,40.1,0,0,1,2.9-7.5,39,39,0,0,1,4.8-9l-1.3,1.7,5-6.6-1.4,1.6,5.5-5.9-1.5,1.5,5.8-5.4-1.5,1.4a69.8,69.8,0,0,1,11.8-7.6,51.2,51.2,0,0,1,12.8-4.5,73.4,73.4,0,0,1,10.5-1.2c5.3-.1,10.3,1.2,15.3,2.6l-3-1.2,7.9,3.2-2.9-1.4,7.4,4-2.6-1.6,7,4.7-2.4-1.8,6.7,5.6-2.2-2.1,6.2,6.3-2-2.2,5.7,6.9-1.7-2.4,5.1,7.4-1.5-2.4,4.7,7.8-1.3-2.6c3.3,6.7,6.6,13.2,9.1,20.3,1.8,5.4,3.3,10.8,4.6,16.4a145.2,145.2,0,0,1,2.9,17.3,192.9,192.9,0,0,1,.5,21.5c0,2.6,1.8,3.1,3.4,1.2a37.5,37.5,0,0,0,2.8-6.5,40.7,40.7,0,0,0,2-6.8,152.4,152.4,0,0,0-2.8-22.4,139,139,0,0,0-4.8-17.9c-4.2-12.3-9.9-24.3-17.8-34.7s-16.8-18.1-28.1-22.9A54.7,54.7,0,0,0,463,113l-7.1,1a62.7,62.7,0,0,0-13.4,4.7,67.5,67.5,0,0,0-16.8,10.7A78.8,78.8,0,0,0,411.9,145a97.6,97.6,0,0,0-8.4,16,106.5,106.5,0,0,0-6,20.9,147.5,147.5,0,0,0-2.5,27.3v9.1a109.5,109.5,0,0,0,0,16.2c.1,4.5,6.5-2,6.8-2.3,3.1-2.9,6-5.9,8.9-8.9A13.6,13.6,0,0,0,414.4,217.9Z" transform="translate(0 87.6)"/><path class="cls-5" d="M416.4,225.1a126.7,126.7,0,0,1-.8-17.4,169.5,169.5,0,0,1,.9-17.5,118.3,118.3,0,0,1,3.1-16.6,84.5,84.5,0,0,1,5.7-15.2l-1.1,2.1,4.4-7.5-1.2,2a83.5,83.5,0,0,1,7.5-9.4,59.4,59.4,0,0,1,11.1-8.9,49.9,49.9,0,0,1,9.8-4.9,62.2,62.2,0,0,1,12.7-3.2l-4.6.3,9.8-.7h-4.6l9.7.3-4.6-.5,9.6,1.2-4.5-.9,9.4,2.2-4.4-1.3,9.1,3.2-4.2-1.8,8.7,4.1-4-2.2,8.3,5.1-3.8-2.6,8.1,6.1-3.5-3,7.6,7-3.2-3.3,7,7.7-2.8-3.6a115,115,0,0,1,9.7,13.5,120.3,120.3,0,0,1,5.8,11.3c4.1,9,6.8,18.3,9.2,27.9l-.5-2.2,1.7,9.2-.3-2.2,1.3,9.2-.3-2.2.9,9.4v-2.2l.3,9.5v-2.2l-.2,9.5c.3,1.1.9,1.4,1.9.8a11.4,11.4,0,0,0,3.6-5.3c1.8-3.7,3.5-7.5,5-11.3a12.1,12.1,0,0,0,1.5-6.2,148.6,148.6,0,0,0-3.8-19.9,141.4,141.4,0,0,0-6.4-19,111.4,111.4,0,0,0-20.8-32.1,75.9,75.9,0,0,0-28.9-19.5c-10.5-3.9-22.5-4.1-33.3-1.4-20.7,5.3-37.4,20.6-47.1,39.3-6,11.7-9.3,24.3-11,37.4a208.8,208.8,0,0,0-1.3,22.4c-.1,8.5-.2,17,0,25.5.2,4.7,6.9-3.8,6.7-3.5,2.8-3.4,5.4-6.8,7.9-10.4A14.8,14.8,0,0,0,416.4,225.1Z" transform="translate(0 87.6)"/><path class="cls-5" d="M424.9,228.6a190.3,190.3,0,0,1-.3-30.2,87.1,87.1,0,0,1,1.5-12.5,84.1,84.1,0,0,1,4.4-15.6l-.8,1.8,3.9-8.9-.9,1.7,4.1-6.9-1,1.8c8.7-13.3,22-21.4,39.6-24.3l-7.4.9,17.3-.8-7.7-.7,12.5,1.5-7.8-1.5,12.5,2.8-7.7-2.4,31,18.8-2-2.1,5.6,6.7-1.8-2.2,5,7.2-1.4-2.4a159,159,0,0,1,9.8,19.3,149.8,149.8,0,0,1,6,19.4,166.7,166.7,0,0,1,3.3,21,199.9,199.9,0,0,1,.1,21.9c-.1,1.8,1.2,3,3,1.9a20.8,20.8,0,0,0,3.2-4,19.1,19.1,0,0,0,2.3-4.5,125.2,125.2,0,0,0-.3-16.2,119.2,119.2,0,0,0-1.5-12,130.6,130.6,0,0,0-7.4-26.7c-5.5-13.6-13.2-26.6-24.4-36.3-9.6-8.4-21.8-14-34.7-14.4a55.6,55.6,0,0,0-20.6,2.9,61.9,61.9,0,0,0-28.1,19.7c-18.1,22.8-17.8,53.5-16.4,81.1a2,2,0,0,0,3.2,1.7,21.6,21.6,0,0,0,2.4-3.5A14.9,14.9,0,0,0,424.9,228.6Z" transform="translate(0 87.6)"/><path class="cls-5" d="M423.3,223.8c-.5-5.8-.7-11.6-.7-17.5a145,145,0,0,1,1-17.4l-.3,1.8,1.5-10.2-.3,1.8c1.7-7.7,3.5-16.1,7.4-23.1l3.2-5.4a55.5,55.5,0,0,1,7.6-9.2l-2.8,2.6,7-6.4-3,2.3,7.6-5.6-3.2,2.1,7.9-4.8-3.4,1.7,8.3-4-3.5,1.5,8.5-3.2-3.7,1.1,8.8-2.3-3.8.7,9-1.5-3.8.4,8.9-.6h-3.8l8.9.4-3.8-.4,8.7,1.3-3.6-.8,8.5,2.2-3.6-1.1,8.2,3.1-3.3-1.5,7.8,4-3.1-1.8,7.3,4.9-2.8-2.2,7,5.8-2.5-2.4,6.5,6.6-2.2-2.7a100.1,100.1,0,0,1,9.4,12.3,106.6,106.6,0,0,1,6.1,11,140.9,140.9,0,0,1,7.1,18.7,145.5,145.5,0,0,1,4.5,20.6,156.4,156.4,0,0,1,1.1,29,2,2,0,0,0,.8,2.3,1.9,1.9,0,0,0,2.3-.5,39.5,39.5,0,0,0,6-10.2,168.1,168.1,0,0,0-1.2-20.1c-.4-3-.8-5.7-1.3-8.7a132.3,132.3,0,0,0-4.8-18.5c-3.6-10.3-8.1-20.5-14.5-29.3s-15.1-17.9-25.5-23.4a55.9,55.9,0,0,0-26.3-6.4c-19.1.2-36.7,10.6-48.6,25.1A79.4,79.4,0,0,0,417.2,171a118.8,118.8,0,0,0-5.4,25.7c-.6,5.9-.8,11.8-.9,17.6-.1,8.5,0,17.1.2,25.6.2,1,.8,1.3,1.8,1.1a8.8,8.8,0,0,0,3.6-3.8q2.7-4,5.1-8.4A8.4,8.4,0,0,0,423.3,223.8Z" transform="translate(0 87.6)"/><path class="cls-5" d="M410.8,213.3a75.4,75.4,0,0,1-1.2-17.1,145,145,0,0,1,1-17.4v1.1l1.5-9.5-.2,1a90.4,90.4,0,0,1,4.7-15.9,49.8,49.8,0,0,1,6.9-12.6,51.9,51.9,0,0,1,8.4-9.1,60.8,60.8,0,0,1,9.7-6.9l-1.1.6,6.4-3.2-1,.5,6.5-2.4-1,.3a61.5,61.5,0,0,1,13.4-2.2,24.5,24.5,0,0,1,11.9,2.1,23.5,23.5,0,0,1,11.7,3.4,57.7,57.7,0,0,1,14.3,11.8l6.7,9.5a59.8,59.8,0,0,1,4.2,7.9,133.8,133.8,0,0,1,9.6,26.8l3.7,21.3.5,6.9a151.3,151.3,0,0,1-.2,20.2,2.2,2.2,0,0,0,2.8,2.3c1.7-.3,2.1-3.1,2.1-4.5a173.6,173.6,0,0,0-.2-20.4A147.4,147.4,0,0,0,529,188a143.5,143.5,0,0,0-10.1-32,95.2,95.2,0,0,0-9.2-16.5l-3.8-4.8c-2-2.2-4.2-4.2-6.4-6.2a49.4,49.4,0,0,0-22.4-11.4c-18.8-4.4-38.8,2.5-52.7,15.4a45.8,45.8,0,0,0-6.9,7.7,46.8,46.8,0,0,0-5.9,8.6,91.7,91.7,0,0,0-8.5,24.9c-.9,4.8-1.5,9.6-2,14.4a122.7,122.7,0,0,0-.5,13.6,73.4,73.4,0,0,0,.8,16.2,1.9,1.9,0,0,0,1.3,1.7,2.8,2.8,0,0,0,2.7-.8,28.7,28.7,0,0,0,4-3.1A2.8,2.8,0,0,0,410.8,213.3Z" transform="translate(0 87.6)"/><path class="cls-5" d="M407.9,223.1c-.1-8.7-.6-17.6,0-26.3l.7-8.7a105.7,105.7,0,0,1,3.2-16.6l-.4,1.4,3-9.1-.5,1.3a55.1,55.1,0,0,1,6.5-12.8,43.8,43.8,0,0,1,5.9-7,33.6,33.6,0,0,1,6.5-6,59.4,59.4,0,0,1,9.6-6l-2.1.9,7.1-3.1-2.1.8,7.3-2.4-2.2.6,7.4-1.7-2.2.4,7.5-.9-2.3.2,28.9,7.1-5.6-3.2,9.7,6.3-5.4-3.9,9.4,7.3-5.2-4.5,9,8.4-4.8-5.1c14.9,16.8,19.5,27.1,25.8,45.1l-.9-2.9,2.7,9.3-.8-2.9,2.3,9.6-.6-3.1a176,176,0,0,1,3,20.4,176.3,176.3,0,0,1,.4,17.8,1.8,1.8,0,1,0,3.4.9,54.7,54.7,0,0,0,2.6-8.1,57.9,57.9,0,0,0,1.6-8.3,166.7,166.7,0,0,0-4.7-25,152.4,152.4,0,0,0-7-19.6,124.7,124.7,0,0,0-16.7-27.5,60.8,60.8,0,0,0-14.3-13.4,76.4,76.4,0,0,0-9.2-5.4,48,48,0,0,0-11.7-3.6c-18.6-3.7-38.1,3.7-51.6,16.5-9.1,8.5-15.2,19.2-19.1,30.9a121.1,121.1,0,0,0-5.2,26c-.5,6-.7,12-.7,18a139.6,139.6,0,0,1-.5,17.1,1.4,1.4,0,0,0,1.4,1.5,5.8,5.8,0,0,0,3.6-1.9,66.3,66.3,0,0,0,5.3-5.3A4.9,4.9,0,0,0,407.9,223.1Z" transform="translate(0 87.6)"/><path class="cls-5" d="M417.7,229.2a61,61,0,0,1-1.3-16.5,125.4,125.4,0,0,1,.9-17.3,98.6,98.6,0,0,1,3.1-16.2,84.8,84.8,0,0,1,5.8-14.7l-.7,1.3,4-6.5-.9,1.3a51,51,0,0,1,5.6-6.7c7.6-8.3,17.5-13.6,29.6-15.8l-5.3,1.1L503.9,151l-6.1-4.6,9.9,8.4-5.7-5.4,9.3,9.7-5.3-6.2a107.6,107.6,0,0,1,18.7,29.5l-1.3-2.8,3.5,8.9-1-2.9a142.2,142.2,0,0,1,4.8,15.7c1.1,4.5,2,9,2.7,13.6a169.6,169.6,0,0,1,1.4,28.5c-.1.8-.2,2.2.7,2.6h1.2a4.7,4.7,0,0,0,2.1-2.5,57.9,57.9,0,0,0,3.7-7.5c.9-2.2,2.1-4.5,1.9-6.9-1.1-10.4-2.7-20.7-6-30.7-5-15-12.1-29.8-22.7-41.6-6-6.6-12.5-13.1-20.3-17.5a49.5,49.5,0,0,0-21.9-6,57.3,57.3,0,0,0-39.3,13.9,62.6,62.6,0,0,0-18.4,27.4,107.4,107.4,0,0,0-5.3,24.4,146.3,146.3,0,0,0-.7,17.5,64.9,64.9,0,0,0,1.3,15.9,2.3,2.3,0,0,0,3,2,7.7,7.7,0,0,0,2.1-2.3A8.9,8.9,0,0,0,417.7,229.2Z" transform="translate(0 87.6)"/><path class="cls-5" d="M421.7,215.7a195.4,195.4,0,0,1-.1-30.6,90.1,90.1,0,0,1,1.7-12.7,94.8,94.8,0,0,1,4.4-15.8l-.7,1.7,4-9-.9,1.7a70.2,70.2,0,0,1,6.9-10.2,59.3,59.3,0,0,1,8.4-8.2,58.2,58.2,0,0,1,16.9-9.3,52.6,52.6,0,0,1,18.4-3,54.5,54.5,0,0,1,10.5,1.6,50.9,50.9,0,0,1,9.8,3.8l-2.1-1.3,6.6,4.1-1.9-1.4,6.3,4.7-1.7-1.4,5.9,5.4-1.5-1.6,5.4,6.1-1.2-1.6,4.8,6.6-1-1.6,4.3,7-.9-1.6,3.8,7.3-.7-1.7a150.3,150.3,0,0,1,7.8,20.2,169.7,169.7,0,0,1,3.9,16.8,148.3,148.3,0,0,1,2.1,17.6,173.1,173.1,0,0,1-.4,21.6c-.1,1.5,2.2,2.1,3.3,1.5a9.8,9.8,0,0,0,1.8-2.7,9,9,0,0,0,.9-3.2,170.5,170.5,0,0,0-.3-22.6,138.8,138.8,0,0,0-3.6-22.2c-3.2-13.1-7.9-25.9-15-37.4A74.8,74.8,0,0,0,514,127.7a64.2,64.2,0,0,0-13.9-9.7,53.5,53.5,0,0,0-18.8-5.4,64.1,64.1,0,0,0-9.8.1,19.1,19.1,0,0,0-4.8.6,72.9,72.9,0,0,0-18.2,6.4,70.7,70.7,0,0,0-21.4,17.4,79.1,79.1,0,0,0-11,17.8,93.1,93.1,0,0,0-7.1,23.6,186.7,186.7,0,0,0-2.4,26.9c-.1,8.4-.2,16.9,0,25.3.1,4.2,5.8-2,5.9-2.1q3.5-3.9,6.6-8.1A8.8,8.8,0,0,0,421.7,215.7Z" transform="translate(0 87.6)"/><path class="cls-5" d="M410.5,229.4l.4-9.6c-.2-4.4-.3-8.7-.1-13a109.2,109.2,0,0,1,6.5-37.2,39.1,39.1,0,0,1,4.9-9.8,42.4,42.4,0,0,1,5.4-7.4l-1.2,1.4,5.3-5.5-1.3,1.2,5.7-4.9-1.4,1.2c12.2-8.5,20.1-11.6,38.9-10.8l-5.9-.5L499.2,148l-5.9-4.4,9.7,8.2-5.7-5.1,9.2,9.4-5.3-5.9,8.6,10.5-4.9-6.6a122.3,122.3,0,0,1,17.3,31.2l-1.2-3,3.3,9.3-1.1-3.2,2.8,9.7-.7-3.3c1.8,7.9,3.6,15.6,4.4,23.7a170.5,170.5,0,0,1,.6,21.4c0,.8,0,2.5,1,2.8l1.2-.2a5.9,5.9,0,0,0,1.9-3.2,70,70,0,0,0,3.2-9.1c.8-2.6,1.7-5.3,1.3-8a155.3,155.3,0,0,0-8.6-34.3,128.2,128.2,0,0,0-22-36.3,64,64,0,0,0-15.1-13.8,53.6,53.6,0,0,0-19.3-7.1c-15-2.4-30.5,2.2-42.7,11.2a64.5,64.5,0,0,0-22.4,31.2,117.3,117.3,0,0,0-5.4,25,149.7,149.7,0,0,0-.7,17.7,69.3,69.3,0,0,1-.8,18.2c-.2,1.7.9,3,2.7,2.3a12.6,12.6,0,0,0,3.3-3.2A15.5,15.5,0,0,0,410.5,229.4Z" transform="translate(0 87.6)"/><path class="cls-5" d="M418.7,212.2a195.4,195.4,0,0,1-.1-30.6,90.1,90.1,0,0,1,1.7-12.7,86.4,86.4,0,0,1,4.5-15.8l-.7,1.4,4-8.7-.7,1.4c3.2-5.3,6.6-10.4,11.2-14.6a64.7,64.7,0,0,1,11.7-8.5,51.7,51.7,0,0,1,13-5.1,69.9,69.9,0,0,1,16.5-1.5l-1.7-.2,7,1.1-1.6-.4,6.9,1.7-1.5-.4a60.9,60.9,0,0,1,10.1,4.5,44,44,0,0,1,6.9,5.1,33.8,33.8,0,0,1,7.8,9,38.8,38.8,0,0,1,7,9.6c1,1.8,2,3.6,2.8,5.4a123.2,123.2,0,0,1,5.8,14.6,143.4,143.4,0,0,1,6.1,25.9,159.5,159.5,0,0,1,.9,35.2c-.1,1.4,1.2,2.2,2.5,2.3s2.3-1.7,2.4-2.9a161.6,161.6,0,0,0,.3-22,153.1,153.1,0,0,0-2.7-21.3c-2.6-12.3-6.3-24.3-12-35.4a90.8,90.8,0,0,0-10.4-16.4,71.4,71.4,0,0,0-12-11.3A55.3,55.3,0,0,0,486,113l-6.4-1.1a43.6,43.6,0,0,0-13-.1,63.7,63.7,0,0,0-16.1,4.2,67.9,67.9,0,0,0-29.2,23.3,82.8,82.8,0,0,0-13.2,30.8A144.1,144.1,0,0,0,405,197c-.2,8.5-.3,17,0,25.4.1,3.5,4.6-.1,5.3-.7a80.8,80.8,0,0,0,6-5.7A6.3,6.3,0,0,0,418.7,212.2Z" transform="translate(0 87.6)"/><path class="cls-5" d="M407.7,216.9a106,106,0,0,0,.2-12.6,116.3,116.3,0,0,1,.1-13.2,123.5,123.5,0,0,1,3.2-21.1c1.6-6.5,3.8-13.5,7.2-19.2l3.6-5.4a59.7,59.7,0,0,1,8.5-8.9l-.8.7,5.4-4.1-.8.6a44.5,44.5,0,0,1,9.8-5.4,51.3,51.3,0,0,1,10.3-3.2,50.6,50.6,0,0,1,19.4.4A42.2,42.2,0,0,1,495,137.2a84.4,84.4,0,0,1,21.6,36.1c1.3,3.6,2.5,7.4,3.5,11.2,4.4,16.3,5.6,31.4,4.9,47.9a2.6,2.6,0,0,0,.6,2.4,2.3,2.3,0,0,0,2.1.4c1.9-.6,2.3-4.7,2.3-6.3a161.5,161.5,0,0,0-1.3-24.1,159.8,159.8,0,0,0-12.3-44.2c-3.9-8.6-8.6-17.1-15.3-23.9a48.5,48.5,0,0,0-16-12c-8.1-4.2-17.5-5.2-26.5-4.8a46.2,46.2,0,0,0-15,3.5,53.4,53.4,0,0,0-13.9,7.5,81.2,81.2,0,0,0-9.4,8.2,61.6,61.6,0,0,0-12.1,19.3,106.8,106.8,0,0,0-6.4,25.3,135.4,135.4,0,0,0-1.1,17.9,57.2,57.2,0,0,1-.8,18c-.3,1.7,1,3.3,2.9,2.4a9.7,9.7,0,0,0,3.1-2.2C406.9,218.9,407.6,218.3,407.7,216.9Z" transform="translate(0 87.6)"/></g><g class="cls-8"><path class="cls-9" d="M464.1,73c9.4,2.6,19.7.4,28.4-4.3s15.7-11.6,22.2-19A198.2,198.2,0,0,0,547.8-2.8" transform="translate(0 87.6)"/><path class="cls-5" d="M471.4,94.8l4.2.7a45.3,45.3,0,0,0,5.2-.3,43.3,43.3,0,0,0,8.1-1.8c9.8-3.1,18.7-9.2,26.1-16.2a109.3,109.3,0,0,0,10.4-11.1c4.5-5.5,9.1-11.2,13.3-17a224.9,224.9,0,0,0,12.6-19.6c5.9-10,10.5-20.6,14.9-31.3,1.4-3.5-4.8-2-6.1-1.8-3.4.7-6.8,1.5-10.1,2.5a9.4,9.4,0,0,0-5,2.4c-3.1,6.3-6.2,12.6-9.7,18.8a190.6,190.6,0,0,1-14.9,21.8A168.1,168.1,0,0,1,508,56.1a85.7,85.7,0,0,1-11.6,10.1c-5.5,3.9-11.6,7.5-18.4,8.6s-12.4.2-18.3-1.6c-4.4-1.3.8,7.1.7,7,2.1,3.4,4.3,6.8,6.6,10A12.2,12.2,0,0,0,471.4,94.8Z" transform="translate(0 87.6)"/><path class="cls-5" d="M474.1,86.9c3.1.7,6.3,1.4,9.5,1a55.4,55.4,0,0,0,5.6-1.1,48.5,48.5,0,0,0,12.7-5.2,74.6,74.6,0,0,0,13.5-9.5c9-8.1,16.3-17.8,23.5-27.5a263.1,263.1,0,0,0,15.9-24.5l5.4-10.2c3.4-6.9,6.5-14,9.2-21.2a2.4,2.4,0,0,0-2.5-1.6,54.3,54.3,0,0,0-9,.4,53.1,53.1,0,0,0-8.9,1.3,2.5,2.5,0,0,0-2.2,2,252.3,252.3,0,0,1-13.6,27.6,263.4,263.4,0,0,1-17.7,25.5c-3.8,4.9-7.5,9.8-12,14a78.5,78.5,0,0,1-13.8,10.5l1.1-.5-4.9,2.2,1-.4-5.1,1.8,1.1-.4a26,26,0,0,1-7.4,1.1,22.9,22.9,0,0,1-7.3-1.7,1.4,1.4,0,0,0-1.9.9,6.5,6.5,0,0,0,1,4.5,76.9,76.9,0,0,0,3.8,7.6A6.3,6.3,0,0,0,474.1,86.9Z" transform="translate(0 87.6)"/><path class="cls-5" d="M476.2,93.1a34.2,34.2,0,0,0,7.8.6,42.1,42.1,0,0,0,9.9-1.8c9.9-3.1,18.8-9.3,26.2-16.4a98.8,98.8,0,0,0,10.3-11.1c4.8-5.8,9.5-11.9,13.9-18.1a222.8,222.8,0,0,0,12.4-19.6C562.5,16.6,567,6.1,571.4-4.6A3,3,0,0,0,568-5.7a72.2,72.2,0,0,0-7.9,1.3c-3.3.7-6.5,1.4-9.7,2.3A14.6,14.6,0,0,0,543.8.5a131,131,0,0,1-7,13.4c-2.7,4.8-5.6,9.5-8.7,14l.7-1.1L522.1,36l.8-1-7.2,8.7.9-1L509,50.8l1-.9-4.9,4.6,1-.8c-3.1,2.7-6.2,5.3-9.4,7.8a48.4,48.4,0,0,1-9.3,5.5l1.2-.4-4.7,1.8,1.2-.4-4.5,1.2,1.3-.2-4.8.7,1.3-.2-4.4.2h1.3l-4.9-.5a14.5,14.5,0,0,1-5-1.1c-1.1-.5-1.7-.2-1.8,1a14,14,0,0,0,2.2,6.6c1.9,4,4,8,6.2,11.8A15.6,15.6,0,0,0,476.2,93.1Z" transform="translate(0 87.6)"/><path class="cls-5" d="M482.5,101.8a25.4,25.4,0,0,0,9.1.5l1.2-.2a43.9,43.9,0,0,0,9.3-2.4,54.2,54.2,0,0,0,15.5-8.4,105.1,105.1,0,0,0,12-10.1,192.4,192.4,0,0,0,14.9-17.6l7.2-9.6a165.5,165.5,0,0,0,9.7-14.9A164.3,164.3,0,0,0,570,23.7a214.4,214.4,0,0,0,9.5-21.4,1.7,1.7,0,0,0-.9-2,5.1,5.1,0,0,0-3.8.5,55.1,55.1,0,0,0-6.6,2.9,4.5,4.5,0,0,0-2.9,2.5c-3.3,6.7-6.6,13.3-10.4,19.7a210.8,210.8,0,0,1-15.7,22.9,166.9,166.9,0,0,1-13.1,14.8A111.5,111.5,0,0,1,514,74.3c-5.7,4.3-12,8.2-18.9,10.2a38.3,38.3,0,0,1-9.5,1.4H482a15.4,15.4,0,0,1-5.2-.9c-3.4-.9-1.3,4.4-.9,5.4a80.8,80.8,0,0,0,3.7,7.9A7.9,7.9,0,0,0,482.5,101.8Z" transform="translate(0 87.6)"/><path class="cls-5" d="M482.7,94.7a30.6,30.6,0,0,0,7.8.7,41.7,41.7,0,0,0,12.6-2.7,63.3,63.3,0,0,0,12.8-6.9A99.1,99.1,0,0,0,530,74c3.5-3.7,6.8-7.7,10-11.7s7.6-9.9,11.2-15A225.5,225.5,0,0,0,563.5,28L569,17.8a221.6,221.6,0,0,0,9.3-21.3c1.5-3.7-5.2-1.8-6.3-1.6-3.6.8-7.1,1.8-10.5,2.9A9.9,9.9,0,0,0,556.3.4c-2.9,6.2-6.2,12.3-9.7,18.3q-3.9,6.6-8.4,12.9t-9.3,12.3c-3.6,4.2-7.4,8.4-11.2,12.5l.8-.9C512.7,61.1,507,66.9,499.9,71a64.4,64.4,0,0,1-7,3.4,41.8,41.8,0,0,1-6.8,1.6h1.2l-4.5.2H484l-4.6-.2h1.2l-3.2-.8c-3.6-.8-1.6,4.7-1.2,6,1.1,3.1,2.3,6.2,3.6,9.2A9.2,9.2,0,0,0,482.7,94.7Z" transform="translate(0 87.6)"/><path class="cls-5" d="M470,90.9c3.3.5,6.6,1.2,10.1.6a40.9,40.9,0,0,0,8.4-2.6,86.8,86.8,0,0,0,13.7-6.7,93.6,93.6,0,0,0,14.3-11.5,121.9,121.9,0,0,0,10.8-12c4.9-6.2,9.7-12.6,14.2-19.1a223.4,223.4,0,0,0,12.6-20.4c5.8-10.2,10.2-21,14.5-31.9a2.2,2.2,0,0,0-1.6-3.2c-1.3-.3-3.8-.3-4.3,1.2-2.5,7-5.1,13.8-8.2,20.5a222.3,222.3,0,0,1-11,20.4c-4,6.7-8.5,13-13,19.3s-7.3,10.3-11.4,15.1c-6.2,7.1-13.2,13.6-21.5,18.3a90.1,90.1,0,0,1-10.4,4.9,13.6,13.6,0,0,1-7.1,1.7,14.4,14.4,0,0,1-9.4-.3c-1.1-.2-2.9.7-3.1,1.9S468.9,90.7,470,90.9Z" transform="translate(0 87.6)"/><path class="cls-5" d="M467.8,94.6l4.2.7h4.6a41.3,41.3,0,0,0,13-3.2,75.7,75.7,0,0,0,25.1-17.1,200.6,200.6,0,0,0,22.2-27.3,222,222,0,0,0,15.4-25.1A103.2,103.2,0,0,0,557.6,12c2.5-5.2,4.8-10.6,6.8-16.1a1.9,1.9,0,0,0-.5-2.1,4,4,0,0,0-3.4-.3,31.5,31.5,0,0,0-6.1,1.3,3.9,3.9,0,0,0-3,1.7c-2.9,6.8-5.8,13.6-9.2,20.1a199.6,199.6,0,0,1-14.6,23.8c-4,5.5-8.2,10.9-12.6,16.1a112.5,112.5,0,0,1-12.3,12.6c-6.4,5.2-13.4,10-21.4,12.2a39.9,39.9,0,0,1-11.4,1.3,34.4,34.4,0,0,1-9.9-2.1,1.4,1.4,0,0,0-1.7,1.3,6,6,0,0,0,1.5,3.9,67.4,67.4,0,0,0,4.7,6.2A5.3,5.3,0,0,0,467.8,94.6Z" transform="translate(0 87.6)"/><path class="cls-5" d="M474.3,103.7l4.3.7,4.7-.2a42.4,42.4,0,0,0,13.1-3.5,77.3,77.3,0,0,0,25.2-17c8.3-8.3,15.6-17.7,22.5-27.2a226.9,226.9,0,0,0,15.7-25.3c1.9-3.4,3.7-6.9,5.3-10.5,2.6-5.3,4.9-10.7,7-16.2a2,2,0,0,0-.9-2,2.8,2.8,0,0,0-2.8.1c-2.3.6-5.8,1.7-6.8,4-3.3,7-6.5,13.9-10.3,20.7a188.9,188.9,0,0,1-16,24c-7.8,10.2-16.7,20.4-27.3,27.9-6.7,4.7-14,8.7-22.1,10.2a38.3,38.3,0,0,1-11.2.5l-4-.5a17.7,17.7,0,0,1-5.5-1.3,1.4,1.4,0,0,0-1.7,1.2,7.3,7.3,0,0,0,1.9,4.4,85.8,85.8,0,0,0,5.3,7A7.5,7.5,0,0,0,474.3,103.7Z" transform="translate(0 87.6)"/><path class="cls-5" d="M482.3,88.8a19.1,19.1,0,0,0,6.3.2,19.5,19.5,0,0,0,3.4-.3,61.7,61.7,0,0,0,9.1-2.5,47.8,47.8,0,0,0,8.8-4.3,87.2,87.2,0,0,0,16.4-12.6,126.2,126.2,0,0,0,12.8-14.6l8-10.8c3.5-4.8,6.8-9.6,9.9-14.7s7.8-13.4,11.3-20.4,6-13.5,8.8-20.3a1.4,1.4,0,0,0-.2-2.1,7.2,7.2,0,0,0-4.8-.6,68.4,68.4,0,0,0-9.1.8,7.5,7.5,0,0,0-4.6,1.5L554-1.3l.5-1.1L549.5,8l.6-1-5.4,10.2.6-1c-2.8,4.9-5.7,9.7-8.8,14.3s-5.8,8.7-9,12.9-6,8.7-9.3,12.8a88.5,88.5,0,0,1-11.8,11.9l-4,3a40,40,0,0,1-8.1,4.5l1.1-.3-5,1.7,1.1-.3-5.1,1.1,1.1-.2a17,17,0,0,1-7.1-.5c-2.6-.4-2.4,2.2-2,3.9a25.8,25.8,0,0,0,1.9,5.3A3.4,3.4,0,0,0,482.3,88.8Z" transform="translate(0 87.6)"/><path class="cls-5" d="M469.7,100.9l4.2.6,4.6-.3a45.2,45.2,0,0,0,13-3.3A78.1,78.1,0,0,0,516.7,81a216.6,216.6,0,0,0,22.5-27.2,212.3,212.3,0,0,0,15.6-25.3A86.1,86.1,0,0,0,560.1,18c2.6-5.3,4.9-10.7,7-16.2a2.1,2.1,0,0,0-.7-2,3.2,3.2,0,0,0-3-.2,42,42,0,0,0-5,1.7,3.1,3.1,0,0,0-2.3,2c-3.1,6.9-6.3,13.8-9.9,20.5a189.7,189.7,0,0,1-15.6,24c-7.7,10.4-16.3,20.7-26.7,28.4-6.8,5-14.2,9.4-22.5,11a44.8,44.8,0,0,1-11.6.6l-4.1-.5a21,21,0,0,1-5.5-1.3,1.3,1.3,0,0,0-1.6,1.3,6.4,6.4,0,0,0,2,4.2q2.5,3.4,5.4,6.6A6.8,6.8,0,0,0,469.7,100.9Z" transform="translate(0 87.6)"/><path class="cls-5" d="M480,88.2a19.6,19.6,0,0,0,6.8.6,17.1,17.1,0,0,0,7.7-1.5,61.3,61.3,0,0,0,10.6-4.5,83.7,83.7,0,0,0,22.3-17.9,187.4,187.4,0,0,0,13.9-18c6.9-9.7,13.7-19.3,19.3-29.8l5.3-10.4c3.4-7,6.4-14.2,9.1-21.5.9-2.4-1.1-2.9-3.1-3.1a37.5,37.5,0,0,0-5.8.1,3.7,3.7,0,0,0-3,1.2,270.4,270.4,0,0,1-12.4,30q-3.7,7.4-8.1,14.4a139.9,139.9,0,0,1-9,14.1c-2.7,4.2-5.2,8.5-8.2,12.5l-4.5,5.9Q506.4,84.5,484,82.6l.9.2-5.1-1.1a4.4,4.4,0,0,0-2,.8,1.5,1.5,0,0,0-.4,1.9C477.6,85.9,478.4,88,480,88.2Z" transform="translate(0 87.6)"/><path class="cls-5" d="M467.4,94.8c3.3.5,6.6,1.1,10,.5a40.9,40.9,0,0,0,8.4-2.6A71.5,71.5,0,0,0,499.4,86a94.4,94.4,0,0,0,14.4-11.5,134.9,134.9,0,0,0,10.7-12c5-6.2,9.7-12.7,14.2-19.2a224.4,224.4,0,0,0,12.7-20.4C557.2,12.5,561.7,1.6,566-9.5a2.3,2.3,0,0,0-1.4-3.2c-1.2-.3-3.1-.2-3.7,1.2a209.1,209.1,0,0,1-8.8,21.4A214.2,214.2,0,0,1,541,30.4a213.1,213.1,0,0,1-13.3,19.3c-2.8,4.2-5.8,8.2-9,12.1A89.6,89.6,0,0,1,497,81.3,78.4,78.4,0,0,1,476.3,90h.8a31.8,31.8,0,0,1-9.7-1.1,2.7,2.7,0,0,0-2.9,2.2C464.4,92.1,466.2,94.7,467.4,94.8Z" transform="translate(0 87.6)"/></g><text class="cls-10" transform="translate(276.1 180.4)">VISUAL MEDIA<tspan class="cls-11"><tspan x="47.5" y="44">DESIGN 105</tspan></tspan></text><text class="cls-12" transform="translate(283.8 180.4)">VISUAL MEDIA<tspan class="cls-11"><tspan x="47.5" y="44">DESIGN 105</tspan></tspan></text></svg>